<?xml version="1.0" encoding="UTF-8" standalone="no"?>
    <svg xmlns="http://www.w3.org/2000/svg" xmlns:xlink="http://www.w3.org/1999/xlink" version="1.1" viewBox="0 0 1365 2048">
    <path transform="translate(0,0)" style="stroke-width: 0; fill: rgb(124,124,124)" vector-effect="non-scaling-stroke" stroke-linecap="round" d="M608.6299 2.2958C614.3268 1.512 623.5709 1.5456 629.4721 1.5036 700.9314 1.1387 769.6357 28.0531 820.5642 76.3615 901.3299 153.596 897.8313 231.8832 897.8176 333.1717L897.8051 497.2299 898.5562 1117.461C915.414 1127.0153 931.7388 1137.4219 947.462 1148.6327 1055.4618 1225.62 1126.5101 1341.4609 1144.4328 1469.761 1164.2238 1603.4504 1136.2748 1735.1113 1051.3479 1844.1466 967.3389 1952.3536 842.0304 2023.8315 703.1733 2042.7242 700.696 2043.3844 684.8782 2044.8607 681.6797 2045.1368 630.2805 2049.6019 576.6006 2046.1091 526.1131 2036.2666 390.5778 2010.3521 271.417 1933.3049 195.16 1822.2531 136.5144 1737.1278 114.1639 1650.9703 114.0008 1549.4969 113.7019 1362.6582 199.8294 1219.6785 360.0705 1117.557L360.3432 501.0013 360.3009 339.7434C360.2959 242.8251 356.8857 166.6277 427.7086 88.3861 474.0387 38.0252 538.9716 7.127 608.6299 2.2958ZM640.4251 1955.7025C749.6504 1954.8743 857.03 1908.2066 933.4215 1833.5239 1012.786 1755.7685 1056.7347 1650.7542 1055.5415 1541.695 1055.6087 1433.9921 1010.762 1330.7783 931.0836 1255.2674 914.3205 1239.4234 896.242 1224.9238 877.0277 1211.9126 866.3264 1204.6868 855.0621 1198.0131 844.1353 1191.0994 822.4113 1177.3559 806.6968 1172.1106 806.3668 1144.4437L804.9058 506.9704 804.9556 339.2128C804.9631 308.2919 806.6084 260.6124 801.3586 231.187 795.4736 197.0757 778.678 165.5882 753.3172 141.1261 720.9392 110.6433 677.3379 93.7791 632.0765 94.2328 629.436 94.2532 623.6918 94.234 621.2344 94.7033 538.6017 102.4093 471.7669 155.7674 459.0952 236.2991 454.1431 267.7698 455.8121 303.0886 455.7573 335.0778L455.5854 481.7485 456.0088 1001.4832C456.1023 1028.1634 458.9881 1144.7198 454.3374 1157.515 452.0731 1163.7445 448.1473 1168.7978 443.1341 1173.2389 430.7227 1184.2216 413.7515 1192.2156 399.4669 1200.8938 387.5362 1208.1436 376.0727 1216.3897 364.8632 1224.6237 247.405 1310.9613 194.5111 1449.5239 208.5118 1589.1789 218.908 1696.1256 273.4522 1794.5622 359.8886 1862.3791 441.9721 1927.3634 535.1791 1956.0145 640.4251 1955.7025Z"/>
    <path transform="translate(0,0)" style="stroke-width: 0; fill: rgb(124,124,124)" vector-effect="non-scaling-stroke" stroke-linecap="round" d="M617.6239 312.0166C655.8707 307.4194 691.6801 329.0032 694.4401 366.6266 696.6571 396.8502 695.3705 431.2148 695.3618 461.7792L695.2821 651.7075 695.3294 1273.1916C823.9858 1311.0491 910.0947 1403.3401 917.7321 1535.8533 926.6511 1690.5839 803.8261 1823.2291 641.545 1829.0025 516.8978 1832.2193 396.6572 1756.8165 357.4601 1641.3716 333.0359 1568.4414 339.3618 1489.1856 375.0715 1420.7085 415.0882 1345.1376 483.3789 1298.3379 565.7077 1272.7475 567.485 1201.8338 565.7887 1123.6462 565.7849 1052.2644L565.7949 619.297 565.7575 455.3456C565.7501 427.291 565.0675 398.7526 566.1138 370.7653 567.2733 339.7483 588.1703 320.0682 617.6239 312.0166Z"/>
    <path transform="translate(0,0)" style="stroke-width: 0; fill: rgb(124,124,124)" vector-effect="non-scaling-stroke" stroke-linecap="round" d="M1013.9918 667.2803C1049.0776 665.8987 1088.1016 667.6848 1123.673 666.9814 1150.8511 667.2719 1178.14 666.3308 1205.2794 667.5251 1226.4156 668.4542 1242.4327 680.5124 1248.4236 699.8732 1252.4216 712.5664 1250.9146 726.281 1244.2511 737.8867 1236.6411 750.994 1225.6309 756.7818 1211.2205 760.6768 1207.2473 761.0477 1203.4237 761.295 1199.4381 761.295 1146.0933 761.2902 1092.7572 761.4222 1039.4212 761.4438 1025.7531 761.4498 1011.2405 762.5085 999.0545 755.8204 987.4938 749.3592 979.1664 738.6345 975.9954 726.1226 972.62 713.0465 974.8482 699.2095 982.1793 687.7346 989.8902 675.4771 1000.1493 670.6519 1013.9918 667.2803Z"/>
    <path transform="translate(0,0)" style="stroke-width: 0; fill: rgb(124,124,124)" vector-effect="non-scaling-stroke" stroke-linecap="round" d="M1018.4919 892.8071L1142.0455 892.6703C1162.4094 892.6486 1210.2242 889.978 1225.768 898.3729 1237.4259 904.7993 1245.9327 915.4603 1249.3702 927.9735 1257.4909 957.1168 1236.2302 979.2395 1207.7955 985.6899 1168.8238 986.727 1128.3824 985.5423 1089.2039 986.0044 1065.6366 985.6539 1041.9571 986.865 1018.4471 985.2602 996.3021 983.749 979.6199 968.0731 975.7601 947.4663 973.3276 935.0901 976.181 922.2901 983.6752 911.9687 992.715 899.764 1003.8261 895.2869 1018.4919 892.8071Z"/>
    <path transform="translate(0,0)" style="stroke-width: 0; fill: rgb(124,124,124)" vector-effect="non-scaling-stroke" stroke-linecap="round" d="M1016.3682 214.4733C1023.8549 213.9091 1054.7857 213.5358 1060.9123 214.1804 1092.3587 217.4884 1204.3951 207.0998 1227.6611 220.5852 1238.5717 226.9312 1246.356 237.279 1249.2082 249.2579 1256.046 277.507 1238.5717 300.2203 1210.0871 306.6443 1150.191 309.8371 1082.1281 305.9229 1021.7276 306.6503 969.4938 307.2792 951.9298 227.6369 1016.3682 214.4733Z"/>
    <path transform="translate(0,0)" style="stroke-width: 0; fill: rgb(124,124,124)" vector-effect="non-scaling-stroke" stroke-linecap="round" d="M1015.4741 441.5699C1058.3243 441.8832 1101.1769 441.9432 1144.0259 441.7487 1165.8968 441.7163 1188.0294 441.1846 1209.8381 442.4521 1230.4636 443.6512 1245.5715 459.3799 1249.582 478.2871 1252.2225 490.5577 1249.6567 503.3373 1242.4702 513.7775 1233.9261 526.0278 1222.0938 531.0438 1207.6211 533.7013 1199.625 535.1957 1145.0098 534.6111 1134.2487 534.6171L1062.2937 534.6159C1047.1035 534.6039 1032.4017 534.8464 1017.2377 533.7397 982.3388 531.3823 962.3323 488.7261 982.6626 461.4336 992.4896 448.2423 998.7819 444.9019 1015.4741 441.5699Z"/>
</svg>