<?xml version="1.0" encoding="UTF-8" standalone="no"?><!DOCTYPE svg PUBLIC "-//W3C//DTD SVG 1.1//EN" "http://www.w3.org/Graphics/SVG/1.1/DTD/svg11.dtd"><svg xmlns="http://www.w3.org/2000/svg" xmlns:xlink="http://www.w3.org/1999/xlink" version="1.1" viewBox="208 382 1633 1258">
    <defs>
    </defs>
    <path transform="translate(0,0)" style="fill: rgb(124,124,124)" stroke-linecap="round" d="M 352.942 383.736 C 368.011 381.744 410.189 382.809 427.146 382.815 L 575.535 382.863 L 1079.07 382.845 L 1519.94 382.892 L 1636.61 382.835 C 1654.83 382.831 1690.44 381.846 1706.5 384.835 C 1736.88 389.008 1772.71 408.501 1793.64 430.418 C 1829.7 468.194 1840.74 502.212 1840.89 552.6 L 1840.91 1051.76 L 1840.92 1189.28 C 1840.95 1214.2 1842.28 1254.81 1838.16 1277.58 C 1832.49 1308.37 1817.56 1336.7 1795.36 1358.79 C 1748.96 1404.94 1706.41 1402.89 1646.41 1402.87 L 1545.97 1402.82 L 1166.3 1402.87 C 1167.27 1414.78 1166.5 1440.74 1166.5 1454.12 L 1166.44 1566.22 C 1219.44 1565.64 1272.72 1566.36 1325.78 1566.33 C 1348.32 1567.04 1372.62 1564.83 1394.96 1566.5 C 1425.64 1569.52 1435.75 1608.72 1415.76 1629.75 C 1407.03 1638.93 1398.37 1639.85 1386.3 1639.94 C 1334.08 1640.33 1281.83 1640.16 1229.61 1640.16 L 926.938 1640.13 L 740.763 1640.12 L 686.709 1640.14 C 676.074 1640.18 665.693 1640.19 654.911 1639.92 C 611.731 1640.03 610.781 1570.89 650.382 1567.16 C 674.246 1564.91 703.659 1566.05 727.816 1566.1 L 880.137 1566.18 L 880.231 1402.77 L 504.412 1402.8 L 402.208 1402.86 C 344.714 1402.87 305.448 1405.43 259.197 1363.65 C 204.741 1314.46 209.074 1257.65 209.173 1191.5 L 209.196 1095.98 L 209.196 792.489 L 209.155 614.433 C 209.145 583.818 207.323 544.417 211.483 514.599 C 220.812 447.721 284.882 387.327 352.942 383.736 Z M 1699.69 461.796 C 1682.85 458.803 1659.29 459.618 1641.71 459.631 L 1559.2 459.705 L 1265.62 459.727 L 648.484 459.701 L 458.82 459.779 C 430.305 459.775 392.338 458.509 364.524 459.875 C 349.024 460.602 334.043 465.677 321.292 474.519 C 277.406 505.147 284.782 546.812 284.495 593.592 C 284.441 602.313 284.52 611.094 284.52 619.808 L 284.507 807 L 284.607 1082.34 L 284.472 1187.99 C 284.44 1208.42 284.301 1229.01 284.917 1249.19 C 286.034 1285.79 317.691 1321.28 353.784 1326.65 C 368.628 1328.87 390.503 1327.86 406.078 1327.85 L 496.872 1327.84 L 825.021 1327.84 L 1403.5 1327.82 L 1588.03 1327.83 C 1620.48 1327.85 1653.42 1328.48 1685.81 1327.6 C 1722.86 1326.6 1753.25 1297.02 1762.33 1262.4 C 1763.8 1254.46 1762.93 1209.03 1762.92 1197.85 L 1762.97 1045.18 L 1762.93 716.999 L 1762.93 572.718 C 1762.72 550.226 1766.7 530.578 1756.65 509.896 C 1743.82 483.467 1726.67 471.513 1699.69 461.796 Z M 955.372 1566.04 C 969.973 1566.05 1086.94 1567.41 1090.53 1565.09 L 1090.53 1562.25 L 1090.62 1465.5 C 1090.57 1447.44 1089.6 1419.52 1091.21 1402.16 C 1072.89 1403.95 1040.02 1402.54 1019.94 1402.84 C 1005.13 1403.06 968.641 1403.75 955.154 1402.26 C 957.036 1425.74 955.437 1465.43 955.827 1490.45 C 956.089 1507.29 956.899 1550.92 955.372 1566.04 Z"/>
    <path transform="translate(0,0)" style="fill: rgb(124,124,124)" stroke-linecap="round" d="M 352.942 383.736 C 368.011 381.744 410.189 382.809 427.146 382.815 L 575.535 382.863 L 1079.07 382.845 L 1519.94 382.892 L 1636.61 382.835 C 1654.83 382.831 1690.44 381.846 1706.5 384.835 C 1661.96 387.161 1616.96 386.423 1572.3 386.435 L 1376.94 386.454 L 789.916 386.486 L 496.047 386.428 L 409.816 386.394 C 394.509 386.328 377.092 386.681 361.992 384.79 C 358.42 384.343 356.923 383.987 352.942 383.736 Z"/>
    <path transform="translate(0,0)" style="fill: rgb(124,124,124)" stroke-linecap="round" d="M 1699.69 461.796 C 1727.19 458.746 1764.81 503.457 1765.61 530.273 C 1766.34 554.354 1766.16 578.549 1766.27 602.666 L 1766.25 771.335 L 1766.24 1074.54 C 1766.25 1129.8 1766.72 1185.12 1766.1 1240.38 C 1766.02 1246.82 1766.17 1257.35 1762.33 1262.4 C 1763.8 1254.46 1762.93 1209.03 1762.92 1197.85 L 1762.97 1045.18 L 1762.93 716.999 L 1762.93 572.718 C 1762.72 550.226 1766.7 530.578 1756.65 509.896 C 1743.82 483.467 1726.67 471.513 1699.69 461.796 Z"/>
</svg>