<?xml version="1.0" encoding="UTF-8" standalone="no"?><!DOCTYPE svg PUBLIC "-//W3C//DTD SVG 1.1//EN" "http://www.w3.org/Graphics/SVG/1.1/DTD/svg11.dtd"><svg xmlns="http://www.w3.org/2000/svg" xmlns:xlink="http://www.w3.org/1999/xlink" version="1.1" viewBox="527 199 992 1684">
    <defs>
    </defs>
    <path transform="translate(0,0)" style="fill: rgb(124,124,124)" stroke-linecap="round" d="M 744.349 201.259 C 754.325 199.355 772.112 199.914 782.898 199.945 L 838.797 200.083 L 1051.53 200.06 L 1220.92 200.054 C 1236.36 200.035 1290.58 199.014 1302.3 201.428 C 1314.65 204.302 1325.95 210.573 1334.91 219.533 C 1358.6 243.135 1353.98 273.733 1353.99 304.529 L 1353.97 385.462 L 1353.97 673.454 C 1436.08 677.323 1515.06 766.687 1518.05 847.299 C 1519.28 880.481 1518.69 914.766 1518.73 948.067 L 1518.76 1143.27 L 1518.81 1317.38 C 1518.81 1354.84 1519.97 1400.05 1516.93 1436.65 C 1508.62 1536.72 1469.07 1637.68 1402.7 1713.69 C 1316.72 1812.59 1194.85 1873.11 1064.09 1881.84 C 761.482 1901.78 515.228 1677.77 528.413 1368.53 C 529.341 1346.76 528.545 1321.29 528.583 1299.21 L 528.63 1074.66 L 528.64 923.454 C 528.607 903.055 528.907 882.211 528.323 861.846 C 525.706 770.631 599.278 679.197 693.69 673.63 C 692.296 658.579 693.212 625.863 693.215 610.057 L 693.312 485.735 L 693.255 339.245 C 693.264 313.254 692.779 287.057 694.001 261.112 C 695.41 231.204 716.165 208.951 744.349 201.259 Z M 1265.76 1741.09 C 1357.54 1678.29 1420.06 1581.07 1439.11 1471.5 C 1449.26 1415.41 1445.93 1358.09 1445.97 1300.89 L 1445.98 1066.48 L 1445.92 921.354 C 1445.9 875.894 1452.39 834.728 1424.52 795.302 C 1382.96 736.495 1332.56 744.105 1269.12 744.228 L 1129.71 744.267 L 848.114 744.264 C 803.512 744.262 750.324 742.724 706.579 744.374 C 671.895 748.134 648.699 760 625.926 786.9 C 591.739 827.281 599.117 880.78 599.132 930.521 L 599.207 1090.78 L 599.263 1305.06 C 599.278 1346.65 597.73 1402.56 602.523 1442.85 C 614.622 1553.93 670.894 1655.48 758.67 1724.62 C 852.412 1797.91 966.203 1823.02 1083.53 1809.5 C 1151.06 1801.71 1209.15 1778.37 1265.76 1741.09 Z M 1284.86 673.38 C 1283.26 666.87 1283.22 608.414 1283.24 600.031 L 1283.95 451.921 C 1284.63 392.682 1282.31 331.153 1284.01 271.98 L 764.011 271.922 C 762.384 367.882 765.198 466.173 763.962 562.297 C 763.493 598.752 764.993 637.36 763.734 673.493 C 783.152 671.524 828.731 672.872 849.582 672.896 L 1016.49 672.899 L 1195.31 672.877 C 1217.39 672.871 1264.71 671.536 1284.86 673.38 Z"/>
    <path transform="translate(0,0)" style="fill: rgb(124,124,124)" stroke-linecap="round" d="M 744.349 201.259 C 754.325 199.355 772.112 199.914 782.898 199.945 L 838.797 200.083 L 1051.53 200.06 L 1220.92 200.054 C 1236.36 200.035 1290.58 199.014 1302.3 201.428 C 1292.52 205.03 1255.27 203.916 1242.84 203.919 L 1136.66 203.923 C 1009.01 203.913 881.203 204.197 753.568 203.585 C 749.229 203.565 747.872 203.701 744.349 201.259 Z"/>
    <path transform="translate(0,0)" style="fill: rgb(124,124,124)" stroke-linecap="round" d="M 1025.09 858.734 C 1028.68 859.464 1036.77 860.876 1039.1 863.742 C 1062.35 892.33 1081.71 924.606 1103.5 954.421 C 1112.53 966.786 1118.51 983.933 1102.91 994.18 C 1093.24 1000.54 1062.51 998.737 1050.01 998.214 L 1050.06 1173.5 C 1050.07 1203.25 1049.39 1236.36 1050.24 1265.94 C 1078.22 1240.95 1113.94 1208.55 1140.92 1182.33 C 1140.94 1172.53 1140.84 1162.38 1140.99 1152.61 C 1110.89 1150.1 1109.84 1126.94 1109.81 1103.41 C 1109.76 1062.68 1109.53 1038.98 1159.05 1041.67 C 1178.53 1042.73 1203.8 1036.33 1217.48 1055.62 C 1219.86 1058.96 1221.48 1062.78 1222.22 1066.81 C 1224.79 1080.44 1223 1111.13 1222.35 1125.39 C 1221.63 1140.97 1207.13 1151.21 1191.92 1152.52 C 1192.26 1181.58 1195.77 1198.17 1173.58 1219.7 C 1132.78 1259.29 1091.11 1298.16 1050.16 1337.6 C 1049.84 1378.79 1050.77 1421.39 1049.97 1462.29 C 1066.28 1468.4 1077.68 1474.13 1090 1486.88 C 1112.87 1510.56 1120.01 1548.51 1108.04 1579.25 C 1099.68 1600.24 1083.32 1617.03 1062.55 1625.93 C 1038.96 1636.03 1012.35 1636.48 988.431 1627.19 C 967.23 1618.77 950.156 1603.18 941.3 1581.99 C 932.073 1559.48 932.124 1534.23 941.441 1511.75 C 951.795 1487.02 971.223 1471.03 996.259 1462.67 C 995.798 1449.56 996.494 1435.94 995.929 1423.43 C 977.814 1408.9 957.533 1388.85 940.154 1373.08 C 914.653 1349.93 884.651 1324.74 861.861 1299.69 C 849.857 1286.49 854.435 1227.87 854.063 1208.5 C 838.74 1198.09 830.093 1187.24 825.949 1168.57 C 814.253 1115.88 875.251 1079.13 916.43 1112.02 C 928.02 1121.27 935.317 1134.87 936.621 1149.64 C 939.145 1176.32 927.885 1195.39 906.016 1209.66 L 906.009 1272.72 C 924.317 1290.69 945.64 1308.3 964.583 1325.76 C 969.58 1330.37 991.37 1350.35 996.158 1352.73 L 996.051 1100.86 L 995.864 1034.31 C 995.866 1024.94 995.449 1006.27 997.011 997.794 C 982.868 998.975 956.377 1001.07 944.597 992.742 C 936.964 987.344 935.193 972.149 940.291 964.698 C 963.062 931.414 986.526 897.779 1010.91 865.644 C 1013.94 861.654 1020.47 859.776 1025.09 858.734 Z"/>
    <path transform="translate(0,0)" style="fill: rgb(124,124,124)" stroke-linecap="round" d="M 997.011 997.794 L 998.493 997.704 C 1001.63 1009.37 998.95 1087.37 998.934 1103.97 L 999.251 1254.62 C 999.298 1278.57 1002.06 1331.18 996.158 1352.73 L 996.051 1100.86 L 995.864 1034.31 C 995.866 1024.94 995.449 1006.27 997.011 997.794 Z"/>
    <path transform="translate(0,0)" style="fill: rgb(124,124,124)" stroke-linecap="round" d="M 1101.42 412.332 C 1117.91 411.458 1137.56 412.201 1153 411.958 C 1199.62 411.223 1229.68 406.845 1226.35 466.622 C 1224.89 492.86 1226.58 508.712 1194.32 515.648 C 1175.42 515.984 1156.52 516.112 1137.61 516.03 C 1093.27 516.074 1067.82 518.587 1069.66 461.527 C 1070.47 436.232 1072.09 418.888 1101.42 412.332 Z"/>
    <path transform="translate(0,0)" style="fill: rgb(124,124,124)" stroke-linecap="round" d="M 855.424 412.25 C 874.644 411.644 945.116 409.116 958.618 416.266 C 966.49 420.434 971.995 428.143 974.576 436.548 C 979 450.955 978.834 483.472 971.664 496.823 C 965.886 507.58 957.419 511.977 946.215 515.175 C 936.747 517.451 875.235 515.29 860.463 515.706 C 856.51 515.818 848.41 513.376 844.974 512.009 C 838.544 509.501 828.261 497.788 827.554 490.86 C 824.371 459.676 817.014 421.622 855.424 412.25 Z"/>
    <path transform="translate(0,0)" style="fill: rgb(124,124,124)" stroke-linecap="round" d="M 761.07 268.901 C 789.673 267.171 830.107 268.369 860.053 268.369 L 1044.36 268.395 L 1205.27 268.358 C 1226.71 268.352 1266.48 267.189 1286.76 268.729 C 1287.67 312.899 1288.38 667.368 1285.55 673.439 L 1284.86 673.38 C 1283.26 666.87 1283.22 608.414 1283.24 600.031 L 1283.95 451.921 C 1284.63 392.682 1282.31 331.153 1284.01 271.98 L 764.011 271.922 C 762.384 367.882 765.198 466.173 763.962 562.297 C 763.493 598.752 764.993 637.36 763.734 673.493 L 762.075 674.124 C 759.739 670.967 760.833 624.654 760.836 616.691 L 760.809 509.559 C 760.764 430.119 759.737 348.154 761.07 268.901 Z"/>
</svg>