<?xml version="1.0" encoding="UTF-8"?>
<svg xmlns="http://www.w3.org/2000/svg" viewBox="161 149 1718 1697" fill-rule="evenodd">
    <path fill="#7c7c7c" d="M 723.895 1795.1C 703.956 1787.44 687.648 1780.99 668.137 1772.17C 459.756 1679.34 297.018 1507.22 216.007 1293.97C 136.985 1086.93 144.363 856.836 236.486 655.283C 330.198 447.998 502.313 286.353 715.064 205.818C 930.285 123.492 1169.69 131.948 1378.57 229.253C 1585.6 325.354 1746.57 498.992 1826.73 712.707C 1904.38 919.476 1895.35 1148.82 1801.69 1348.85C 1710.7 1547.12 1524.46 1718.48 1320.21 1794.34C 1154.58 1854.01 974.887 1862.76 804.242 1819.48C 773.802 1812 752.912 1804.23 723.895 1795.1Z M 549.894 438.259C 566.101 441.128 582.684 443.868 598.625 447.872C 668.781 465.446 733.989 498.832 789.261 545.477C 938.219 497.891 1107.76 499.619 1256.96 545.375C 1332.63 482.272 1399.62 454.66 1496 438.441C 1506.65 465.45 1518.82 511.944 1518.76 541.147C 1520.15 554.785 1520.96 580.033 1518.95 593.482C 1519.67 617.696 1510.12 653.796 1503.56 677.531C 1517.9 694.252 1532.94 712.416 1544.12 731.42C 1627.71 873.519 1616.73 1079.24 1508.27 1205.57C 1432.77 1293.52 1324.7 1330.06 1212.15 1338.26C 1204.66 1338.81 1196.81 1339.42 1189.31 1340.24C 1223.16 1369.71 1237.54 1399.41 1240.68 1444.3C 1240.95 1448.04 1241.06 1451.78 1240.99 1455.53C 1242.37 1477.94 1241.74 1499.5 1241.99 1521.81C 1242.47 1563.37 1241.36 1605.68 1242 1647.15C 1242.34 1690.36 1241.28 1734.9 1274.15 1767.27C 1292.8 1785.62 1300.88 1783.98 1320.21 1794.34C 1154.58 1854.01 974.887 1862.76 804.242 1819.48C 773.802 1812 752.912 1804.23 723.895 1795.1C 740.788 1789.79 758.646 1779.25 771.424 1766.95C 806.998 1732.71 803.608 1679.1 803.441 1633.29C 803.256 1608.29 803.225 1583.28 803.348 1558.28C 781.852 1563.4 761.933 1564.92 740.216 1566.08C 638.798 1571.5 535.424 1534.71 487.519 1439.04C 467.797 1399.66 448.056 1354.23 411.831 1326.89C 392.65 1312.42 349.463 1296.06 368.385 1264.87C 379.538 1246.19 407.904 1257.85 423.989 1263.41C 479.475 1283.78 516.005 1330.78 545.994 1379.29C 557.89 1398.53 571.511 1417.79 588.51 1432.24C 649.104 1483.72 730.019 1470.63 801.941 1458.43C 804.479 1407.59 814.348 1371.94 856.584 1339.47C 746.803 1333.91 634.777 1308.35 554.717 1228.19C 495.244 1168.65 463.186 1090.61 451.367 1007.99C 449.34 993.826 447.235 974.972 447.159 960.79C 445.981 945.387 446.322 935.014 447.166 919.793C 446.681 910.274 449.833 885.774 451.314 875.704C 463.404 793.488 491.027 741.081 542.263 678.085C 520.765 596.853 517.189 517.606 549.894 438.259Z" />
</svg>
