<svg xmlns="http://www.w3.org/2000/svg" shape-rendering="geometricPrecision" text-rendering="geometricPrecision" image-rendering="optimizeQuality" fill-rule="evenodd" clip-rule="evenodd" viewBox="0 0 512 348.84"><path fill-rule="nonzero" d="M436.78 348.51h55.96c10.6 0 19.26-8.72 19.26-19.28V19.78C512 9.24 503.28.51 492.74.51h-55.96c-10.56 0-19.29 8.66-19.29 19.27v309.45c0 10.62 8.68 19.28 19.29 19.28zM156.79 110.54L41.33 7.58C23.24-8.09 1.23 1.18 0 29.47v288.32c.74 28.63 23.82 39.27 43.62 24.02l113.17-100.88v76.86c1.62 29.6 23.59 39 43.62 24.02l158.43-141.22c19.2-17.13 18.69-32.36 0-49.7L198.12 7.58c-18.1-14.57-40.52-5.36-41.33 21.89v81.07z" fill="#7c7c7c"/></svg>