<svg xmlns="http://www.w3.org/2000/svg" viewBox="0 0 24 24"><path d="M12,8a4,4,0,1,1-4,4A4,4,0,0,1,12,8Zm1-3.2V3a1,1,0,0,0-2,0V4.8a1,1,0,1,0,2,0ZM11,19.2V21a1,1,0,0,0,2,0V19.2a1,1,0,0,0-2,0ZM17.091,7.909a1,1,0,0,0,.707-.293l1.273-1.272a1,1,0,1,0-1.414-1.415L16.384,6.2a1,1,0,0,0,.707,1.708ZM6.343,19.071,7.616,17.8A1,1,0,0,0,6.2,16.384L4.929,17.657a1,1,0,1,0,1.414,1.414ZM21,11H19.2a1,1,0,0,0,0,2H21a1,1,0,0,0,0-2ZM2,12a1,1,0,0,0,1,1H4.8a1,1,0,1,0,0-2H3A1,1,0,0,0,2,12Zm14.384,5.8,1.273,1.272a1,1,0,1,0,1.414-1.415L17.8,16.384A1,1,0,0,0,16.384,17.8ZM6.343,4.929A1,1,0,0,0,4.929,6.343L6.2,7.616A1,1,0,0,0,7.616,6.2Z" fill="#7c7c7c"/></svg>