<svg xmlns="http://www.w3.org/2000/svg" shape-rendering="geometricPrecision" text-rendering="geometricPrecision" image-rendering="optimizeQuality" fill-rule="evenodd" clip-rule="evenodd" viewBox="0 0 512 348.84"><path fill-rule="nonzero" d="M75.22 348.51H19.26C8.66 348.51 0 339.79 0 329.23V19.78C0 9.24 8.72.51 19.26.51h55.96c10.56 0 19.29 8.66 19.29 19.27v309.45c0 10.62-8.68 19.28-19.29 19.28zm279.99-237.97L470.67 7.58c18.09-15.67 40.1-6.4 41.33 21.89v288.32c-.74 28.63-23.82 39.27-43.62 24.02L355.21 240.93v76.86c-1.62 29.6-23.59 39-43.62 24.02L153.16 200.59c-19.2-17.13-18.69-32.36 0-49.7L313.88 7.58c18.1-14.57 40.52-5.36 41.33 21.89v81.07z" fill="#7c7c7c"/></svg>