<svg id="eRXIrDKj5aH1" xmlns="http://www.w3.org/2000/svg" xmlns:xlink="http://www.w3.org/1999/xlink" viewBox="0 0 118.28 122.88" shape-rendering="geometricPrecision" text-rendering="geometricPrecision" project-id="9a52f659583c433387b8d2e0c370b02d" export-id="468c6db8eed941f59644d044c7774c48" cached="false"><g transform="matrix(.910827 0 0 0.853327 5.273709 0)"><path d="M111.85,108.77c-3.47,4.82-8.39,8.52-14.13,10.48-.26.12-.55.18-.84.18-.28,0-.56-.06-.82-.17v.06c0,1.96-1.6,3.56-3.57,3.56h-7.68c-1.96,0-3.57-1.6-3.57-3.56v-55.13c0-1.96,1.6-3.57,3.57-3.57h7.68c1.96,0,3.57,1.6,3.57,3.57v.34c.26-.12.54-.18.82-.18.22,0,.44.04.64.1v.01c4.36,1.45,8.26,3.92,11.42,7.11v-12.42c0-14.89-4.99-27.63-13.81-36.6l-3.91,5.83c-7.95-8.75-19.4-14.27-32.08-14.27-12.76,0-24.29,5.59-32.24,14.45l-4.73-5.78C13.47,31.65,8.54,44.21,8.54,59.15v14.25c3.4-4.08,7.92-7.22,13.07-8.93v-.01c.21-.07.43-.11.64-.11.28,0,.57.06.82.17v-.34c0-1.96,1.61-3.57,3.57-3.57h7.68c1.96,0,3.57,1.6,3.57,3.57v55.13c0,1.96-1.61,3.56-3.57,3.56h-7.68c-1.96,0-3.57-1.6-3.57-3.56v-.06c-.25.11-.53.17-.82.17-.3,0-.58-.07-.83-.18-5.74-1.96-10.66-5.66-14.13-10.48-1.82-2.52-3.24-5.34-4.17-8.37h-3.12v-41.24C0,42.88,6.65,28.1,17.37,17.38s25.51-17.38,41.77-17.38C75.41,0,90.2,6.66,100.91,17.37c10.72,10.72,17.37,25.5,17.37,41.77v41.25h-2.27c-.91,3-2.33,5.84-4.16,8.38v0v0Z" fill="#7c7c7c"/></g><rect width="118.28" height="15.61754" rx="0" ry="0" transform="matrix(1 0 0 0.415911 0.000018 116.384494)" fill="#7c7c7c" stroke-width="0"/><rect width="7.31335" height="87.288366" rx="0" ry="0" transform="matrix(2.34408 0 0 1.129741 50.568461 17.771248)" fill="#7c7c7c" stroke-width="0"/></svg>
