<svg id="Layer_1" data-name="Layer 1" xmlns="http://www.w3.org/2000/svg" viewBox="0 0 122.88 118.34"><defs><style>.cls-1{fill-rule:evenodd;}</style></defs><title>schedule</title><path class="cls-1" d="M95.53,63.65A27.35,27.35,0,1,1,68.19,91,27.35,27.35,0,0,1,95.53,63.65ZM71.59,4.05c0-2.23,2.21-4,4.94-4s4.94,1.82,4.94,4.05V22.9c0,2.24-2.21,4.05-4.94,4.05s-4.94-1.81-4.94-4.05V4.05Zm-44.26,0c0-2.23,2.21-4,4.94-4s4.95,1.82,4.95,4.05V22.9C37.22,25.14,35,27,32.27,27s-4.94-1.81-4.94-4.05V4.05ZM48,77.66H60A38,38,0,0,0,57.62,91c0,.87,0,1.74.09,2.6H48a1.88,1.88,0,0,1-1.87-1.87V79.53A1.88,1.88,0,0,1,48,77.66ZM77.6,51.71H92.27a1.89,1.89,0,0,1,1.81,1.4,37.76,37.76,0,0,0-18.35,5.55V53.57a1.87,1.87,0,0,1,1.87-1.86ZM48,51.71H62.68a1.87,1.87,0,0,1,1.87,1.86V65.78a1.89,1.89,0,0,1-1.87,1.87H48a1.88,1.88,0,0,1-1.87-1.87V53.57A1.88,1.88,0,0,1,48,51.71Zm-29.58,0H33.1A1.87,1.87,0,0,1,35,53.57V65.78a1.89,1.89,0,0,1-1.87,1.87H18.43a1.87,1.87,0,0,1-1.87-1.87V53.57a1.87,1.87,0,0,1,1.87-1.86Zm0,25.95H33.1A1.87,1.87,0,0,1,35,79.53v12.2A1.89,1.89,0,0,1,33.1,93.6H18.43a1.87,1.87,0,0,1-1.87-1.87V79.53a1.87,1.87,0,0,1,1.87-1.87Zm45.48,34.26H10.24A10.28,10.28,0,0,1,0,101.68V20.54A10.29,10.29,0,0,1,10.24,10.3h9.44V22.9a11.24,11.24,0,0,0,4.26,8.75,13.25,13.25,0,0,0,16.67,0,11.24,11.24,0,0,0,4.26-8.75V10.3H63.94V22.9a11.23,11.23,0,0,0,4.25,8.75,13.26,13.26,0,0,0,16.68,0,11.26,11.26,0,0,0,4.25-8.75V10.3H99a10.28,10.28,0,0,1,10.24,10.24V55.63a38.34,38.34,0,0,0-4.37-1.4V39.94H4.37V99.5a8.08,8.08,0,0,0,8.05,8h49a40.11,40.11,0,0,0,2.5,4.37ZM91.74,77.23h3.34a1.12,1.12,0,0,1,1.12,1.12V91.23H108a1.12,1.12,0,0,1,1.12,1.11v3.35A1.12,1.12,0,0,1,108,96.8H90.63V78.35a1.12,1.12,0,0,1,1.11-1.12Zm3.79-7.37A21.14,21.14,0,1,1,74.4,91,21.13,21.13,0,0,1,95.53,69.86Z" fill="#7c7c7c"/></svg>