<?xml version="1.0" encoding="UTF-8" standalone="no"?><!DOCTYPE svg PUBLIC "-//W3C//DTD SVG 1.1//EN" "http://www.w3.org/Graphics/SVG/1.1/DTD/svg11.dtd"><svg xmlns="http://www.w3.org/2000/svg" xmlns:xlink="http://www.w3.org/1999/xlink" version="1.1" viewBox="233 217 1577 1589">
    <defs>
    </defs>
    <path transform="translate(0,0)" style="fill: rgb(124,124,124)" stroke-linecap="round" d="M 927.144 218.198 C 938.146 217.407 954.348 217.785 965.537 217.789 L 1033.33 217.793 L 1084.4 217.735 C 1108.49 217.728 1123.76 216.188 1145.11 230.017 C 1174.16 248.841 1175.27 287.875 1180.72 319.153 L 1196.7 411.811 C 1219.31 418.271 1243.24 426.355 1265.12 434.931 C 1279.16 440.433 1291.17 446.961 1305.86 452.107 C 1333.49 434.294 1362.66 410.285 1389.98 391.335 C 1401.79 383.259 1412.61 373.241 1425.03 366.095 C 1466.56 342.214 1492.31 373.434 1517.9 398.887 L 1571.24 452.114 L 1622.71 503.612 C 1630.35 511.266 1644.97 525.255 1651.45 533.333 C 1657.11 540.324 1660.89 548.64 1662.45 557.498 C 1667.63 585.806 1640.39 615.906 1624.86 638.436 L 1573.19 714.034 C 1591.92 743.544 1609.48 800.669 1620.42 834.629 C 1630.3 836.708 1645.85 838.402 1656.18 839.886 C 1677.13 842.944 1698.06 846.107 1718.97 849.375 C 1731.62 851.336 1744.43 853.051 1756.8 856.361 C 1782.22 863.164 1803.74 886.307 1807.66 912.435 C 1809.75 926.336 1809.32 940.885 1809.41 954.958 L 1809.7 1012.93 C 1809.75 1033.8 1809.7 1054.67 1809.54 1075.54 C 1809.42 1088.8 1809.81 1105.56 1807.55 1118.38 C 1803.62 1140.6 1786.34 1162.53 1764.83 1170.2 C 1745.15 1177.22 1722.01 1179.47 1701.05 1182.6 L 1620.28 1194.66 C 1618.08 1199.29 1616.35 1204.5 1614.89 1209.43 C 1604.71 1243.81 1589.19 1274.42 1571.65 1305.57 C 1588.09 1327.07 1606.02 1356.16 1621.84 1378.76 C 1629.9 1390.27 1651.3 1421.01 1657.13 1432.29 C 1660.3 1438.43 1662.42 1445.05 1663.39 1451.9 C 1667.22 1480.39 1646.48 1496.92 1628.63 1514.73 L 1587.82 1555.59 L 1527.27 1616.75 C 1514.33 1629.78 1500.58 1643.7 1486.42 1655.24 C 1473.34 1665.24 1444.89 1667.56 1429.74 1660.91 C 1411.95 1653.1 1391.63 1635.92 1375.86 1624.12 C 1352.62 1606.86 1329.49 1589.44 1306.49 1571.86 C 1297.47 1576.37 1285.35 1580.68 1275.88 1584.53 C 1250.19 1594.97 1223.78 1604.14 1197.04 1611.54 C 1193.74 1623.06 1191.41 1640.3 1189.43 1652.49 L 1178.79 1717.98 C 1171.44 1763.07 1163.42 1796.48 1111.24 1804.7 C 1100.66 1806.82 1085.26 1806.37 1074.15 1806.36 L 1023.55 1806.28 C 994.83 1806.29 964.545 1807.13 935.875 1805.3 C 924.875 1803.97 914.307 1801.2 904.887 1795.45 C 873.911 1776.56 870.907 1750.71 865.654 1718.19 L 855.136 1653.83 C 853.221 1641.34 851.68 1624.5 848.491 1612.65 C 814.023 1602.9 768.882 1588.8 737.225 1571.57 C 709.976 1589.47 632.958 1655.69 607.979 1662.64 C 591.708 1667.11 574.319 1664.82 559.76 1656.29 C 549.629 1650.24 499.798 1599.02 488.453 1587.67 L 431.105 1530.15 C 418.634 1517.59 406.297 1505.6 394.812 1491.81 C 383.799 1478.59 381.344 1458.2 385.666 1441.78 C 388.815 1431.22 395.678 1422.5 401.723 1413.65 C 426.029 1378.1 451.605 1342.78 474.492 1306.32 C 450.896 1264.22 441.86 1240.36 426.095 1195.39 C 407.145 1193.29 387.246 1190.04 367.57 1186.59 C 313.482 1177.08 246.957 1183.28 235.417 1113.7 C 232.464 1095.9 233.354 1084.8 233.455 1067.52 L 233.949 997.93 C 234.049 974.853 232.433 939.571 235.244 917.774 C 236.593 907.801 239.814 898.172 244.74 889.396 C 264.335 854.498 297.086 853.693 332.692 848.307 C 351.918 845.247 371.178 842.404 390.468 839.777 C 423.02 835.573 425.779 841.983 435.276 808.366 C 444.134 777.013 458.78 745.081 472.362 715.472 C 466.766 705.329 457.853 692.816 451.165 682.959 L 416.342 631.932 C 407.018 618.372 387.675 594.36 384.514 579.575 C 381.801 566.882 384.608 545.656 393.053 534.927 C 404.503 520.38 418.263 507.174 431.423 493.953 L 491.063 434.195 L 528.503 396.302 C 536.473 388.196 548.172 375.836 556.946 369.211 C 564.666 363.478 573.715 359.799 583.245 358.518 C 593.307 357.157 603.758 358.278 612.823 362.917 C 629.973 371.692 646.611 385.113 662.3 396.319 C 688.571 415.084 715.269 433.4 740.762 453.107 C 765.729 440.036 822.503 419.143 849.481 412.205 C 852.087 390.202 857.345 362.945 861.937 340.787 C 872.191 291.306 866.229 230.632 927.144 218.198 Z M 1032.51 1343.27 C 1213.82 1338.19 1356.97 1187.58 1352.83 1006.24 C 1348.69 824.905 1198.83 680.98 1017.47 684.173 C 834.775 687.39 689.553 838.603 693.721 1021.28 C 697.889 1203.96 849.856 1348.39 1032.51 1343.27 Z"/>
    <path transform="translate(0,0)" style="fill: rgb(124,124,124)" stroke-linecap="round" d="M 971.609 294.434 C 1011.18 292.131 1055.93 293.381 1095.49 296.112 C 1103.28 296.65 1107.14 334.967 1108.27 342.044 L 1119.95 413.51 C 1130.17 474.558 1138.84 471.392 1194.56 488.563 C 1207.06 492.506 1219.41 496.892 1231.6 501.713 C 1260.93 513.085 1290.11 537.35 1322.49 527.046 C 1343.57 520.338 1357.95 504.927 1375.99 494.43 C 1400.38 480.239 1430.47 449.363 1455.01 438.813 C 1466.67 448.074 1498.01 480.579 1509.53 492.461 C 1533.09 516.742 1562.63 543.788 1584.95 568.44 C 1578.3 580.456 1569.16 591.71 1561.23 602.947 C 1549.34 619.778 1537.84 636.867 1525.8 653.591 C 1517.88 664.599 1509.13 675.534 1502.75 687.528 C 1499.74 693.197 1497.55 698.985 1496.66 705.385 C 1495.57 713.249 1496.07 720.75 1498.66 728.291 C 1505.87 749.294 1520.84 770.903 1529.58 792.417 C 1539.01 815.597 1551.42 870.491 1563.95 886.406 C 1569.58 893.56 1576.65 898.052 1585.03 901.308 C 1605.72 909.346 1631.41 911.002 1653.37 914.197 C 1674.79 917.312 1696.01 920.923 1717.53 923.281 C 1723.15 923.897 1729.73 925.009 1733.18 930.014 C 1739.6 939.316 1737.26 1070.1 1734.93 1088.55 C 1734.54 1091.61 1734.13 1096.22 1731.83 1098.57 C 1722.78 1107.76 1609.77 1117.51 1587.11 1124.85 C 1580.23 1127.08 1573.6 1130.49 1568 1135.09 C 1560.65 1141.14 1556 1150.68 1552.68 1159.47 C 1543.97 1182.59 1539.33 1206.96 1529.91 1230 C 1521.11 1251.51 1502.45 1278.07 1497.47 1298.3 C 1494.77 1309.24 1495.66 1319.11 1500.43 1329.4 C 1506.35 1342.16 1515.76 1353.74 1523.73 1365.28 C 1535.59 1382.79 1547.72 1400.1 1560.13 1417.22 C 1567 1426.51 1575.22 1435.87 1580.91 1445.92 C 1582.25 1448.28 1584.37 1452.67 1583.54 1455.44 C 1581.76 1461.42 1467.34 1575.53 1453.48 1586.64 C 1443.28 1581.36 1424.9 1567.32 1414.94 1560.17 C 1396.12 1546.72 1377.19 1533.42 1358.17 1520.25 C 1291.7 1474.04 1293 1501.75 1228.2 1525.85 C 1217.87 1529.78 1207.39 1533.35 1196.81 1536.55 C 1179.68 1541.69 1157.48 1545.17 1143.15 1556.53 C 1135.7 1562.43 1130.5 1571.23 1127.23 1580.06 C 1119.34 1601.34 1106.25 1719.94 1098.64 1726.55 C 1093.33 1731.16 1081.54 1730.1 1074.75 1730.33 C 1048.21 1731.71 972.534 1735.18 950.071 1729.42 C 946.579 1728.52 944.491 1727.09 942.926 1723.78 C 939.23 1715.97 938.975 1703.95 937.679 1695.32 C 933.739 1669.08 925.159 1590.72 914.199 1571.6 C 909.008 1562.55 902.292 1556.52 893.071 1551.79 C 875.9 1542.98 854.922 1540.02 836.544 1534.03 C 813.129 1526.39 791.896 1515.75 769.981 1504.73 C 764.006 1501.72 757.949 1499 751.479 1497.23 C 741.864 1494.6 731.78 1494.43 722.303 1497.74 C 706.573 1503.24 692.484 1515.18 679.112 1524.87 C 663.122 1536.45 646.753 1547.51 630.828 1559.17 C 618.323 1568.33 605.808 1579.03 592.356 1586.68 C 591.973 1586.9 591.584 1587.11 591.198 1587.32 C 582.788 1580.67 570.64 1568.69 562.77 1561.11 C 544.36 1543.22 526.173 1525.09 508.213 1506.75 C 496.566 1494.91 469.952 1468.95 460.857 1456.79 C 464.9 1446.15 474.687 1433.84 481.444 1424.32 C 495.192 1405.06 508.798 1385.7 522.259 1366.24 C 535.204 1347.56 554.15 1326.58 549.315 1302.41 C 545.93 1285.49 535.217 1270.87 527.731 1255.47 C 522.962 1245.66 518.135 1236.3 514.488 1225.96 C 497.015 1189.47 500.812 1134.64 452.457 1123.57 C 434.931 1119.55 419.285 1117.85 402.479 1115.43 L 340.408 1106.16 C 332.371 1104.97 318.856 1104.5 312.521 1099.38 C 310.658 1097.88 310.273 1094.52 310.018 1092.27 C 307.527 1070.36 305.063 942.384 312.928 929.474 C 314.3 927.223 317.094 926.136 319.536 925.42 C 328.472 922.803 338.716 922.226 347.964 920.902 L 413.12 911.45 C 461.938 904.251 486.885 903.996 499.701 850.066 C 503.038 836.025 510.419 814.098 515.779 800.305 C 520.38 788.714 525.384 777.286 530.781 766.044 C 557.875 710.026 558.606 709.591 523.879 658.431 C 513.846 643.65 465.256 577.222 464.193 567.765 C 468.832 558.966 512.028 515.956 522.129 506.656 C 538.845 491.266 573.951 449.015 590.537 439.012 C 603.214 446.725 616.815 457.388 628.909 466.259 C 645.45 478.491 662.208 490.428 679.175 502.064 C 689.669 509.336 703.787 519.711 715.328 524.375 C 726.412 528.852 738.557 530.012 750.288 527.716 C 770.376 523.806 807.322 503.236 829.34 495.793 C 849.17 488.164 869.965 483.921 889.701 476.024 C 918.722 464.412 921.628 438.025 926.283 411.688 L 937.932 343.723 C 940.463 329.067 942.842 309.854 948.329 296.387 C 955.641 295.119 964.111 294.859 971.609 294.434 Z M 1032.51 1343.27 C 1213.82 1338.19 1356.97 1187.58 1352.83 1006.24 C 1348.69 824.905 1198.83 680.98 1017.47 684.173 C 834.775 687.39 689.553 838.603 693.721 1021.28 C 697.889 1203.96 849.856 1348.39 1032.51 1343.27 Z"/>
    <path transform="translate(0,0)" style="fill: rgb(124,124,124)" stroke-linecap="round" d="M 1003.9 612.601 C 1225.56 601.657 1414.13 772.461 1425.09 994.118 C 1436.06 1215.78 1265.28 1404.36 1043.62 1415.36 C 821.934 1426.35 633.312 1255.53 622.341 1033.84 C 611.37 812.152 782.206 623.548 1003.9 612.601 Z M 1032.51 1343.27 C 1213.82 1338.19 1356.97 1187.58 1352.83 1006.24 C 1348.69 824.905 1198.83 680.98 1017.47 684.173 C 834.775 687.39 689.553 838.603 693.721 1021.28 C 697.889 1203.96 849.856 1348.39 1032.51 1343.27 Z"/>
</svg>