<?xml version="1.0" encoding="UTF-8" standalone="no"?><!DOCTYPE svg PUBLIC "-//W3C//DTD SVG 1.1//EN" "http://www.w3.org/Graphics/SVG/1.1/DTD/svg11.dtd"><svg xmlns="http://www.w3.org/2000/svg" xmlns:xlink="http://www.w3.org/1999/xlink" version="1.1" width="1024" height="1024" viewBox="0 0 2048 2048">
<path transform="translate(0,0)" style="fill: rgb(124,124,124)" stroke-linecap="round" d="M 196.179 749.322 C 195.104 653.3 196.037 555.673 196.035 459.506 L 195.958 378.077 C 195.937 360.174 194.524 336.472 198.068 319.457 C 207.715 273.134 247.734 241.079 294.471 240.758 L 1291.1 240.852 L 1608.24 240.853 L 1705.4 240.81 C 1749.67 240.807 1788.34 236.193 1822.54 271.133 C 1846.92 296.035 1853.91 318.372 1854.13 352.484 L 1854.19 1254.36 L 1854.14 1545.96 L 1854.18 1629.87 C 1854.19 1643.91 1854.8 1666.04 1853.34 1679.25 C 1850.82 1702.61 1840.59 1724.46 1824.27 1741.35 C 1800.08 1765.92 1776.9 1772.17 1743.85 1772.21 L 728.709 1772.15 L 421.74 1772.15 L 334.322 1772.17 C 317.295 1772.19 297.917 1772.79 281.091 1771.15 C 258.246 1768.91 225.491 1749.49 214.462 1728.94 C 193.011 1703.85 195.992 1662.63 196.048 1632.01 L 196.037 1555.87 L 196.336 1299.38 C 196.055 1259.34 196.025 1219.3 196.246 1179.27 L 196.166 920.421 C 195.041 899.389 196.065 867.863 196.105 846.228 C 195.951 813.926 195.976 781.624 196.179 749.322 Z M 1414.17 416.129 L 1281.99 416.003 C 1270.2 442.765 1241.52 455.026 1213.93 444.866 C 1184.73 434.11 1175.53 397.389 1188.15 370.613 C 1193.93 358.288 1204.52 348.879 1217.44 344.59 C 1230.66 340.157 1245.11 341.282 1257.48 347.708 C 1272.53 355.611 1279.41 367.234 1284.26 382.601 L 1370.09 383.002 C 1369.89 351.317 1369.85 319.631 1369.99 287.945 L 634.824 287.929 L 409.581 287.918 L 341.476 287.931 C 330.545 287.936 311.63 287.508 301.144 288.679 C 285.802 290.454 271.523 297.402 260.658 308.378 C 235.798 333.55 241.977 371.269 241.983 404.257 L 242.07 525.644 C 251.252 525.385 294.274 523.37 298.806 530.227 C 321.431 564.454 259 556.068 242.048 556.002 L 242.066 666.963 C 251.17 666.891 292.975 664.551 297.875 670.617 C 326.32 705.837 258.382 698.912 242.028 698.009 L 242.066 801.919 L 288.943 801.792 C 332.279 801.665 330.379 802.761 330.148 844.505 L 330.08 898.114 C 342.475 898.19 353.647 898.298 366.031 899.07 C 374.632 904.89 388.019 918.884 395.729 926.579 L 447.717 978.555 C 455.256 986.06 468.693 1000.19 476.63 1006.42 C 530.247 1004.33 594.414 1006.06 648.725 1006.01 L 731.979 1005.95 C 744.719 1005.95 779.103 1003.74 789.112 1010.1 C 804.818 1021.07 820.75 1031.71 836.897 1042.01 C 855.767 1054.27 881.417 1065.4 885.673 1089.04 C 892.483 1126.87 847.392 1153.26 818.235 1128.75 C 809.36 1121.22 803.945 1110.39 803.247 1098.77 C 802.732 1089.33 805.554 1081.47 810.192 1073.44 C 794.976 1063.88 774.591 1049.28 759.997 1040.77 C 755.489 1042.29 690.023 1041.24 678.961 1041.24 L 545.56 1041.2 C 520.658 1041.2 493.573 1041.7 468.802 1040.9 C 462.209 1040.46 461.073 1037.71 456.437 1033.39 C 423.328 1002.5 392.521 967.159 359.658 936.303 L 242.049 936.048 L 242.036 1443.77 L 242.126 1594.56 C 242.16 1617.1 240.888 1642.36 242.837 1664.71 C 245.183 1691.62 271.269 1717.78 297.991 1721.01 C 315.488 1723 337.022 1722.03 355.073 1722.01 L 462.322 1721.93 L 683.68 1721.93 C 721.331 1721.95 758.985 1722.03 796.636 1721.96 C 814.87 1721.93 823.892 1718.6 828.073 1700 C 829.784 1552.25 827.216 1402.52 828.163 1254.46 C 827.753 1247.97 828.033 1237.88 827.996 1231.1 C 820.248 1225.64 811.956 1220.07 804.004 1214.9 C 749.049 1179.15 695.402 1139.66 640.402 1104.23 C 614.484 1103.21 582.815 1104.05 556.535 1104.05 L 387.134 1104.03 C 379.701 1114.77 373.061 1122.6 360.203 1127.55 C 348.37 1132.01 335.251 1131.62 323.703 1126.46 C 312.151 1121.33 303.16 1111.75 298.77 1099.9 C 290.56 1077.6 301.93 1048.11 324.811 1039.84 C 336.464 1034.16 352.495 1034.39 364.208 1039.99 C 378.453 1048.33 383.935 1054.75 390.58 1069.83 C 448.526 1070.55 586.879 1068.97 648.36 1070.71 C 652.05 1070.81 737.572 1129.66 749.131 1137.52 L 885.836 1229.82 C 914.071 1230.02 953.975 1230.88 981.899 1229.6 C 966.345 1213.71 946.662 1189.47 932.097 1171.99 L 932.008 1132.21 L 931.902 1050.2 C 931.835 1035.53 931.049 1013.02 932.556 999.121 C 919.147 991.483 909.786 983.321 905.512 967.543 C 898.123 940.258 912.436 913.783 940.624 907.343 C 953.104 904.509 966.199 906.781 976.996 913.653 C 1010.17 934.587 1003.07 983.932 966.104 999.338 C 965.993 1051.64 964.93 1108.54 966.166 1160.45 L 1008.85 1210.31 C 1014.31 1216.72 1019.8 1223.11 1025.36 1229.43 C 1026.54 1230.77 1031.73 1230.32 1033.45 1230.22 C 1075.14 1230.88 1118.39 1231.18 1160.09 1230.55 C 1245.62 1229.24 1332.85 1232.82 1418.21 1230.1 C 1415.49 1227.99 1410.78 1222.98 1408.39 1220.14 C 1403.23 1213.99 1393.58 1205.55 1393.15 1197.17 C 1392.65 1187.32 1403.41 1181.64 1412.05 1182.22 C 1421.48 1182.85 1425.99 1189.29 1431.9 1195.66 C 1442.15 1207.21 1452.06 1218.87 1462.63 1230.06 C 1476.37 1231.05 1493.9 1230.69 1507.77 1230.7 L 1579.76 1230.68 L 1804.04 1230.72 L 1804.05 1210.24 C 1750.72 1210.71 1697.39 1210.83 1644.06 1210.61 C 1611.87 1210.58 1572.99 1211.68 1541.51 1209.96 C 1527.17 1195.35 1506.24 1168.77 1493.79 1152.26 C 1487.46 1151.96 1480.3 1151.99 1473.9 1151.87 C 1475.17 1103.14 1473.97 1048.15 1473.96 999.021 L 1473.92 704.039 C 1510.28 703.325 1548.61 703.975 1585.18 703.978 L 1804.15 704.022 L 1804.05 455.762 L 1804.11 390.482 C 1804.16 378.159 1804.85 358.014 1802.88 346.331 C 1800.55 332.07 1793.82 318.891 1783.65 308.626 C 1773.58 298.717 1760.73 292.113 1746.81 289.694 C 1734.25 287.399 1716.53 287.991 1703.28 287.979 L 1641.3 287.976 L 1414.08 287.984 L 1414.17 416.129 Z M 1773.72 1677.14 C 1764.89 1698.77 1747.66 1709.41 1726.28 1716.02 L 1727.06 1726.81 C 1748.36 1725.6 1767.05 1722.27 1782.52 1706.25 C 1807.41 1680.47 1804.23 1651.96 1804.1 1619.53 L 1804.04 1565.34 C 1796.95 1565.71 1787.86 1566.57 1781.24 1564.46 C 1783.87 1578.73 1781.95 1634.99 1780.99 1652.16 C 1780.6 1659.12 1776.64 1670.53 1773.72 1677.14 Z M 956.526 1377.33 C 975.593 1374.82 988.955 1357.24 986.27 1338.2 C 983.586 1319.15 965.886 1305.96 946.868 1308.82 C 928.097 1311.64 915.106 1329.06 917.755 1347.86 C 920.405 1366.65 937.706 1379.8 956.526 1377.33 Z M 957.538 1664.59 C 969.8 1662.6 980.05 1654.18 984.377 1642.54 C 988.704 1630.89 986.442 1617.82 978.452 1608.31 C 970.462 1598.8 957.978 1594.32 945.762 1596.57 C 927.161 1600 914.787 1617.76 918.014 1636.4 C 921.24 1655.04 938.866 1667.61 957.538 1664.59 Z M 1804.1 1028.07 L 1549.02 1028.17 L 1549.12 1029.4 C 1551.24 1057.92 1547.87 1089.36 1549.12 1117.95 C 1549.75 1132.44 1543.7 1166.18 1565.42 1165.99 C 1644.72 1165.3 1724.46 1166.9 1803.72 1165.86 C 1804.84 1153.35 1803.94 1132.78 1804.06 1119.76 C 1804.34 1089.31 1803.7 1058.54 1804.1 1028.07 Z M 945.96 933.826 C 934.841 936.359 927.788 947.316 930.085 958.485 C 932.382 969.654 943.186 976.939 954.401 974.879 C 961.871 973.508 968.015 968.203 970.461 961.013 C 972.906 953.823 971.271 945.872 966.187 940.231 C 961.103 934.589 953.364 932.139 945.96 933.826 Z M 1803.98 980.25 C 1804.07 908.024 1802.82 832.08 1804.26 760.155 C 1792.7 760.403 1780.92 760.534 1769.35 760.401 C 1696.34 759.561 1622.67 761.683 1549.73 760.532 C 1548.55 766.239 1549.55 797.009 1549.5 805.202 C 1549.26 844.475 1549.23 883.75 1549.39 923.024 C 1549.42 939.833 1550.38 968.147 1549.01 984.014 L 1720.24 983.891 C 1728.93 983.891 1800.06 984.863 1803.78 982.871 L 1803.98 980.25 Z M 956.513 1522.1 C 975.184 1519.63 988.32 1502.5 985.852 1483.83 C 983.384 1465.16 966.247 1452.03 947.577 1454.5 C 928.91 1456.97 915.78 1474.1 918.247 1492.77 C 920.715 1511.43 937.846 1524.57 956.513 1522.1 Z M 1229.41 373.485 C 1222.99 374.802 1217.47 378.837 1214.27 384.545 C 1211.06 390.253 1210.49 397.071 1212.71 403.23 C 1216.63 414.13 1228.17 420.292 1239.41 417.489 C 1251.32 414.518 1258.67 402.565 1255.95 390.591 C 1253.23 378.616 1241.44 371.015 1229.41 373.485 Z M 338.256 1062.71 C 327.178 1065.69 320.55 1077.02 323.374 1088.14 C 326.198 1099.26 337.428 1106.04 348.586 1103.38 C 355.945 1101.62 361.788 1096.03 363.876 1088.76 C 365.964 1081.49 363.974 1073.65 358.668 1068.26 C 353.362 1062.86 345.562 1060.74 338.256 1062.71 Z M 295.968 898.69 L 296.322 835.87 C 285.513 835.831 250.448 836.577 242.062 835.638 L 242.088 898.161 C 254.833 898.109 284.634 897.322 295.968 898.69 Z"/>
<path transform="translate(0,0)" style="fill: rgb(124,124,124)" stroke-linecap="round" d="M 196.336 1299.38 C 198.22 1305.96 197.182 1311.16 197.695 1317.98 C 199.779 1345.68 199.089 1373.92 199.123 1401.78 L 199.286 1609.16 C 199.439 1639.09 196.287 1669.55 203.507 1698.52 C 205.525 1706.62 215.142 1723.12 214.462 1728.94 C 193.011 1703.85 195.992 1662.63 196.048 1632.01 L 196.037 1555.87 L 196.336 1299.38 Z"/>
<path transform="translate(0,0)" style="fill: rgb(124,124,124)" stroke-linecap="round" d="M 196.166 920.421 C 200.43 936.9 198.8 953.443 198.637 970.524 L 198.563 1020 C 198.738 1044.72 199.828 1069.31 199.039 1094.09 C 198.132 1122.56 200.287 1151.01 196.246 1179.27 L 196.166 920.421 Z"/>
<path transform="translate(0,0)" style="fill: rgb(124,124,124)" stroke-linecap="round" d="M196.1791 749.322C199.7831 754.29 200.8441 839.005 196.1051 846.228 195.9511 813.926 195.9761 781.624 196.1791 749.322Z"/>
<path transform="translate(0,0)" style="fill: rgb(124,124,124)" stroke-linecap="round" d="M 550.088 388.092 C 549.953 377.796 547.051 334.022 554.748 328.916 C 588.483 306.539 580.127 371.871 579.913 388.303 C 587.271 387.444 609.214 389.197 614.455 387.258 C 613.853 370.77 605.383 306.925 639.275 328.946 C 646.91 333.906 643.836 377.502 644.038 388.005 C 655.404 388.022 666.909 387.954 678.26 388.1 C 678.217 382.412 669.475 300.998 704.591 330.498 C 710.404 335.381 707.921 375.23 708.055 388.039 L 742.101 388.168 C 742.068 371.678 734.261 306.143 767.905 329.368 C 774.74 334.086 771.846 377.909 772.088 387.957 C 783.372 387.987 795.799 388.243 806.993 387.925 C 806.828 370.26 798.873 306.322 833.498 329.627 C 840.833 334.564 837.854 377.96 838.126 388.131 C 867.163 387.544 889.839 388.279 906.772 416.805 C 913.01 429.95 917.816 454.721 912.687 468.218 L 922.567 467.998 C 935.809 467.879 952.758 467.313 965.653 468.168 C 981.489 477.788 982.485 497.953 961.896 499.832 C 946.633 501.225 929.655 499.975 914.146 500.112 L 913.911 539.008 C 928.452 538.689 995.104 530.158 972.668 563.655 C 967.703 571.068 924.229 568.289 913.986 568.164 L 913.872 604.007 C 930.773 603.945 949.02 602.87 965.559 604.748 C 976.419 605.981 980.765 625.233 971.334 630.311 C 959.394 636.74 927.658 635.305 913.963 634.071 L 913.957 673.371 C 931.052 673.027 994.59 664.536 972.116 698.681 C 967.019 706.425 924.147 703.963 913.952 703.575 C 913.952 716.645 914.229 731.063 913.764 744.02 C 930.122 743.806 995.604 735.574 972.298 769.563 C 967.306 776.843 924.517 773.856 914.067 773.998 C 914.047 836.716 917.099 875.28 837.927 874.061 C 838.021 884.583 840.776 929.702 833.399 934.82 C 800.417 957.705 804.811 890.953 808.11 874.265 L 771.921 874.151 C 772.082 888.601 778.33 938.51 758.663 939.579 C 755.06 939.775 748.21 936.716 745.168 934.196 C 740.504 925.406 741.166 885.479 743.161 875.739 C 740.774 873.069 713.508 874.114 708.044 874.14 C 707.828 884.935 711.113 930.325 703.518 935.098 C 669.832 956.273 678.563 890.649 679.025 874.212 C 667.107 874.248 654.887 874.477 643.009 873.822 C 644.594 880.465 645.472 924.677 641.809 932.396 C 641.103 933.884 638.814 935.817 637.505 936.922 C 605.952 953.75 614.051 889.846 614.307 874.061 C 602.868 874.248 591.427 874.268 579.987 874.122 C 579.785 884.652 582.901 929.887 575.824 934.655 C 541.533 957.758 550.092 890.848 550.432 874.113 C 538.981 874.175 527.53 874.164 516.079 874.079 C 515.962 883.307 518.387 930.479 512.735 934.321 C 477.951 957.973 486.763 891.636 487.094 874.116 C 410.586 875.251 412.386 834.604 413.022 774.032 C 401.863 773.909 329.659 782.865 351.912 748.94 C 357.26 740.788 401.225 743.912 413.036 744.005 C 412.447 731.354 412.805 716.589 412.849 703.746 C 402.14 703.798 358.179 706.841 352.979 698.982 C 330.003 664.253 395.952 673.017 412.602 673.43 L 412.893 634.134 C 402.721 634.467 392.31 634.467 382.138 634.607 C 372.762 634.737 359.075 636.006 352.097 628.702 C 345.188 621.471 348.312 612.569 355.273 606.733 C 364.02 602.648 405.13 602.791 413.332 605.131 C 412.221 594.269 412.826 579.226 412.975 568.024 C 405.1 568.214 358.144 569.894 354.875 565.908 C 325.543 530.148 396.224 538.345 412.906 538.775 C 412.784 525.821 412.79 512.865 412.925 499.911 C 402.794 500.061 357.676 502.877 352.861 495.556 C 329.162 459.517 394.932 467.801 412.881 468.076 L 412.781 462.157 C 412.468 440.627 412.986 420.272 429.617 403.903 C 446.437 387.348 465.726 387.695 487.113 387.948 C 486.802 378.64 484.189 335.365 490.115 330.803 C 524.908 304.017 515.876 370.916 516.345 388.091 L 550.088 388.092 Z"/>
<path transform="translate(0,0)" style="fill: rgb(124,124,124)" stroke-linecap="round" d="M 637.505 936.922 C 639.136 926.527 640.097 876.829 643.009 873.822 C 644.594 880.465 645.472 924.677 641.809 932.396 C 641.103 933.884 638.814 935.817 637.505 936.922 Z"/>
<path transform="translate(0,0)" style="fill: rgb(124,124,124)" stroke-linecap="round" d="M 355.273 606.733 C 364.02 602.648 405.13 602.791 413.332 605.131 C 411.933 606.909 411.555 607.456 408.499 607.469 C 396.414 607.518 366.335 608.589 355.273 606.733 Z"/>
<path transform="translate(0,0)" style="fill: rgb(124,124,124)" stroke-linecap="round" d="M 743.161 875.739 C 746.475 883.263 747.078 925.635 745.168 934.196 C 740.504 925.406 741.166 885.479 743.161 875.739 Z"/>
<path transform="translate(0,0)" style="fill: rgb(124,124,124)" stroke-linecap="round" d="M 906.772 416.805 C 913.01 429.95 917.816 454.721 912.687 468.218 L 911.906 467.816 C 911.396 466.397 910.667 463.516 910.876 462.092 C 912.403 451.702 905.3 424.294 906.772 416.805 Z"/>
<path transform="translate(0,0)" style="fill: rgb(124,124,124)" stroke-linecap="round" d="M 614.455 387.258 L 615.297 388.972 C 611.018 394.274 585.68 392.261 579.913 388.303 C 587.271 387.444 609.214 389.197 614.455 387.258 Z"/>
<path transform="translate(0,0)" style="fill: rgb(124,124,124)" stroke-linecap="round" d="M 922.567 467.998 C 935.809 467.879 952.758 467.313 965.653 468.168 C 955.075 469.11 932.356 475.94 922.567 467.998 Z"/>
<path transform="translate(0,0)" style="fill: rgb(100,100,100)" stroke-linecap="round" d="M 482.078 428.24 C 502.405 427.419 526.836 428.015 547.43 428.019 L 670.474 428.045 L 779.209 427.969 C 795.869 427.96 842.533 425.959 854.583 431.73 C 862.397 435.546 868.351 442.342 871.106 450.592 C 874.857 461.96 872.7 570.951 872.707 590.339 L 872.749 725.455 C 872.752 749.672 872.744 773.867 872.561 798.083 C 872.412 817.896 864.564 829.724 844.451 834.909 C 820.854 835.833 793.838 835.228 770.071 835.222 L 636.77 835.175 L 540.737 835.26 C 522.326 835.303 503.834 835.589 485.475 834.936 C 471.485 834.439 457.237 825.373 454.995 810.825 C 451.825 790.253 453.057 767.882 453.063 746.94 L 453.106 638.949 L 453.007 522.418 C 452.988 508.594 453.108 494.458 452.964 480.67 C 452.708 456.335 452.249 433.412 482.078 428.24 Z"/>
<path transform="translate(0,0)" style="fill: rgb(124,124,124)" stroke-linecap="round" d="M 494.592 454.242 C 523.18 453.269 826.1 452.754 831.814 455.141 C 836.738 457.198 840.16 459.987 842.19 464.956 C 843.282 467.628 843.73 470.178 843.869 473.048 C 844.683 489.891 844.059 507.04 844.06 523.906 L 844.057 616.449 L 844.034 731.074 C 844.031 750.164 844.135 769.257 843.994 788.344 C 843.918 798.751 838.608 804.048 829.189 807.232 C 810.245 808.145 786.039 807.484 766.774 807.473 L 653.832 807.43 L 554.158 807.492 C 534.887 807.495 511.998 808.029 492.967 806.745 C 484.724 801.722 481.138 797.303 481.07 787.462 C 480.896 762.359 480.968 737.249 480.97 712.145 L 481.014 563.523 C 481.019 537.167 480.942 510.798 480.917 484.443 C 480.903 469.649 479.662 462.005 494.592 454.242 Z"/>
<path transform="translate(0,0)" style="fill: rgb(100,100,100)" stroke-linecap="round" d="M 550.428 495.292 C 558.553 494.665 573.118 495.147 581.781 495.155 L 641.764 495.211 C 682.723 495.251 723.743 494.985 764.68 495.297 C 800.165 495.568 802.161 517.584 802.003 546.064 C 801.66 608.113 802.622 670.172 801.632 732.205 C 801.343 750.369 792.317 760.432 775.409 765.394 C 766.296 766.473 749.851 766.015 740.078 766.009 L 678.916 765.952 L 597.933 766.041 C 582.931 766.056 567.557 766.716 552.594 765.727 C 548.374 765.448 544.432 764.699 540.638 762.756 C 533.065 758.879 527.019 750.971 524.558 742.922 C 520.589 729.945 522.894 642.514 522.903 622.652 C 522.919 591.824 521.348 560.199 523.189 529.482 C 523.551 523.459 523.974 517.248 527.009 511.896 C 532.343 502.488 540.454 498.22 550.428 495.292 Z"/>
<path transform="translate(0,0)" style="fill: rgb(124,124,124)" stroke-linecap="round" d="M 568.739 530.205 C 569.518 530.163 570.297 530.128 571.077 530.099 C 607.413 528.663 647.801 530.794 684.622 529.928 C 708.331 529.371 734.899 530.002 758.729 530.388 C 760.811 530.382 764.92 531.352 766.046 533.444 C 771.29 543.188 769.189 569.882 769.168 580.264 L 769.173 650.188 L 769.221 698.915 C 769.226 707.015 769.378 715.902 768.852 723.979 C 768.577 728.209 764.365 730.948 761.122 733.36 C 754.288 734.527 739.639 734.074 731.87 734.065 L 682.099 734.085 L 612.433 734.103 C 599.372 734.097 586.372 734.404 573.332 733.495 C 565.224 732.93 562.271 729.215 562.081 721.068 C 561.773 707.864 561.928 694.58 561.924 681.354 L 561.937 604.885 L 561.91 561.593 C 561.891 553.991 561.647 545.675 562.269 538.133 C 562.59 534.225 565.684 532.361 568.739 530.205 Z"/>
<path transform="translate(0,0)" style="fill: rgb(124,124,124)" stroke-linecap="round" d="M 516.966 1146.42 C 568.319 1144.85 628.668 1165.08 670.132 1194.9 C 727.171 1235.17 765.544 1296.76 776.558 1365.71 C 785.172 1421.33 775.196 1478.24 748.174 1527.61 C 742.27 1538.18 735.425 1547.32 728.324 1557.08 C 771.597 1555.54 775.374 1556.02 774.106 1600.76 C 773.489 1622.49 775.218 1645.59 773.209 1667.31 C 772.865 1671.03 768.547 1676.15 766.31 1678.8 C 755.003 1683.69 725.879 1682.04 712.655 1682.01 C 683.761 1681.8 654.867 1681.82 625.973 1682.07 C 626.65 1668.15 626.885 1656.23 625.978 1642.34 C 618.193 1645.6 610.999 1648.15 603.021 1650.94 C 586.688 1657.21 555.626 1662.86 538.224 1663.77 C 470.392 1667.5 403.895 1643.88 353.611 1598.2 C 302.62 1552.89 271.867 1489.07 268.205 1420.95 C 264.528 1340.47 287.379 1270.21 346.917 1213.99 C 396.791 1166.9 449.888 1149.56 516.966 1146.42 Z M 715.476 1639.99 C 724.663 1637.47 730.075 1627.99 727.566 1618.8 C 725.058 1609.62 715.577 1604.2 706.388 1606.7 C 697.194 1609.21 691.775 1618.7 694.285 1627.89 C 696.795 1637.08 706.284 1642.5 715.476 1639.99 Z"/>
<path transform="translate(0,0)" style="fill: rgb(100,100,100)" stroke-linecap="round" d="M 499.635 1183.69 C 621.199 1171.02 730.007 1259.32 742.635 1380.89 C 755.262 1502.46 666.926 1611.24 545.353 1623.82 C 423.837 1636.41 315.119 1548.12 302.497 1426.61 C 289.875 1305.09 378.126 1196.35 499.635 1183.69 Z"/>
<path transform="translate(0,0)" style="fill: rgb(124,124,124)" stroke-linecap="round" d="M 502.297 1209.13 C 609.764 1198.01 705.945 1276 717.271 1383.44 C 728.596 1490.89 650.789 1587.22 543.365 1598.74 C 435.653 1610.3 339.01 1532.24 327.654 1424.51 C 316.298 1316.78 394.542 1220.28 502.297 1209.13 Z"/>
<path transform="translate(0,0)" style="fill: rgb(100,100,100)" stroke-linecap="round" d="M394.1971 1290.64C396.6881 1291.82 408.2841 1311.44 411.3751 1315.92 428.2461 1340.38 444.1011 1357.55 465.1401 1378.4 461.4571 1391.91 460.9431 1396.12 461.1851 1410.17 450.9291 1412.12 442.6111 1412.79 432.2531 1412.98 413.4531 1412.43 390.4571 1408.97 376.5461 1395.52 340.7111 1360.89 368.5901 1318 394.1971 1290.64Z"/>
<path transform="translate(0,0)" style="fill: rgb(100,100,100)" stroke-linecap="round" d="M 542.416 1234.28 C 568.974 1232.25 598.97 1244.97 618.951 1262.1 C 590.653 1280.37 574.195 1296.26 549.88 1319.35 C 542.286 1326.09 536.358 1332.26 529.725 1339.88 C 517.865 1339.88 509.861 1341.04 498.276 1342.8 C 494.362 1304.85 493.94 1242.34 542.416 1234.28 Z"/>
<path transform="translate(0,0)" style="fill: rgb(100,100,100)" stroke-linecap="round" d="M 562.092 1450.06 C 595.181 1466.78 639.686 1509.15 610.601 1549.28 C 603.669 1558.85 596.237 1563.51 586.008 1568.6 C 568.165 1576.34 555.563 1576.05 536.685 1576.2 C 542.198 1531.13 544.078 1508.68 539.722 1462.96 C 548.139 1458.53 554.104 1455.34 562.092 1450.06 Z"/>
<path transform="translate(0,0)" style="fill: rgb(100,100,100)" stroke-linecap="round" d="M 625.59 1364.4 C 639.686 1362.86 656.646 1364.6 668.555 1372.73 C 704.477 1397.26 690.852 1441.5 671.418 1471.34 L 662.328 1460.88 C 641.961 1437.41 613.321 1417.43 586.014 1402.85 C 586.746 1391.23 585.895 1387.26 583.346 1375.97 C 598.203 1369.56 609.538 1365.89 625.59 1364.4 Z"/>
<path transform="translate(0,0)" style="fill: rgb(100,100,100)" stroke-linecap="round" d="M 481.572 1447.83 C 490.192 1453.66 495.08 1456.67 504.396 1461.57 C 498.668 1483.31 483.97 1503.72 471.63 1522.22 C 454.519 1547.87 445.18 1559.2 416.036 1540.19 C 401.06 1529.79 388.857 1513.17 381.296 1496.71 C 386.539 1494.54 392.884 1492.39 398.284 1490.56 C 428.624 1480.26 454.461 1464.69 481.572 1447.83 Z"/>
<path transform="translate(0,0)" style="fill: rgb(100,100,100)" stroke-linecap="round" d="M 514.061 1359.07 C 529.044 1355.59 544.741 1360.43 555.161 1371.75 C 565.58 1383.06 569.112 1399.11 564.409 1413.75 C 559.706 1428.4 547.494 1439.38 532.434 1442.52 C 509.522 1447.29 487.038 1432.73 482.005 1409.88 C 476.973 1387.02 491.265 1364.37 514.061 1359.07 Z"/>
<path transform="translate(0,0)" style="fill: rgb(124,124,124)" stroke-linecap="round" d="M1288.04 492.2161C1310.61 491.6971 1334.78 493.0241 1357 491.8981 1387.79 490.3361 1380.3 516.0361 1379.99 540.0611L1416.1 540.0991C1415.43 561.7311 1415.93 586.3191 1415.94 608.1261L1415.96 732.5631 1415.91 1119.9801C1404.15 1119.7501 1392.01 1119.8501 1380.23 1119.8001 1380.42 1129.7401 1383.03 1144.7301 1372.94 1150.0101 1345.33 1151.5201 1305.65 1150.2501 1276.96 1150.0401L1276.99 1119.9201C1265.5 1119.8001 1254.59 1119.7001 1243.1 1120.0601 1244.75 982.4111 1243.09 841.9391 1243.24 704.0261L1243.14 596.7671C1243.13 583.1781 1242.33 551.9971 1244.04 540.0391L1276.92 540.0351C1277 528.1541 1274.92 510.6711 1278.71 499.7731 1280.24 495.3711 1284.05 493.8971 1288.04 492.2161ZM1371.96 1026.4801L1372.16 946.1091C1342.81 946.1571 1311.22 946.7441 1282.07 946.0351 1282.07 971.8761 1281.43 1000.6701 1282.19 1026.2601 1310.84 1025.8801 1343.43 1025.4801 1371.96 1026.4801ZM1282.22 794.7471C1292.2 793.8251 1311.07 794.3851 1321.57 794.3951 1337.89 794.4121 1355.96 794.0461 1372.12 794.6541 1372.07 787.3541 1371.88 780.5341 1372.64 773.2621 1365.53 774.6081 1348.91 774.1661 1341.07 774.1581L1282.07 774.0711C1282.09 779.3741 1281.8 789.8631 1282.22 794.7471ZM1359.91 894.6071C1353.92 896.4381 1350.52 902.7541 1352.29 908.7621 1354.06 914.7711 1360.35 918.2301 1366.37 916.5171 1372.48 914.7791 1376 908.3911 1374.2 902.2981 1372.41 896.2061 1365.98 892.7501 1359.91 894.6071ZM1327.15 522.2011C1303.33 531.6081 1307.41 560.6491 1333.53 561.3211 1341.76 558.2681 1342.6 557.1031 1347.73 550.0811 1349.7 533.7101 1346.28 521.4651 1327.15 522.2011ZM1359.55 842.8371C1353.64 845.4191 1350.83 852.2261 1353.21 858.2301 1355.58 864.2331 1362.29 867.2711 1368.37 865.1001 1372.5 863.6271 1375.49 860.0241 1376.17 855.7011 1376.86 851.3781 1375.14 847.0241 1371.68 844.3441 1368.21 841.6651 1363.57 841.0871 1359.55 842.8371ZM1282.04 730.0281L1281.86 743.9951 1372.89 744.0501 1372.06 730.0181C1342.22 730.0511 1311.84 730.3791 1282.04 730.0281ZM1333.46 1110.5901C1343.23 1109.5301 1350.35 1100.8301 1349.45 1091.0401 1348.55 1081.2501 1339.96 1073.9901 1330.16 1074.7301 1323.67 1075.2101 1317.95 1079.1601 1315.19 1085.0601 1312.44 1090.9501 1313.07 1097.8701 1316.86 1103.1701 1320.64 1108.4601 1326.99 1111.3001 1333.46 1110.5901Z"/>
<path transform="translate(0,0)" style="fill: rgb(124,124,124)" stroke-linecap="round" d="M 1286.1 616.064 L 1369.98 616.068 L 1369.97 693.953 L 1286.04 693.987 L 1286.1 616.064 Z"/>
<path transform="translate(0,0)" style="fill: rgb(124,124,124)" stroke-linecap="round" d="M 1372.64 773.262 L 1374.17 772.592 C 1375.93 775.865 1375.06 792.52 1374.96 797.101 C 1357.18 799.008 1297.32 801.329 1282.22 794.747 C 1292.2 793.825 1311.07 794.385 1321.57 794.395 C 1337.89 794.412 1355.96 794.046 1372.12 794.654 C 1372.07 787.354 1371.88 780.534 1372.64 773.262 Z"/>
<path transform="translate(0,0)" style="fill: rgb(124,124,124)" stroke-linecap="round" d="M 1087.76 492.218 L 1134.91 491.873 C 1143.9 491.82 1152.78 491.344 1161.69 492.285 C 1179.9 494.206 1178.23 506.017 1178.27 520.525 C 1178.29 526.953 1178.17 533.526 1178.1 539.913 C 1187.61 539.608 1199.03 539.928 1208.68 539.966 L 1208.85 914.959 L 1208.85 1044.2 C 1208.85 1068.49 1209.45 1096.01 1208.49 1119.99 C 1199.04 1119.62 1187.74 1119.92 1178.15 1119.92 C 1177.71 1135.91 1183.96 1150.21 1162.87 1150.16 C 1139.67 1150.28 1107.47 1151.32 1084.22 1149.2 C 1080.93 1148.89 1078.07 1143.14 1076.19 1139.98 C 1076.04 1133.4 1076.12 1126.49 1076.1 1119.88 C 1064.08 1119.97 1052.06 1119.85 1040.05 1119.52 C 1041.01 1056.76 1040.11 991.327 1040.12 928.267 L 1040.09 539.956 C 1052.08 539.785 1064.06 539.764 1076.05 539.892 C 1075.72 524.261 1070.78 498.7 1087.76 492.218 Z M 1082.1 946.05 C 1082.73 968.656 1083.59 1005.41 1082.11 1027.58 C 1105.74 1026.43 1137.68 1027.12 1161.75 1027.53 L 1164.1 1027.24 C 1165.57 1024.14 1164.71 955.651 1165.04 946.158 C 1138.82 946.164 1107.91 946.98 1082.1 946.05 Z M 1081.57 795.09 C 1090.86 794.142 1159.45 793.613 1165.65 795.644 C 1164.53 789.087 1165.01 780.734 1165.15 773.964 L 1082.4 774.095 C 1082.54 780.733 1082.47 788.553 1081.57 795.09 Z M 1150.54 894.816 C 1144.87 897.397 1142.28 904.009 1144.68 909.755 C 1147.08 915.501 1153.6 918.305 1159.42 916.091 C 1163.36 914.595 1166.16 911.075 1166.74 906.907 C 1167.33 902.739 1165.59 898.585 1162.22 896.068 C 1158.85 893.551 1154.37 893.072 1150.54 894.816 Z M 1154.48 841.592 C 1150.08 842.155 1146.35 845.074 1144.74 849.202 C 1143.13 853.329 1143.91 858.006 1146.76 861.393 C 1149.62 864.781 1154.09 866.338 1158.43 865.453 C 1164.81 864.152 1169.02 858.038 1167.95 851.616 C 1166.89 845.193 1160.93 840.764 1154.48 841.592 Z M 1082.33 730.091 L 1082.21 744.018 L 1165.28 743.875 C 1165.32 739.449 1165.26 734.56 1165.47 730.182 C 1137.76 729.983 1110.04 729.953 1082.33 730.091 Z M 1118.81 524.369 C 1109.19 527.072 1103.56 537.049 1106.23 546.685 C 1108.89 556.321 1118.85 561.987 1128.5 559.358 C 1138.19 556.714 1143.9 546.693 1141.22 537.005 C 1138.54 527.317 1128.49 521.652 1118.81 524.369 Z M 1126.49 1110.83 C 1136.3 1109.47 1143.23 1100.52 1142.09 1090.68 C 1140.95 1080.83 1132.15 1073.71 1122.28 1074.64 C 1115.71 1075.26 1109.98 1079.39 1107.32 1085.43 C 1104.66 1091.48 1105.47 1098.49 1109.45 1103.76 C 1113.43 1109.03 1119.95 1111.73 1126.49 1110.83 Z"/>
<path transform="translate(0,0)" style="fill: rgb(124,124,124)" stroke-linecap="round" d="M 1081.03 616.048 L 1162.85 616.078 L 1162.93 693.926 L 1080.96 694 L 1081.03 616.048 Z"/>
<path transform="translate(0,0)" style="fill: rgb(124,124,124)" stroke-linecap="round" d="M 1081.57 795.09 C 1090.86 794.142 1159.45 793.613 1165.65 795.644 L 1165.6 797.021 L 1164.58 797.73 C 1156.11 798.211 1084.8 799.099 1080.82 797.012 L 1081.57 795.09 Z"/>
<path transform="translate(0,0)" style="fill: rgb(124,124,124)" stroke-linecap="round" d="M 1573.85 664.03 L 1523.35 664.252 C 1468.67 664.416 1472.13 659.495 1472.05 607.616 L 1472.03 539.009 C 1472.09 489.122 1477.66 493.909 1523.63 493.894 L 1588.53 493.885 L 1697.28 493.908 C 1716.77 493.916 1736.46 493.787 1755.96 494.147 C 1768.62 494.27 1775.28 506.249 1775.59 517.646 C 1776.72 559.188 1775.74 600.938 1775.89 642.502 C 1775.9 646.697 1773.1 653.965 1770.22 657.16 C 1761.82 666.457 1745.9 664.241 1734.18 663.917 C 1721.61 664.458 1705.78 664.006 1692.96 663.999 L 1656.15 664.025 L 1573.85 664.03 Z M 1712.43 535.989 C 1657.26 536.312 1602.1 536.287 1546.93 535.914 C 1536.85 536.002 1525.55 535.142 1517.72 542.719 C 1512.18 548.075 1509.23 555.819 1509.23 563.473 C 1509.23 569.303 1511.08 575.936 1515.58 579.926 C 1519.35 583.265 1524.15 585.527 1527.58 589.252 C 1534.8 597.109 1534.66 606.686 1545.75 611.483 C 1552.59 614.436 1680.25 613.792 1694.1 612.32 C 1700.67 611.622 1706.83 610.962 1711.19 605.387 C 1714.9 600.648 1716.79 594.371 1720.73 589.897 C 1730.35 578.974 1742.23 577.822 1739.4 558.364 C 1738.31 550.853 1734.08 544.386 1727.88 540.076 C 1723.21 536.829 1717.99 536.025 1712.43 535.989 Z"/>
<path transform="translate(0,0)" style="fill: rgb(124,124,124)" stroke-linecap="round" d="M 1573.85 664.03 C 1584.57 657.291 1637.18 661.371 1651.97 661.63 C 1652.82 661.645 1655.31 663.5 1656.15 664.025 L 1573.85 664.03 Z"/>
<path transform="translate(0,0)" style="fill: rgb(124,124,124)" stroke-linecap="round" d="M 1692.96 663.999 C 1702.47 656.307 1723.27 661.777 1734.18 663.917 C 1721.61 664.458 1705.78 664.006 1692.96 663.999 Z"/>
<path transform="translate(0,0)" style="fill: rgb(124,124,124)" stroke-linecap="round" d="M 1536.44 552.159 C 1543.98 551.757 1570.71 551.568 1576.72 552.041 C 1593.25 553.341 1708.85 549.001 1714.1 554.975 C 1715.88 564.453 1707.37 579.204 1702.94 588.123 C 1701.24 590.797 1699.23 593.345 1697.32 595.883 C 1680.15 596.323 1560.69 598.016 1553.51 594.901 C 1546.81 591.995 1541.22 577.185 1538.57 570.745 C 1535.78 563.981 1533.44 559.301 1536.44 552.159 Z"/>
<path transform="translate(0,0)" style="fill: rgb(124,124,124)" stroke-linecap="round" d="M 1546.93 535.914 C 1548.92 534.276 1550.3 533.316 1553 533.265 C 1603.53 532.304 1654.25 532.206 1704.79 533.007 C 1708.87 533.071 1709.36 533.635 1712.43 535.989 C 1657.26 536.312 1602.1 536.287 1546.93 535.914 Z"/>
<path transform="translate(0,0)" style="fill: rgb(124,124,124)" stroke-linecap="round" d="M 1500.18 320.138 C 1524.69 319.365 1747.26 319.087 1753.14 321.246 C 1757.98 323.022 1763.28 326.805 1765.47 331.598 C 1767.25 335.475 1767.99 339.928 1768.35 344.148 C 1769.51 358.122 1770.08 429.272 1766.38 438.66 C 1763.74 445.388 1758.53 448.847 1752.18 451.699 C 1744.16 453.498 1724.75 452.973 1715.44 452.98 L 1655.1 453.007 L 1558.2 453.003 C 1541.35 453.001 1524.44 453.128 1507.64 452.845 C 1498.23 452.686 1488.39 449.042 1484.88 439.72 C 1483.6 436.342 1482.22 431.694 1482.14 428.075 C 1481.5 399.972 1482.39 371.789 1482.13 343.67 C 1482.11 340.613 1483.36 335.809 1484.66 332.998 C 1487.86 326.067 1493.33 322.871 1500.18 320.138 Z M 1634.5 404.915 C 1643.15 401.821 1648.86 393.562 1648.7 384.382 C 1648.55 375.201 1642.56 367.14 1633.81 364.341 C 1629.43 362.939 1624.72 362.984 1620.37 364.468 C 1609.11 368.308 1603.13 380.583 1607.06 391.812 C 1610.98 403.04 1623.3 408.923 1634.5 404.915 Z M 1550.56 405.261 C 1559.16 402.672 1565.2 394.956 1565.65 385.988 C 1566.12 376.499 1560.24 367.849 1551.24 364.808 C 1547.1 363.41 1542.63 363.322 1538.44 364.555 C 1527.17 367.875 1520.73 379.722 1524.09 390.988 C 1527.44 402.253 1539.31 408.651 1550.56 405.261 Z M 1714.52 405.163 C 1723.53 402.692 1729.85 394.596 1730.05 385.256 C 1730.25 375.917 1724.3 367.553 1715.41 364.691 C 1711.28 363.364 1706.85 363.337 1702.71 364.613 C 1691.69 368.013 1685.43 379.628 1688.66 390.703 C 1691.88 401.777 1703.4 408.215 1714.52 405.163 Z"/>
<path transform="translate(0,0)" style="fill: rgb(124,124,124)" stroke-linecap="round" d="M 1104.23 341.394 C 1105.89 341.232 1109.58 341.679 1111.42 341.952 C 1121.64 343.539 1130.75 349.274 1136.6 357.801 C 1143.06 367.194 1145.35 378.841 1142.92 389.979 C 1137.59 414.327 1114.95 427.475 1091.03 420.775 C 1079.61 417.58 1074.15 409.831 1068.96 399.943 L 1041.25 400.128 C 1021.15 399.779 968.166 409.446 976.369 376.968 C 977.273 373.392 983.006 367.194 986.547 366.917 C 1012.93 364.855 1040.39 365.886 1067 365.935 C 1076.06 347.919 1084.55 343.114 1104.23 341.394 Z"/>
<path transform="translate(0,0)" style="fill: rgb(124,124,124)" stroke-linecap="round" d="M 312.657 329.046 C 334.286 324.277 355.665 338.018 360.311 359.673 C 364.957 381.328 351.096 402.629 329.415 407.153 C 307.907 411.64 286.813 397.913 282.204 376.431 C 277.595 354.949 291.201 333.777 312.657 329.046 Z"/>
<path transform="translate(0,0)" style="fill: rgb(124,124,124)" stroke-linecap="round" d="M 300.826 1608.33 C 322.135 1603.27 343.488 1616.53 348.404 1637.87 C 353.319 1659.21 339.917 1680.48 318.541 1685.25 C 297.367 1689.98 276.347 1676.73 271.478 1655.59 C 266.609 1634.44 279.717 1613.34 300.826 1608.33 Z"/>
<path transform="translate(0,0)" style="fill: rgb(100,100,100)" stroke-linecap="round" d="M 1021.1 1290.13 C 1100.33 1289.08 1181.47 1290.03 1260.89 1290.03 L 1726.68 1290.06 C 1725.18 1319.5 1726.32 1358.03 1726.52 1387.95 L 1696.02 1388.02 L 1696.03 1352.5 L 1696.05 1322.98 L 1606.03 1322.98 L 1606.48 1388 L 1021.2 1388.02 C 1022.35 1357.26 1021.79 1321.07 1021.1 1290.13 Z"/>
<path transform="translate(0,0)" style="fill: rgb(124,124,124)" stroke-linecap="round" d="M 1050.01 1323.05 L 1574.28 1323.08 C 1574.27 1332.97 1574.45 1342.86 1574.84 1352.74 L 1049.9 1352.87 L 1050.01 1323.05 Z"/>
<path transform="translate(0,0)" style="fill: rgb(100,100,100)" stroke-linecap="round" d="M 1021.39 1582.08 L 1726.67 1582.07 C 1726.03 1613.68 1726.37 1646.23 1726.38 1677.92 L 1696.06 1678 L 1696.03 1644.5 L 1696.03 1614.9 L 1606.19 1614.88 C 1606.11 1635.92 1606.28 1656.96 1606.68 1678 L 1021.67 1677.99 L 1021.39 1582.08 Z"/>
<path transform="translate(0,0)" style="fill: rgb(124,124,124)" stroke-linecap="round" d="M 1049.89 1614.97 L 1574.62 1614.94 L 1574.7 1643.68 C 1511.85 1642.81 1447.04 1643.55 1384.05 1643.55 L 1049.87 1643.67 L 1049.89 1614.97 Z"/>
<path transform="translate(0,0)" style="fill: rgb(100,100,100)" stroke-linecap="round" d="M 1021.46 1437.25 L 1726.46 1437.18 C 1726.12 1468.23 1726.4 1499.68 1726.43 1530.77 L 1696 1530.67 L 1696.03 1498.5 L 1696.02 1469.96 L 1606.19 1469.96 L 1606.35 1530.87 C 1543.33 1530.13 1479.4 1530.65 1416.32 1530.64 L 1021.14 1530.57 C 1022.2 1500.37 1021.58 1467.66 1021.46 1437.25 Z"/>
<path transform="translate(0,0)" style="fill: rgb(124,124,124)" stroke-linecap="round" d="M 1049.93 1470.02 L 1574.79 1470 C 1574.24 1479.66 1574.41 1488.25 1574.57 1497.89 C 1556.9 1498.77 1532.63 1498.03 1514.62 1498.03 L 1400.84 1498.02 L 1050 1498.05 L 1049.93 1470.02 Z"/>
<path transform="translate(0,0)" style="fill: rgb(124,124,124)" stroke-linecap="round" d="M 1623.32 782.007 C 1652.65 781.037 1686.4 781.848 1716.07 781.851 L 1715.83 825.101 C 1730.45 824.468 1748.26 824.994 1763.11 825.053 L 1765.72 826.228 C 1766.77 839.153 1766.16 958.972 1764.93 960.469 L 1762.94 960.971 C 1752.34 960.493 1738.82 960.857 1728.02 960.878 C 1728.11 954.434 1729.28 937.678 1724.5 934.752 C 1705.34 923.009 1708.37 954.878 1708.93 960.786 L 1681.98 960.925 C 1682.07 952.812 1683.52 932.365 1671.42 931.753 C 1660.02 936.069 1661.81 951.112 1662.12 960.763 L 1635.32 960.889 C 1636.12 952.527 1637.92 933.658 1626.77 931.337 C 1615.9 933.58 1617.62 952.614 1617.77 960.81 L 1579.98 960.869 C 1580.62 916.007 1580.06 870.128 1580.14 825.174 C 1594.76 824.976 1609.39 824.95 1624.02 825.096 C 1624.01 813.244 1624.52 793.156 1623.32 782.007 Z"/>
<path transform="translate(0,0)" style="fill: rgb(124,124,124)" stroke-linecap="round" d="M 1763.11 825.053 L 1765.72 826.228 C 1766.77 839.153 1766.16 958.972 1764.93 960.469 L 1762.94 960.971 C 1762.48 916.889 1762.51 869.128 1763.11 825.053 Z"/>
<path transform="translate(0,0)" style="fill: rgb(124,124,124)" stroke-linecap="round" d="M 1608.84 1068.39 C 1629.1 1063.65 1649.35 1076.3 1653.98 1096.58 C 1658.61 1116.86 1645.86 1137.04 1625.56 1141.57 C 1605.4 1146.07 1585.39 1133.43 1580.79 1113.29 C 1576.2 1093.16 1588.73 1073.09 1608.84 1068.39 Z"/>
<path transform="translate(0,0)" style="fill: rgb(124,124,124)" stroke-linecap="round" d="M 1721.28 1068.57 C 1741.44 1063.86 1761.59 1076.43 1766.23 1096.6 C 1770.87 1116.78 1758.23 1136.88 1738.04 1141.45 C 1717.95 1145.99 1697.97 1133.43 1693.36 1113.36 C 1688.74 1093.28 1701.23 1073.26 1721.28 1068.57 Z"/>
<path transform="translate(0,0)" style="fill: rgb(124,124,124)" stroke-linecap="round" d="M 828.163 1254.46 C 832.91 1286.23 831.028 1321.58 831.028 1353.99 L 831.273 1482.83 L 831.308 1624.51 C 831.349 1644.71 831.778 1664.93 831.452 1685.12 C 831.361 1690.74 831.587 1695.44 828.073 1700 C 829.784 1552.25 827.216 1402.52 828.163 1254.46 Z"/>
<path transform="translate(0,0)" style="fill: rgb(124,124,124)" stroke-linecap="round" d="M 1418.21 1230.1 L 1418.52 1231.35 C 1414.52 1233.67 1402.74 1233.92 1397.74 1233.95 C 1284.13 1234.62 1170.49 1234.09 1056.87 1234.33 C 1045.7 1234.35 1044.18 1232.84 1034.29 1230.42 L 1033.45 1230.22 C 1075.14 1230.88 1118.39 1231.18 1160.09 1230.55 C 1245.62 1229.24 1332.85 1232.82 1418.21 1230.1 Z"/>
<path transform="translate(0,0)" style="fill: rgb(124,124,124)" stroke-linecap="round" d="M 476.63 1006.42 C 530.247 1004.33 594.414 1006.06 648.725 1006.01 L 731.979 1005.95 C 744.719 1005.95 779.103 1003.74 789.112 1010.1 C 779.128 1010.43 765.547 1009.92 755.087 1009.95 L 651.353 1009.94 L 551.538 1009.97 C 529.429 1010.08 507.088 1010.54 484.998 1010.05 C 479.86 1009.94 479.64 1009.73 476.63 1006.42 Z"/>
<path transform="translate(0,0)" style="fill: rgb(124,124,124)" stroke-linecap="round" d="M 1634.03 1352.93 C 1644.73 1352.93 1655.43 1352.85 1666.13 1352.69 L 1666.03 1387.95 L 1634.03 1388.02 L 1634.03 1352.93 Z"/>
<path transform="translate(0,0)" style="fill: rgb(124,124,124)" stroke-linecap="round" d="M 1661.31 1643.48 L 1664.32 1643.62 C 1667.42 1646.96 1666.09 1671.42 1666.03 1677.97 L 1638.75 1677.99 L 1636 1677.86 C 1632.34 1674.01 1633.93 1650.51 1634.05 1643.57 C 1643.14 1643.67 1652.23 1643.65 1661.31 1643.48 Z"/>
<path transform="translate(0,0)" style="fill: rgb(124,124,124)" stroke-linecap="round" d="M 1634.07 1498.07 L 1666.34 1498.06 C 1665.86 1508.59 1666.06 1520.25 1666.02 1530.87 C 1655.56 1530.58 1644.51 1530.64 1634.01 1530.55 L 1634.07 1498.07 Z"/>
<path transform="translate(0,0)" style="fill: rgb(124,124,124)" stroke-linecap="round" d="M 468.802 1040.9 C 476.935 1036.25 530.735 1037.93 543.135 1037.94 L 653.691 1037.99 C 667.007 1037.99 746.761 1037.18 753.885 1039.12 L 746.777 1039.17 C 749.166 1039.47 758.498 1040.03 759.997 1040.77 C 755.489 1042.29 690.023 1041.24 678.961 1041.24 L 545.56 1041.2 C 520.658 1041.2 493.573 1041.7 468.802 1040.9 Z"/>
<path transform="translate(0,0)" style="fill: rgb(124,124,124)" stroke-linecap="round" d="M 1773.72 1677.14 C 1773.21 1673.55 1775.93 1657.83 1777.03 1653.97 C 1780.38 1642.22 1776.31 1568.41 1779.23 1564.34 L 1781.24 1564.46 C 1783.87 1578.73 1781.95 1634.99 1780.99 1652.16 C 1780.6 1659.12 1776.64 1670.53 1773.72 1677.14 Z"/>
<path transform="translate(0,0)" style="fill: rgb(124,124,124)" stroke-linecap="round" d="M 932.556 999.121 C 937.994 1007.85 934.051 1061.18 935.04 1076.06 C 935.502 1083 935.728 1128.03 932.008 1132.21 L 931.902 1050.2 C 931.835 1035.53 931.049 1013.02 932.556 999.121 Z"/>
<path transform="translate(0,0)" style="fill: rgb(124,124,124)" stroke-linecap="round" d="M 324.811 1039.84 C 336.464 1034.16 352.495 1034.39 364.208 1039.99 L 324.811 1039.84 Z"/>
</svg>