<svg width="512" height="512" xmlns="http://www.w3.org/2000/svg" xml:space="preserve" version="1.1">
 <g>
  <title>Layer 1</title>
  <g stroke="null" id="svg_6">
   <path stroke="null" id="svg_2" clip-rule="evenodd" fill-rule="evenodd" d="m22.75944,176.95833l465.73131,0a19.00944,18.89063 0 0 1 19.00944,18.89063l0,113.34379a19.00944,18.89063 0 0 1 -19.00944,18.89063l-465.73131,0a19.00944,18.89063 0 0 1 -19.00944,-18.89063l0,-113.34379a19.00944,18.89063 0 0 1 19.00944,-18.89063zm2.3762,28.33594a7.12855,7.08399 0 1 0 14.25709,0a7.12855,7.08399 0 1 0 -14.25709,0m446.72187,0a7.12855,7.08399 0 1 0 14.25709,0a7.12855,7.08399 0 1 0 -14.25709,0m-446.72187,94.45316a7.12855,7.08399 0 1 0 14.25709,0a7.12855,7.08399 0 1 0 -14.25709,0m446.72187,0a7.12855,7.08399 0 1 0 14.25709,0a7.12855,7.08399 0 1 0 -14.25709,0m-436.42505,-47.22658a52.27598,51.94924 0 1 0 104.55191,0a52.27598,51.94924 0 1 0 -104.55191,0m167.9167,0a52.27598,51.94924 0 1 0 104.55191,0a52.27598,51.94924 0 1 0 -104.55191,0m167.9167,0a52.27598,51.94924 0 1 0 104.55191,0a52.27598,51.94924 0 1 0 -104.55191,0" fill="#7c7c7c" class="st0"/>
   <path stroke="null" id="svg_3" clip-rule="evenodd" fill-rule="evenodd" d="m69.64943,252.52086a18.05896,17.9461 0 1 0 36.11793,0a18.05896,17.9461 0 1 0 -36.11793,0m48.96515,6.045l16.63325,-6.045l-16.63325,-6.045l0,12.09001zm-52.79871,31.83072l-1.85342,-17.52106l17.10849,4.06149l-15.25506,13.45957zm8.50673,-81.79644l17.67879,1.84184l-4.08702,17.00157l-13.59177,-18.84341z" fill="#7c7c7c" class="st0"/>
   <path stroke="null" id="svg_4" clip-rule="evenodd" fill-rule="evenodd" d="m237.56613,252.52086a18.05896,17.9461 0 1 0 36.11793,0a18.05896,17.9461 0 1 0 -36.11793,0m48.9493,6.045l16.63325,-6.045l-16.63325,-6.045l0,12.09001zm-52.79871,31.83072l-1.85342,-17.52106l17.10849,4.06149l-15.25506,13.45957zm8.55426,-81.79644l17.63126,1.84184l-4.08702,17.00157l-13.54423,-18.84341z" fill="#7c7c7c" class="st0"/>
   <path stroke="null" id="svg_5" clip-rule="evenodd" fill-rule="evenodd" d="m405.48284,252.52086a18.05896,17.9461 0 1 0 36.11793,0a18.05896,17.9461 0 1 0 -36.11793,0m48.9335,6.045l16.63325,-6.045l-16.63325,-6.045l0,12.09001zm-52.79871,31.83072l-1.85342,-17.52106l17.10849,4.06149l-15.25506,13.45957zm8.55426,-81.79644l17.67879,1.84184l-4.08702,17.00157l-13.59177,-18.84341z" fill="#7c7c7c" class="st0"/>
  </g>
 </g>
</svg>