<svg id="e6SPlL7HOuc1" xmlns="http://www.w3.org/2000/svg" xmlns:xlink="http://www.w3.org/1999/xlink" viewBox="0 0 300 300" shape-rendering="geometricPrecision" text-rendering="geometricPrecision" project-id="d096f0d9e1c54fc1879d6a8a9861db9d" export-id="d354e41aa83d43c985fac6141c43647c" cached="false"><rect width="109.04902" height="20.350698" rx="0" ry="0" transform="matrix(1.212474 0 0 1 7.080349 271.50092)" fill="#7c7c7c" stroke-width="0"/><rect width="21.886599" height="163.957507" rx="0" ry="0" transform="matrix(1 0 0 1.606225 62.246601 8.148382)" fill="#7c7c7c" stroke-width="0"/><rect width="109.752463" height="10.175349" rx="0" ry="0" transform="matrix(1.204711 0 0 1.000002 7.080349 281.676249)" fill="#cdcdcd" stroke-width="0"/><rect width="4.59011" height="154.951654" rx="0" ry="0" transform="matrix(1 0 0 1.63856 71.086833 12.875914)" fill="#cdcdcd" stroke-width="0"/><rect width="21.886599" height="163.957507" rx="0" ry="0" transform="matrix(1 0 0 1.606225 215.013861 8.148382)" fill="#7c7c7c" stroke-width="0"/><rect width="109.04902" height="20.350698" rx="0" ry="0" transform="matrix(1.212474 0 0 1 159.847609 271.500921)" fill="#7c7c7c" stroke-width="0"/><rect width="132.219102" height="10.17537" rx="0" ry="0" transform="translate(159.847609 281.676249)" fill="#cdcdcd" stroke-width="0"/><rect width="4.59" height="253.897582" rx="0" ry="0" transform="translate(223.662161 12.875914)" fill="#cdcdcd" stroke-width="0"/></svg>
