<?xml version="1.0" encoding="UTF-8" standalone="no"?><!DOCTYPE svg PUBLIC "-//W3C//DTD SVG 1.1//EN" "http://www.w3.org/Graphics/SVG/1.1/DTD/svg11.dtd"><svg xmlns="http://www.w3.org/2000/svg" xmlns:xlink="http://www.w3.org/1999/xlink" version="1.1" viewBox="151 240 1746 1562">
    <defs>
    </defs>
    <path transform="translate(0,0)" style="fill: rgb(124,124,124)" stroke-linecap="round" d="M 259.14 241.403 C 268.591 240.07 299.569 240.872 310.947 240.882 L 420.744 240.947 L 803.284 240.938 L 1458.83 240.914 L 1673.96 240.956 C 1709.83 240.997 1746.19 240.43 1781.93 241.444 C 1835.81 242.972 1886.35 287.791 1894.3 341.1 C 1897.13 360.056 1896.11 381.774 1896.07 401.203 L 1895.97 492.837 L 1896 832.5 L 1896.04 1408.78 L 1896.07 1594.65 C 1896.08 1621.8 1897.4 1665.01 1895.68 1691.04 C 1894.4 1713.5 1886.74 1735.12 1873.59 1753.37 C 1852.07 1783.08 1824.43 1796.17 1789.23 1801.78 C 1752.9 1803.05 1712.37 1802.08 1675.56 1802.06 L 1475.62 1802.11 L 855.562 1802.11 L 450.607 1802.11 L 322.231 1802.14 C 303.326 1802.15 273.1 1803.16 255.097 1801.69 C 232.521 1799.96 211.031 1791.3 193.576 1776.87 C 143.363 1736.18 151.58 1685.95 151.636 1628.58 L 151.7 1494.03 L 151.719 1050.79 L 151.686 575.232 L 151.638 426.406 C 151.623 401.562 151.209 376.334 152.016 351.532 C 152.793 327.671 163.403 301.935 178.614 283.542 C 198.664 259.197 227.709 243.998 259.14 241.403 Z M 1809.68 1730.07 C 1830.68 1713.32 1836.79 1694.18 1836.16 1668.11 C 1835.81 1653.65 1836.03 1638.35 1835.99 1623.82 L 1836.01 1508.95 L 1836.01 1123.46 L 1836.02 609.695 L 1836 447.546 C 1836.03 418.782 1836.45 390.027 1835.67 361.026 C 1834.96 334.268 1809.38 308.27 1782.56 306.55 C 1759.21 305.65 1734.48 306.241 1710.87 306.3 L 1569.6 306.528 L 1117.32 306.646 L 537.91 306.287 L 354.885 306.202 C 326.862 306.182 289.673 304.958 262.39 306.275 C 246.969 309.497 236.087 313.587 225.091 325.572 C 214.488 337.128 210.544 351.042 210.138 366.46 C 209.854 402.719 210.004 439.047 210.016 475.328 L 210.051 683.068 L 210.064 1317.5 L 210.076 1581.11 L 209.992 1647.16 C 209.974 1660.93 209.09 1678.17 211.559 1691.62 C 214.56 1707.95 225.889 1724.18 240.025 1732.87 C 258.069 1743.97 277.953 1742.04 298.413 1742.04 L 354.554 1742.04 L 538.875 1741.97 L 1488.4 1741.99 L 1697.86 1741.99 C 1717.64 1741.99 1737.66 1741.89 1757.41 1741.94 C 1779.61 1742 1790.73 1742.98 1809.68 1730.07 Z"/>
    <path transform="translate(0,0)" style="fill: rgb(124,124,124)" stroke-linecap="round" d="M 1243.52 428.415 C 1360.13 423.965 1474.65 460.329 1567.34 531.242 C 1570.52 526.806 1576.05 521.18 1579.95 517.169 L 1610.73 485.994 C 1630.86 465.712 1646.81 447.417 1678.18 447.554 C 1733.03 445.6 1777.16 513.882 1749.16 561.632 C 1737.31 581.84 1693.11 620.636 1674.32 638.965 C 1684.76 650.679 1696.7 668.854 1704.96 682.225 C 1739.55 737.207 1762.65 798.631 1772.85 862.786 C 1793.22 987.888 1772.48 1118.41 1706.39 1226.98 C 1696.98 1242.45 1686.72 1257.13 1676.15 1271.81 C 1694.29 1289.44 1712.31 1307.18 1730.22 1325.03 C 1746.84 1341.93 1758.09 1357.97 1757.69 1382.94 C 1757.23 1403.68 1748.57 1423.4 1733.61 1437.78 C 1711.19 1459.5 1671 1468.85 1645.1 1451.41 C 1620.35 1434.74 1589.37 1398.95 1568.22 1377.15 C 1545.48 1395.61 1523.38 1408.85 1497.66 1422.43 C 1422.75 1462.01 1346.19 1478.16 1261.69 1478.1 C 1151 1479.26 1043.3 1442.19 956.778 1373.14 C 954.282 1375.84 951.753 1378.51 949.192 1381.15 L 912.474 1418.41 C 889.762 1441.42 874.182 1461.93 838.67 1462.15 C 817.363 1462.32 796.885 1453.91 781.845 1438.81 C 759.834 1417.03 749.292 1375.82 765.902 1349.99 C 782.978 1323.43 820.703 1289.71 843.821 1266.58 C 795.926 1201.19 762.914 1128.42 751.15 1047.87 C 728.897 895.508 755.912 763.718 846.691 639.85 L 784.214 577.784 C 767.428 561.042 758.026 545.671 757.891 521.08 C 757.782 501.292 766.979 481.544 781.009 467.701 C 795.851 453.227 815.844 445.257 836.573 445.55 C 870.607 445.976 889.778 470.542 912.007 493.012 L 952.904 534.423 C 961.194 526.213 986.227 509.233 997.005 502.44 C 1076.51 452.327 1151.32 433.955 1243.52 428.415 Z M 1674.21 506.101 C 1668.92 509.548 1665.49 513.495 1661.07 517.863 C 1644.31 534.411 1628.23 552.044 1611.02 568.095 C 1619.74 576.62 1628.53 585.39 1637.34 593.797 L 1673.06 558.025 C 1679.63 551.458 1689.92 542.347 1694.76 534.821 C 1704.19 520.153 1690.35 504.715 1674.21 506.101 Z M 1612.81 1341.19 C 1621.98 1351.81 1664.6 1396.3 1674.82 1401.63 C 1688.95 1402.96 1696.96 1398.5 1698.89 1383.11 C 1700.09 1373.5 1691.47 1366.53 1685.81 1360.15 C 1670.88 1345.55 1655.19 1328.59 1639.64 1314.74 C 1631.58 1323.32 1621.94 1333.99 1612.81 1341.19 Z M 882.661 1311.79 C 874.293 1319.26 860.525 1332.75 853.584 1341.05 C 841.307 1355.73 803.824 1378.18 825.041 1397.97 C 831.47 1403.96 836.62 1404.58 844.484 1402.5 C 856.5 1394.85 896.566 1351.73 909.93 1338.77 C 904.413 1333.27 887.736 1315.07 882.661 1311.79 Z M 831.068 506.206 C 825.76 509.265 820.448 512.827 818.536 519.072 C 817.254 523.205 817.802 527.689 820.043 531.391 C 825.922 541.102 872.066 584.824 883.133 596.236 L 889.22 589.987 C 895.083 584.159 902.284 577.361 907.713 571.291 C 888.279 550.574 865.595 528.156 844.958 508.424 C 841.831 505.434 835.268 505.908 831.068 506.206 Z M 1283.38 1408.86 C 1534.34 1397.53 1728.79 1185.21 1718.05 934.214 C 1707.32 683.221 1495.45 488.276 1244.43 498.42 C 992.578 508.598 796.839 721.326 807.611 973.157 C 818.383 1224.99 1031.57 1420.22 1283.38 1408.86 Z"/>
    <path transform="translate(0,0)" style="fill: rgb(124,124,124)" stroke-linecap="round" d="M 1234.09 552.152 C 1456.45 536.011 1649.66 703.503 1665.23 925.908 C 1680.8 1148.31 1512.81 1341.09 1290.37 1356.09 C 1068.73 1371.03 876.805 1203.78 861.293 982.186 C 845.78 760.588 1012.53 568.234 1234.09 552.152 Z M 1130.52 1273.91 C 1163.1 1291.4 1219.63 1297.02 1256.24 1299.36 C 1265.76 1300.11 1274.06 1300.89 1283.64 1300.74 L 1285.83 1300.71 C 1244.36 1252.83 1225.2 1209.99 1226.09 1145.1 C 1196.94 1136.48 1179.4 1128.61 1155.29 1109.37 C 1135.72 1151.97 1123.81 1187.42 1126.25 1235.87 C 1126.93 1249.28 1129.34 1261.05 1130.52 1273.91 Z M 1293.66 772.509 C 1320.31 776.893 1338.09 782.291 1360.9 798.206 C 1367.46 802.78 1374.06 808.456 1380.46 812.851 C 1385.26 804.971 1390.9 796.338 1395.37 788.432 C 1416.96 747.969 1429.41 703.659 1426.49 657.538 C 1391.05 630.622 1349.96 615.348 1306.05 608.851 C 1291.95 606.763 1279.16 606.414 1265.12 605.16 C 1294.46 637.46 1305.95 679.338 1304.01 722.496 C 1303.09 739.591 1299.6 756.451 1293.66 772.509 Z M 1118.28 831.21 C 1138.65 808.605 1161.93 791.417 1190.51 780.477 C 1178.9 761.804 1168.32 744.818 1152.41 729.273 C 1128.86 706.249 1087.18 683.514 1053.19 686.233 C 1027.97 694.243 989.248 743.464 974.997 766.078 C 968.909 775.738 962.914 786.924 956.96 796.781 C 1004.53 783.84 1047.8 787.962 1091 812.584 C 1094.7 814.715 1098.36 816.907 1101.99 819.158 C 1107.9 823.193 1112.81 827.421 1118.28 831.21 Z M 1068.94 932.404 C 1013.49 940.18 965.988 962.75 931.197 1008.05 C 928.762 1011.22 927.297 1013.3 925.496 1016.89 C 928.542 1051.45 950.854 1104.45 969.227 1133.84 C 975.187 1142.66 984.804 1157.7 991.871 1165.09 C 993.162 1118.91 1026.48 1072.12 1058.94 1041.61 C 1065.83 1035.23 1072.96 1029.12 1080.32 1023.3 C 1073.67 1003.23 1068.52 982.349 1067.93 960.893 C 1067.79 955.933 1071.56 933.761 1068.94 932.404 Z M 1244.79 828.984 C 1174.61 837.423 1124.57 901.161 1133.02 971.335 C 1141.48 1041.51 1205.23 1091.54 1275.4 1083.07 C 1345.55 1074.6 1395.56 1010.88 1387.11 940.726 C 1378.66 870.573 1314.95 820.548 1244.79 828.984 Z M 1321.84 1136.07 C 1354.39 1195.66 1384.36 1225.73 1452.98 1238.46 C 1460.26 1235.79 1463.71 1234.35 1470.53 1230.75 C 1498.42 1213.06 1528.99 1182.49 1544.56 1152.94 C 1495.51 1153.64 1460.05 1142.72 1418.83 1114.37 C 1413.86 1110.96 1394.12 1093.87 1391.01 1092.58 C 1369.7 1112.15 1348.92 1125.7 1321.84 1136.07 Z M 1569.22 799.588 C 1559.45 837.369 1531.72 869.713 1498.3 888.978 C 1484.53 896.913 1457.77 908.883 1441.99 910.589 C 1449.81 946.073 1452.36 975.765 1439.77 1010.98 C 1450.81 1011 1459.49 1010.2 1470.13 1009.86 C 1520.65 1002.9 1561.83 992.174 1597.75 950.232 C 1610.99 934.76 1604.63 916.957 1603.1 898.379 C 1601.4 877.734 1582.08 813.947 1569.22 799.588 Z"/>
    <path transform="translate(0,0)" style="fill: rgb(124,124,124)" stroke-linecap="round" d="M 1249.71 886.829 C 1288.61 880.845 1325 907.521 1331 946.42 C 1337 985.319 1310.34 1021.72 1271.44 1027.74 C 1232.52 1033.76 1196.1 1007.08 1190.09 968.155 C 1184.09 929.233 1210.78 892.816 1249.71 886.829 Z"/>
    <path transform="translate(0,0)" style="fill: rgb(124,124,124)" stroke-linecap="round" d="M 323.408 940.216 C 392.764 938.885 465.818 939.981 535.458 939.978 L 606.591 939.986 C 620.471 939.979 635.266 939.544 648.972 940.708 C 675.246 942.984 699.119 966.12 702.607 992.169 C 704.518 1006.44 703.922 1022.01 703.924 1036.46 L 703.862 1109.02 L 703.868 1179.71 C 703.898 1195.08 704.46 1210.5 702.94 1225.68 C 700.046 1254.58 682.083 1271.56 662.461 1290.76 C 653.621 1299.42 645.129 1308.05 635.304 1315.87 C 627.621 1322.31 618.621 1327 608.936 1329.59 C 603.749 1330.99 598.426 1331.82 593.061 1332.07 C 579.821 1332.81 563.356 1332.33 549.786 1332.3 L 473.349 1332.24 L 408.626 1332.33 C 379.946 1332.33 353.103 1335.01 331.472 1312.45 C 312.713 1292.88 278.559 1266.58 271.425 1239.89 C 266.22 1220.42 267.972 1188.41 267.961 1167.73 L 267.955 1079.15 L 267.983 1027.12 C 268 1006.27 266.831 987.564 278.515 968.885 C 289.179 951.837 304.411 944.35 323.408 940.216 Z M 617.43 1252.26 C 642.814 1226.99 644.416 1228.4 644.512 1192.38 L 644.172 1088.86 C 644.235 1063.39 645.108 1033.43 643.842 1008.32 C 642.105 1005.4 638.737 998.96 634.891 998.871 C 554.016 997.011 472.766 998.81 391.788 998.098 C 374.867 997.949 357.379 997.722 340.553 998.172 C 336.83 1000.09 329.203 1005.55 329.04 1010.21 C 326.641 1079.04 328.494 1148.56 328.279 1217.53 C 328.228 1233.7 361.396 1266.3 377.352 1269.6 C 394.507 1273.15 414.924 1272.03 432.561 1272 L 507.843 1271.89 C 520.144 1271.9 532.689 1272.11 544.993 1272.04 C 576.332 1271.86 593.825 1276.28 617.43 1252.26 Z"/>
    <path transform="translate(0,0)" style="fill: rgb(124,124,124)" stroke-linecap="round" d="M 403.895 1055.25 C 415.522 1054.69 431.819 1052.77 442.805 1056.85 C 448.602 1059 452.229 1063.06 454.51 1068.75 C 457.703 1076.72 457.3 1189.9 453.852 1197.54 C 450.849 1204.2 445.519 1207.46 438.904 1209.86 C 426.244 1210.94 412.194 1211.59 399.651 1209.6 C 394.74 1206.19 390.249 1202.26 388.024 1196.55 C 384.778 1188.21 385.621 1073.57 388.997 1066.69 C 391.826 1060.92 397.94 1057.03 403.895 1055.25 Z"/>
    <path transform="translate(0,0)" style="fill: rgb(124,124,124)" stroke-linecap="round" d="M 535.165 1055.17 C 546.37 1054.66 560.49 1053.21 571.331 1056.06 C 576.737 1057.48 580.85 1060.31 583.52 1065.3 C 585.408 1068.82 585.969 1072.37 586.312 1076.3 C 587.612 1091.23 588.442 1187.32 584.517 1197.52 C 581.873 1204.39 575.516 1207.38 569.126 1209.95 C 557.492 1210.63 542.146 1212.97 531.185 1208.6 C 525.867 1206.48 521.189 1201.45 519.124 1196.15 C 515.413 1186.62 516.111 1074.65 520.195 1066.45 C 523.236 1060.34 528.894 1057.11 535.165 1055.17 Z"/>
    <path transform="translate(0,0)" style="fill: rgb(124,124,124)" stroke-linecap="round" d="M 565.13 375.282 C 582.668 374.382 597.434 384.884 593.481 404.397 C 591.282 415.25 589.302 426.543 586.352 437.369 C 573.448 484.723 565.744 537.373 550.99 583.871 C 572.111 583.952 593.232 583.925 614.353 583.789 C 624.662 583.761 634.822 583.454 645.132 584.305 C 659.102 585.458 669.74 604.101 660.751 615.471 C 649.495 629.708 636.688 643.115 624.83 657.043 C 600.82 685.361 577.144 713.96 553.807 742.834 C 530.961 771.148 508.634 799.876 486.837 829.005 C 475.839 843.521 464.96 858.486 453.636 872.751 C 444.129 884.727 431.459 886.079 419.288 876.77 C 409.55 863.686 412.45 858.403 417.85 843.984 C 423.336 829.339 429.107 814.749 434.743 800.159 C 449.131 762.902 463.243 725.54 477.079 688.074 C 464.64 689.599 450.08 689.202 437.183 689.094 C 408.254 688.285 378.446 690.608 349.626 688.37 C 333.029 687.08 329.653 665.877 339.97 653.307 C 353.094 637.319 366.048 620.128 378.77 603.812 L 456.042 504.026 C 475.584 478.635 494.998 453.146 514.282 427.559 C 524.61 413.775 534.698 399.809 545.133 386.108 C 547.747 382.676 549.324 381.251 553.043 379.053 C 557.457 376.445 560.047 376.042 565.13 375.282 Z M 460.771 598.013 C 470.669 597.994 480.566 597.914 490.463 597.772 C 492.919 590.179 505.887 541.175 505.395 535.922 C 501.161 541.719 460.731 597.328 460.771 598.013 Z"/>
    <path transform="translate(0,0)" style="fill: rgb(124,124,124)" stroke-linecap="round" d="M 488.809 1426.04 C 554.579 1420.1 612.714 1468.59 618.68 1534.36 C 624.645 1600.13 576.184 1658.28 510.42 1664.28 C 444.612 1670.28 386.408 1621.78 380.438 1555.97 C 374.469 1490.16 422.996 1431.98 488.809 1426.04 Z M 512.45 1597.78 C 541.372 1591.72 559.911 1563.37 553.877 1534.44 C 547.843 1505.51 519.516 1486.94 490.581 1492.94 C 461.596 1498.95 442.984 1527.33 449.029 1556.31 C 455.073 1585.29 483.48 1603.86 512.45 1597.78 Z"/>
    <path transform="translate(0,0)" style="fill: rgb(124,124,124)" stroke-linecap="round" d="M 1523.8 1541.24 C 1554.69 1536.89 1583.29 1558.28 1587.87 1589.13 C 1592.45 1619.98 1571.29 1648.74 1540.48 1653.56 C 1509.33 1658.43 1480.18 1636.98 1475.55 1605.8 C 1470.92 1574.61 1492.58 1545.63 1523.8 1541.24 Z"/>
    <path transform="translate(0,0)" style="fill: rgb(124,124,124)" stroke-linecap="round" d="M 1727.09 376.524 C 1747.41 371.676 1767.81 384.238 1772.63 404.568 C 1777.45 424.897 1764.86 445.28 1744.52 450.071 C 1724.23 454.852 1703.89 442.291 1699.08 422.002 C 1694.27 401.713 1706.8 381.362 1727.09 376.524 Z"/>
    <path transform="translate(0,0)" style="fill: rgb(124,124,124)" stroke-linecap="round" d="M 308.356 376.433 C 328.377 371.458 348.649 383.624 353.676 403.633 C 358.703 423.642 346.589 443.945 326.594 449.024 C 306.524 454.121 286.13 441.953 281.085 421.871 C 276.039 401.789 288.26 381.426 308.356 376.433 Z"/>
    <path transform="translate(0,0)" style="fill: rgb(124,124,124)" stroke-linecap="round" d="M 309.547 1592.31 C 322.711 1589.62 336.301 1594.23 345.124 1604.36 C 353.947 1614.49 356.638 1628.59 352.169 1641.26 C 347.7 1653.93 336.762 1663.21 323.535 1665.57 C 303.435 1669.15 284.194 1655.9 280.365 1635.85 C 276.536 1615.79 289.543 1596.39 309.547 1592.31 Z"/>
    <path transform="translate(0,0)" style="fill: rgb(124,124,124)" stroke-linecap="round" d="M 1725.36 1592.75 C 1738.32 1589.9 1751.82 1594.24 1760.7 1604.1 C 1769.58 1613.96 1772.49 1627.84 1768.3 1640.44 C 1764.12 1653.03 1753.49 1662.41 1740.47 1665 C 1720.62 1668.94 1701.29 1656.17 1697.15 1636.36 C 1693.01 1616.55 1705.59 1597.09 1725.36 1592.75 Z"/>
</svg>