<?xml version="1.0" encoding="UTF-8" standalone="no"?><!DOCTYPE svg PUBLIC "-//W3C//DTD SVG 1.1//EN" "http://www.w3.org/Graphics/SVG/1.1/DTD/svg11.dtd"><svg xmlns="http://www.w3.org/2000/svg" xmlns:xlink="http://www.w3.org/1999/xlink" version="1.1" viewBox="1 0 1628 1620">
    <defs>
    </defs>
    <path transform="translate(0,0)" style="stroke-linecap: round; fill: rgb(124,124,124)" stroke-linecap="round" d="M316.884 231.727C648.837 236.637 980.848 236.607 1312.798 231.636 1312.458 248.692 1312.448 265.753 1312.768 282.81 1328.668 282.723 1344.558 282.778 1360.458 282.976 1360.888 297.889 1360.678 313.866 1360.738 328.861 1375.178 329.522 1391.588 329.295 1406.178 329.414 1408.018 357.365 1406.688 402.1 1406.658 430.965L1406.318 635.139 1406.498 1286.374 1360.318 1286.484C1360.158 1302.104 1360.148 1317.724 1360.288 1333.344L1313.908 1333.284C1314.058 1340.514 1314.768 1378.904 1312.978 1384.384L1310.838 1385.264 316.7 1387.274C317.098 1370.384 317.313 1353.494 317.344 1336.594 302.32 1336.144 285.724 1336.514 270.584 1336.544 269.28 1324.124 269.538 1302.544 269.324 1289.574 253.986 1289.324 238.336 1289.464 222.972 1289.454L223.308 670.218C223.409 557.612 222.446 441.923 224.591 329.529 239.067 329.179 254.475 329.4 269.025 329.358 268.639 314.603 269.107 298.314 269.25 283.448L317.61 283.22C317.072 266.061 316.83 248.894 316.884 231.727Z"/>
    <path transform="translate(0,0)" style="stroke-linecap: round; fill: rgb(94,94,94)" stroke-linecap="round" d="M617.7343 473.5551C635.513 472.6991 659.1166 473.2092 677.3903 473.1444L797.5388 473.1044 1136.1199 474.7009 1135.8281 516.2896 1181.0638 516.335C1179.4532 583.9183 1181.0638 657.7459 1181.161 725.8783L1181.2043 1102.3936C1166.3527 1102.6098 1150.8742 1102.3287 1135.9686 1102.2639 1135.7308 1117.1046 1136.0118 1132.6047 1136.0659 1147.4995L1015.3618 1147.3374 493.7789 1147.4455C493.5584 1132.6047 493.7097 1117.364 493.6805 1102.4909L448.4297 1102.5881 448.4232 725.6361C448.4092 657.0185 447.404 584.7614 448.7659 516.4215L493.4892 516.2118 493.7951 474.0351C532.1487 474.6296 579.6823 474.9841 617.7343 473.5551Z"/>
    <path transform="translate(0,0)" style="stroke-linecap: round; fill: rgb(124,124,124)" stroke-linecap="round" d="M839.858 1434.904L871.868 1434.924 872.068 1548.494C872.108 1572.104 872.618 1596.204 871.888 1619.764L794.258 1619.724C782.488 1619.734 770.718 1619.694 758.949 1619.594 757.58 1560.454 758.561 1494.804 758.747 1435.454 785.784 1435.044 812.828 1434.864 839.858 1434.904Z"/>
    <path transform="translate(0,0)" style="stroke-linecap: round; fill: rgb(124,124,124)" stroke-linecap="round" d="M758.781 0.5C796.338 1.24 834.268 0.393 871.888 1.278 872.208 62.525 872.168 123.774 871.748 185.02 835.328 185.682 795.108 185.402 758.732 184.808L758.781 0.5Z"/>
    <path transform="translate(0,0)" style="stroke-linecap: round; fill: rgb(124,124,124)" stroke-linecap="round" d="M1 751.564L175.869 751.584 175.993 869.574 1.795 869.594 1 751.564Z"/>
    <path transform="translate(0,0)" style="stroke-linecap: round; fill: rgb(124,124,124)" stroke-linecap="round" d="M1453.408 751.471L1627.788 751.668C1628.268 790.954 1628.548 830.244 1628.618 869.534L1453.708 869.634 1453.408 751.471Z"/>
</svg>