<?xml version="1.0" encoding="UTF-8" standalone="no"?><!DOCTYPE svg PUBLIC "-//W3C//DTD SVG 1.1//EN" "http://www.w3.org/Graphics/SVG/1.1/DTD/svg11.dtd"><svg xmlns="http://www.w3.org/2000/svg" xmlns:xlink="http://www.w3.org/1999/xlink" version="1.1" viewBox="229 339 1586 1269">
    <defs>
    </defs>
    <path transform="translate(0,0)" style="fill: rgb(124,124,124)" stroke-linecap="round" d="M 1429.4 340.262 C 1462.77 337.4 1468.92 358.052 1467.39 385.878 C 1463.4 458.532 1416.87 521.998 1344.42 538.236 C 1321.04 543.476 1297.96 542.218 1274.31 542.199 L 1198.88 542.043 C 1143.41 541.925 1093.2 537.56 1062.03 593.55 C 1043.19 627.39 1052.52 661.047 1049.38 696.76 L 1049.27 697.851 C 1104.28 698.554 1160.4 697.983 1215.48 697.972 L 1525.72 697.941 L 1655.83 697.926 C 1700.95 697.923 1745.85 692.48 1781.31 728.506 C 1806.56 754.167 1813.86 780.812 1813.99 816.228 L 1813.94 1306.27 L 1814.02 1448.02 C 1814.07 1494.94 1820.92 1542.7 1784.38 1578.98 C 1769.48 1593.86 1750.22 1603.6 1729.4 1606.79 C 1711.24 1609.59 1673.74 1608.42 1653.65 1608.45 L 1514.21 1608.44 L 1028.8 1608.41 L 528.867 1608.42 L 387.487 1608.43 C 366.515 1608.44 344.149 1609.04 323.656 1608.09 C 284.26 1606.25 248.97 1579.52 235.457 1542.65 C 229.291 1525.83 229.85 1514.15 229.722 1496.45 L 229.64 1004.68 L 229.658 862.899 C 229.68 814.019 222.222 766.561 260.019 728.692 C 275.888 713.091 296.199 702.787 318.161 699.199 C 331.558 697.071 372.749 697.913 388.205 697.921 L 520.067 697.94 L 991.982 697.981 C 991.944 657.487 988.194 613.585 1003.76 576.586 C 1026.21 523.209 1075.44 489.068 1132.55 483.33 C 1153.77 481.198 1173.97 481.864 1195.27 481.88 L 1277.35 481.987 C 1299.59 482.005 1326.21 484.034 1346.55 474.99 C 1380.93 460.172 1400.34 429.148 1404.11 392.497 C 1406.61 368.176 1401.59 349.851 1429.4 340.262 Z M 1756.18 838.739 C 1756.06 816.028 1758.62 791.354 1740.84 774.271 C 1730.72 764.54 1720.19 761.341 1706.47 760.996 C 1685.01 760.457 1662.86 760.738 1641.37 760.732 L 1513.54 760.718 L 1116.87 760.773 L 584.881 760.685 L 420.135 760.745 C 392.716 760.745 365.112 760.552 337.716 760.787 C 323.378 760.91 310.993 764.782 301.199 775.715 C 293.881 783.884 289.179 794.575 288.332 805.585 C 287.4 817.692 287.826 830.891 287.905 843.157 L 287.977 900.859 L 287.927 1108.08 L 287.937 1371.22 L 287.933 1457.19 C 287.949 1494.28 280.26 1547.9 334.857 1549.95 C 365.673 1551.11 397.198 1550.2 428.084 1550.17 L 600.797 1550.2 L 1139.74 1550.2 L 1527.08 1550.22 L 1649.66 1550.18 C 1659.45 1550.17 1669.28 1550.17 1679.06 1550.18 C 1702.57 1550.21 1727.65 1553.11 1744.36 1532.48 C 1755.89 1518.25 1756.05 1501.91 1756.19 1484.68 C 1754.79 1461.76 1756.01 1424.9 1756.04 1401.17 L 1756 1246.46 L 1755.98 995.524 C 1755.55 943.263 1755.61 890.999 1756.18 838.739 Z"/>
    <path transform="translate(0,0)" style="fill: rgb(124,124,124)" stroke-linecap="round" d="M 731.86 1355.22 C 746.919 1353.54 784.185 1354.68 800.383 1354.72 L 927.768 1354.73 L 1181.89 1354.74 C 1224.31 1354.73 1266.86 1353.94 1309.27 1354.71 C 1314.77 1354.81 1319.3 1355.06 1324.38 1357.4 C 1333.17 1361.46 1338.91 1368.63 1341.87 1377.78 C 1346.18 1391.1 1346.22 1453.11 1340.04 1464.77 C 1335.51 1473.32 1328.03 1478.36 1318.95 1481.02 C 1308.63 1483.09 1265.41 1482.24 1252.36 1482.23 L 1109.28 1482.13 L 836.34 1482.19 L 770.201 1482.23 C 762.445 1482.23 753.543 1481.94 745.975 1482.15 C 707.214 1483.24 706.328 1450.88 707.935 1420.99 C 709.461 1392.59 700.386 1370.06 731.86 1355.22 Z"/>
    <path transform="translate(0,0)" style="fill: rgb(124,124,124)" stroke-linecap="round" d="M 392.762 1006.16 C 408.823 1005.47 516.929 1004.21 524.763 1008.33 C 533.046 1012.7 540.503 1019.1 543.024 1028.41 C 547.262 1044.06 547.429 1108.03 539.972 1120.58 C 534.698 1129.46 526.372 1133.99 516.717 1136.73 C 481.953 1140.84 436.171 1135.69 400.627 1137.34 C 375.407 1138.52 362.728 1114.8 364.971 1091.55 C 367.866 1061.54 353.441 1017 392.762 1006.16 Z"/>
    <path transform="translate(0,0)" style="fill: rgb(124,124,124)" stroke-linecap="round" d="M 1540.89 1006.19 C 1559.8 1005.42 1584.81 1006.25 1602.24 1005.97 C 1661.86 1005.15 1688.56 998.846 1683.87 1071.8 C 1682.12 1098.99 1691.43 1128.35 1652.95 1137.06 C 1633.14 1137.79 1544.42 1140.45 1531.42 1133.79 C 1523.33 1129.64 1516.19 1121.83 1513.66 1113.02 C 1511.04 1103.93 1510.99 1047.12 1512.45 1037.1 C 1513.22 1031.81 1514.77 1026.68 1517.5 1022.07 C 1522.95 1012.89 1530.93 1008.73 1540.89 1006.19 Z"/>
    <path transform="translate(0,0)" style="fill: rgb(124,124,124)" stroke-linecap="round" d="M 618.852 1006.17 C 636.383 1005.54 699.376 1003.24 712.219 1009.62 C 719.458 1013.21 726.164 1021.25 728.5 1028.97 C 731.256 1038.07 731.122 1094.71 729.834 1105.14 C 729.197 1110.29 727.834 1115.31 725.322 1119.89 C 720.106 1129.38 711.644 1134.04 701.477 1136.74 C 681.186 1138.86 628.843 1139.75 609.474 1133.21 C 582.283 1124.02 593.793 1059.26 592.415 1036.66 C 591.488 1021.47 604.346 1010.53 618.852 1006.17 Z"/>
    <path transform="translate(0,0)" style="fill: rgb(124,124,124)" stroke-linecap="round" d="M 1168.72 1006.13 C 1186 1005.85 1246.59 1003.07 1258.87 1010.16 C 1266.46 1014.55 1272.11 1020.58 1274.22 1029.22 C 1277.37 1042.09 1277.65 1095.69 1275.36 1109.15 C 1274.63 1113.47 1273.32 1116.79 1270.99 1120.5 C 1265.19 1129.71 1256.6 1134.48 1246.17 1136.78 C 1226.16 1138.69 1173.46 1140.37 1155.71 1132.01 C 1131.85 1120.75 1141.23 1058.67 1140.59 1036.19 C 1140.15 1020.79 1154.34 1009.83 1168.72 1006.13 Z"/>
    <path transform="translate(0,0)" style="fill: rgb(124,124,124)" stroke-linecap="round" d="M 1352.67 1006.16 C 1369.88 1005.92 1426.58 1002.62 1439.04 1010.28 C 1447.5 1015.47 1452.85 1023.13 1454.99 1032.83 C 1457.1 1042.42 1457.11 1098.16 1455.37 1108.55 C 1454.54 1113.55 1452.81 1118.44 1449.98 1122.66 C 1444.45 1130.92 1435.75 1135.08 1426.23 1136.87 C 1410.61 1138.2 1391.7 1136.68 1376.36 1137.73 C 1308.21 1142.4 1326.52 1089.9 1323.97 1044.57 C 1322.92 1025.81 1332.91 1011.56 1352.67 1006.16 Z"/>
    <path transform="translate(0,0)" style="fill: rgb(124,124,124)" stroke-linecap="round" d="M 803.697 1006.21 C 824.805 1005.44 868.621 1003.52 888.061 1009.73 C 913.797 1017.95 904.498 1071.05 906.313 1092.06 C 908.172 1113.59 899.393 1132.24 876.228 1136.85 C 856.318 1138.43 809.601 1140.51 792.254 1132.34 C 766.129 1120.05 777.05 1067.33 775.016 1043.25 C 773.516 1025.5 785.697 1010.64 803.697 1006.21 Z"/>
    <path transform="translate(0,0)" style="fill: rgb(124,124,124)" stroke-linecap="round" d="M 988.06 1006.24 C 1001.65 1005.48 1059.68 1003.77 1069.92 1008.63 C 1078.22 1012.57 1084.76 1018.22 1087.86 1027.06 C 1091.4 1037.13 1091.28 1094.7 1089.63 1105.94 C 1088.94 1110.64 1087.68 1115.29 1085.43 1119.5 C 1080.37 1129.03 1071.98 1133.69 1061.95 1136.64 C 1043.84 1138.67 993.829 1139.98 977.496 1133.09 C 951.342 1122.05 962.28 1071.4 959.881 1048.13 C 957.877 1028.69 967.786 1011.7 988.06 1006.24 Z"/>
    <path transform="translate(0,0)" style="fill: rgb(124,124,124)" stroke-linecap="round" d="M 559.639 830.495 C 573.861 829.039 603.149 829.958 618.359 829.993 C 654.917 829.36 662.993 842.511 662.264 878.813 C 661.963 893.799 662.309 909.606 662.365 924.637 C 661.607 960.062 637.603 963.154 609.263 962.177 C 574.261 960.97 533.971 971.281 534.213 920.334 C 534.385 901.24 533.599 880.092 535.185 860.804 C 536.479 845.011 545.352 835.722 559.639 830.495 Z"/>
    <path transform="translate(0,0)" style="fill: rgb(124,124,124)" stroke-linecap="round" d="M 1074.31 830.131 C 1091.8 829.748 1109.83 829.949 1127.36 829.936 C 1141.69 829.883 1153.71 828.08 1164.65 839.456 C 1177.17 852.026 1173.74 871.352 1174.36 887.735 C 1174.82 900.019 1173.88 911.889 1174.07 924.765 C 1174.86 977.171 1112.6 958.938 1079.6 961.844 C 1072.08 962.507 1059.76 955.554 1054.67 949.348 C 1051.84 945.96 1049.86 941.939 1048.91 937.626 C 1044.52 916.851 1047.89 882.022 1048.02 860.351 C 1048.1 845.447 1060.56 834.216 1074.31 830.131 Z"/>
    <path transform="translate(0,0)" style="fill: rgb(124,124,124)" stroke-linecap="round" d="M 733.908 830.234 C 751.744 828.943 782.733 830.004 801.397 830.041 C 840.587 829.733 833.929 873.053 833.982 899.404 C 834.029 922.831 839.272 954.535 807.621 960.822 C 786.551 964.215 760.585 961.147 738.979 961.917 C 731.208 962.193 720.647 956.421 715.67 950.399 C 712.568 946.631 710.412 942.176 709.381 937.406 C 706.062 922.418 708.853 901.397 708.176 885.66 C 707.093 860.467 706.432 840.061 733.908 830.234 Z"/>
    <path transform="translate(0,0)" style="fill: rgb(124,124,124)" stroke-linecap="round" d="M 561.457 1182.18 C 574.777 1181.85 591.599 1182.69 604.712 1181.83 C 641.276 1179.43 666.024 1184.92 662.593 1229.44 C 660.115 1261.6 674.581 1298.87 634.311 1311.75 C 546.156 1316.71 528.875 1317.28 534.403 1229.48 C 535.95 1204.92 534.438 1191.31 561.457 1182.18 Z"/>
    <path transform="translate(0,0)" style="fill: rgb(124,124,124)" stroke-linecap="round" d="M 1633.56 830.075 C 1645.39 829.774 1661.62 828.403 1671.48 836.655 C 1690.97 853.315 1681.59 891.677 1683.81 914.437 C 1686.03 937.203 1676.82 962.434 1650.57 961.94 C 1629.17 961.537 1605.24 963.562 1584.21 960.999 C 1566.81 958.878 1556.6 940.262 1557.81 924.081 C 1559.19 901.731 1555.87 877.979 1559.11 856.009 C 1561.59 839.257 1576.16 830.102 1592.18 830.005 L 1633.56 830.075 Z"/>
    <path transform="translate(0,0)" style="fill: rgb(124,124,124)" stroke-linecap="round" d="M 454.423 830.099 C 488.489 828.557 491.886 855.925 490.109 882.906 C 487.788 913.927 501.947 962.164 454.761 962.088 C 387.474 961.98 360.07 973.598 365.097 892.501 C 367.41 855.175 357.654 829.169 409.668 830.006 L 454.423 830.099 Z"/>
    <path transform="translate(0,0)" style="fill: rgb(124,124,124)" stroke-linecap="round" d="M 1075.54 1182.21 C 1092.63 1181.99 1143.42 1178.71 1156.5 1185.2 C 1163.88 1188.86 1170.06 1196.14 1172.54 1204.01 C 1176.72 1217.29 1176.56 1282.47 1170.18 1294.66 C 1165.03 1304.5 1156.36 1308.82 1146.18 1311.78 C 1133.53 1312.52 1118.97 1311.24 1106.44 1312.21 C 1075.25 1314.61 1043.96 1309.73 1047.21 1269.65 C 1049.75 1238.35 1035.12 1193.25 1075.54 1182.21 Z"/>
    <path transform="translate(0,0)" style="fill: rgb(124,124,124)" stroke-linecap="round" d="M 1419.98 829.998 L 1487.64 830.128 C 1509.76 838.057 1513.4 855.034 1513.05 876.502 C 1512.73 896.53 1513.98 917.359 1511.28 937.242 C 1510.19 948.487 1492.66 962.686 1481.64 961.818 C 1460 960.112 1415.42 968.602 1398.82 953.2 C 1380.72 936.395 1390.41 896.363 1387.86 873.063 C 1385.47 851.204 1396.16 830.798 1419.98 829.998 Z"/>
    <path transform="translate(0,0)" style="fill: rgb(124,124,124)" stroke-linecap="round" d="M 1246.45 830.227 C 1261.81 829.469 1313.08 827.564 1325.38 832.712 C 1332.21 835.57 1338.52 842.094 1341.25 848.972 C 1346.12 861.235 1345.93 932.443 1340.46 943.713 C 1335.57 953.798 1327.18 958.09 1317.04 961.374 C 1303.23 963.375 1252.1 963.256 1238.98 958.478 C 1209.88 947.879 1222.41 889.598 1219.92 864.541 C 1218.31 848.338 1230.7 835.328 1246.45 830.227 Z"/>
    <path transform="translate(0,0)" style="fill: rgb(124,124,124)" stroke-linecap="round" d="M 566.187 1354.41 C 657.093 1355.56 665.916 1342.5 662.44 1442.03 C 661.647 1464.72 656.765 1475.92 634.102 1481.99 C 616.738 1482.34 561.049 1485.76 548.336 1476.56 C 540.313 1470.75 535.802 1462.53 534.542 1452.81 C 533.031 1441.15 533.198 1391.94 535.726 1380.53 C 536.946 1375.02 539.249 1369.84 542.831 1365.46 C 548.948 1357.98 556.87 1355.28 566.187 1354.41 Z"/>
    <path transform="translate(0,0)" style="fill: rgb(124,124,124)" stroke-linecap="round" d="M 734.583 1182.24 C 748.511 1181.29 804.02 1179.83 814.721 1184.83 C 822.847 1188.62 829.03 1194.72 831.951 1203.31 C 835.99 1215.19 835.888 1283.6 830.313 1293.82 C 825.078 1303.41 816.357 1308.38 806.232 1311.32 C 794.884 1314.33 753.62 1311.49 739.932 1311.8 C 712.256 1310.02 705.935 1284.68 708.077 1262.59 C 711.146 1230.95 696.419 1195.55 734.583 1182.24 Z"/>
    <path transform="translate(0,0)" style="fill: rgb(124,124,124)" stroke-linecap="round" d="M 1638.54 1182.15 C 1696.44 1179.96 1680.88 1219.15 1683.51 1257.59 C 1686.46 1300.56 1673.71 1314.62 1629.97 1312.1 C 1598.39 1310.72 1557.4 1321.69 1557.72 1271.65 C 1557.89 1253.74 1557.96 1233.81 1557.94 1215.73 C 1558.18 1197.19 1568.48 1186.9 1585.36 1182.19 C 1603.09 1181.99 1620.82 1181.98 1638.54 1182.15 Z"/>
    <path transform="translate(0,0)" style="fill: rgb(124,124,124)" stroke-linecap="round" d="M 390.582 1182.18 C 405.785 1181.38 458.21 1179.9 470.488 1184.09 C 477.638 1186.53 484.023 1193.53 487.051 1200.31 C 492.059 1211.53 492.009 1280.23 487.179 1291.75 C 483.019 1301.68 473.894 1307.69 464.268 1311.45 C 451.239 1313.29 396.519 1313.36 386.103 1309.32 C 377.801 1306.11 371.669 1299.85 368.438 1291.58 C 362.941 1277.5 362.961 1213.12 369.516 1199.5 C 373.953 1190.29 381.118 1185.37 390.582 1182.18 Z"/>
    <path transform="translate(0,0)" style="fill: rgb(124,124,124)" stroke-linecap="round" d="M 1425.33 1181.96 C 1444.83 1182.01 1467.82 1181.54 1487.04 1182.27 C 1518.48 1190.79 1512.97 1222.43 1513.08 1247.96 C 1513.14 1263.63 1515.17 1287.16 1505.27 1299.53 C 1499.28 1306.9 1490.48 1311.43 1480.99 1312.01 C 1464.76 1312.99 1446.86 1311.63 1430.38 1312.3 C 1375.15 1314.56 1390.14 1263.22 1387.88 1227.34 C 1386.17 1200.28 1395.63 1181.8 1425.33 1181.96 Z"/>
    <path transform="translate(0,0)" style="fill: rgb(124,124,124)" stroke-linecap="round" d="M 906.61 830.391 C 920.502 829.185 946.81 829.992 961.51 830.018 C 1005.43 829.519 1002.89 855.041 1002.75 889.266 C 1002.96 939.083 1008.61 964.688 948.181 962.168 C 911.655 960.645 876.03 969.586 880.017 913.923 C 882.241 882.878 868.585 842.257 906.61 830.391 Z"/>
    <path transform="translate(0,0)" style="fill: rgb(124,124,124)" stroke-linecap="round" d="M 1244.17 1182.82 C 1253.47 1181.42 1307.7 1181.73 1319.33 1182.22 C 1328.65 1185.97 1335.65 1190.37 1340.21 1199.68 C 1342.28 1203.92 1343.4 1208.54 1343.91 1213.21 C 1345.33 1226.22 1345.48 1281.2 1341.75 1291.42 C 1338.97 1299.04 1333.25 1304.6 1325.95 1307.95 C 1321.44 1310.03 1316.58 1311.19 1311.65 1311.75 C 1299.88 1313.11 1250.07 1313.29 1240.5 1309.59 C 1232.64 1306.55 1226 1299.84 1222.89 1292.03 C 1217.45 1278.35 1217.63 1213.05 1223.75 1199.86 C 1228.03 1190.64 1234.88 1186.19 1244.17 1182.82 Z"/>
    <path transform="translate(0,0)" style="fill: rgb(124,124,124)" stroke-linecap="round" d="M 395.509 1354.22 C 411.474 1354.68 460.171 1351.82 471.612 1357.86 C 479.28 1361.91 485.782 1368.56 488.204 1377.04 C 491.476 1388.49 491.396 1440.87 489.622 1453.88 C 489.028 1458.25 488.121 1462.26 485.889 1466.1 C 480.744 1474.97 472.625 1479.28 463.136 1482 C 446.172 1482.33 393.218 1485.33 380.623 1477.34 C 373.227 1472.64 368.073 1465.12 366.355 1456.53 C 363.827 1444.18 365.375 1427.19 365.21 1414.27 C 364.866 1387.36 362.374 1360.28 395.509 1354.22 Z"/>
    <path transform="translate(0,0)" style="fill: rgb(124,124,124)" stroke-linecap="round" d="M 1421.7 1354.42 C 1442.15 1354.56 1483.22 1350.52 1500.69 1361.73 C 1506.96 1366.53 1513.44 1379.15 1512.64 1387.01 C 1509.51 1417.65 1527.09 1478.74 1482.25 1482.08 C 1460.23 1482.26 1436.17 1483.36 1414.27 1481.37 C 1399.62 1479.53 1387.62 1463.73 1388 1448.87 C 1388.55 1427.54 1386.56 1401.82 1389.16 1380.77 C 1391.21 1364.21 1405.69 1355.46 1421.7 1354.42 Z"/>
    <path transform="translate(0,0)" style="fill: rgb(124,124,124)" stroke-linecap="round" d="M 904.263 1182.48 C 916.817 1181.14 946.507 1182 960.222 1182.01 C 990.25 1181.52 1002.85 1191.91 1002.8 1223.92 C 1002.77 1245.1 1004.37 1267.68 1000.55 1288.42 C 998.693 1297.21 987.65 1308.75 978.717 1310.48 C 958.701 1314.36 936.281 1311.01 915.839 1312.12 C 907.137 1312.59 895.987 1308.89 890.15 1302.55 C 887.487 1299.97 881.455 1290.49 881.11 1287.02 C 878.863 1264.41 880.418 1240.73 880.193 1217.95 C 880.009 1199.34 887.826 1189.79 904.263 1182.48 Z"/>
</svg>