<svg id="Layer_1" data-name="Layer 1" xmlns="http://www.w3.org/2000/svg" viewBox="0 0 122.88 74.82"><defs><style>.cls-1{fill-rule:evenodd;}</style></defs><title>play-pause</title><path class="cls-1" d="M51.93,43.9c5.49-3.55,5.47-7.5,0-10.64L9,1.86C4.55-.94-.12.71,0,6.55L.18,68.23c.38,6.34,4,8.07,9.33,5.14L51.93,43.9ZM105.84,0h13.1a4,4,0,0,1,3.94,3.94V70.88a4,4,0,0,1-3.94,3.94h-13.1a4,4,0,0,1-3.94-3.94V3.94A4,4,0,0,1,105.84,0ZM71.94,0H85A4,4,0,0,1,89,3.94V70.88A4,4,0,0,1,85,74.82H71.94A4,4,0,0,1,68,70.88V3.94A4,4,0,0,1,71.94,0Z" fill="#7c7c7c"/></svg>