<?xml version="1.0" encoding="UTF-8" standalone="no"?><!DOCTYPE svg PUBLIC "-//W3C//DTD SVG 1.1//EN" "http://www.w3.org/Graphics/SVG/1.1/DTD/svg11.dtd"><svg xmlns="http://www.w3.org/2000/svg" xmlns:xlink="http://www.w3.org/1999/xlink" version="1.1" viewBox="152 218 1745 1430">
    <defs>
    </defs>
    <path transform="translate(0,0)" style="fill: rgb(150,150,150)" stroke-linecap="round" d="M 1303.76 219.174 C 1316.49 217.66 1329.35 219.828 1337.68 230.41 C 1348.11 243.658 1341.99 268.353 1339.49 283.803 C 1327.43 360.29 1270.05 421.743 1194.56 438.999 C 1159.55 447.366 1124.41 445.047 1093.74 467.955 C 1068.36 486.902 1055.26 514.822 1050.98 545.681 C 1049.61 555.567 1049.37 565.055 1047.95 574.832 C 1147.83 576.636 1248.46 573.875 1348.42 574.946 C 1378.11 575.264 1408.44 574.042 1438.03 576.686 C 1522.56 584.564 1601.76 621.492 1662.14 681.185 C 1693.77 712.923 1719.36 750.162 1737.65 791.075 C 1751.66 822.029 1763.72 864.52 1773.69 897.695 L 1817.16 1044.57 L 1864.02 1204.26 C 1872.29 1232.93 1881.27 1261.84 1887.82 1290.92 C 1910.73 1392.64 1890.83 1499.17 1814.44 1574.36 C 1765.17 1622.45 1698.8 1648.98 1629.96 1648.1 C 1509.75 1646.63 1416.66 1561.05 1374.66 1453.39 C 1368.47 1439.09 1362.18 1424.94 1356.17 1410.54 C 1345.52 1385.05 1335.16 1361.44 1313.87 1343.36 C 1274.41 1309.84 1222.2 1316.9 1173.49 1316.91 L 1044.25 1316.97 C 967.266 1317.07 890.027 1316.64 813.238 1317 C 746.532 1317.3 716.495 1352.51 692.438 1410.09 C 669.094 1465.98 645.168 1521.09 601.944 1564.89 C 427.521 1741.62 153.899 1619.68 152.156 1372.22 C 152.084 1346.62 154.738 1321.09 160.073 1296.05 C 166.354 1266.17 176.849 1232.3 185.262 1202.55 L 237.899 1021 C 251.068 974.281 264.521 927.638 278.255 881.077 C 287.218 850.655 296.827 815.458 309.759 786.698 C 327.079 748.845 350.978 714.364 380.343 684.859 C 443.203 622.178 526.222 583.774 614.69 576.45 C 635.74 574.627 657.347 574.938 678.499 574.937 L 757.488 574.972 L 985.145 574.928 C 984.239 483.925 1033.84 404.831 1126.34 386.624 C 1145.92 382.692 1166.83 381.351 1185.95 375.767 C 1243.06 359.093 1274.71 314.835 1277.97 256.286 C 1279.04 237.043 1283.81 224.454 1303.76 219.174 Z M 1369.3 1307.4 C 1394.37 1333.92 1398.16 1348.62 1412.62 1380.68 C 1443.67 1449.54 1461.08 1509.83 1527.74 1553.32 C 1556.69 1572.36 1590.34 1583.01 1624.97 1584.09 C 1744.61 1587.37 1833.12 1497.88 1835.1 1379.25 C 1835.31 1355.86 1832.88 1332.53 1827.86 1309.69 C 1821.32 1278.75 1810 1242.49 1801.05 1211.84 L 1758.9 1068.74 C 1743.86 1018.52 1728.53 968.386 1712.91 918.345 C 1691.16 849.287 1671.9 781.485 1619.9 728.118 C 1576.52 683.605 1520.23 654.692 1459.25 643.183 C 1443.32 640.213 1417.92 639.212 1401.38 639.062 L 919.35 639.041 L 729.626 639.021 C 697.018 639.02 658.537 638.11 626.299 639.431 C 546.004 642.814 474.589 674.75 420.08 734.463 C 397.133 760.023 378.437 789.101 364.706 820.587 C 353.799 846.064 344.575 879.969 336.438 906.876 C 322.039 954.098 308.007 1001.43 294.341 1048.87 L 245.664 1217.41 C 230.236 1272.04 211.336 1327.11 214.152 1384.56 C 216.979 1442.23 237.133 1495.98 280.73 1535.1 C 320.185 1570.22 372.165 1587.9 424.853 1584.12 C 549.782 1576.38 595.504 1479.64 637.121 1378.82 C 656.836 1331.06 675.949 1300.3 723.384 1275.57 C 747.83 1262.97 774.578 1255.46 802.009 1253.5 C 827.08 1251.65 865.141 1252.8 891.45 1252.81 L 1052.7 1252.85 L 1178.76 1252.82 C 1206.29 1252.81 1243.19 1251.29 1269.32 1256.15 C 1302.64 1262.1 1333.79 1276.75 1359.64 1298.61 C 1362.92 1301.47 1366.14 1304.4 1369.3 1307.4 Z"/>
    <path transform="translate(0,0)" style="fill: rgb(124,124,124)" stroke-linecap="round" d="M 626.299 639.431 C 658.537 638.11 697.018 639.02 729.626 639.021 L 919.35 639.041 L 1401.38 639.062 C 1417.92 639.212 1443.32 640.213 1459.25 643.183 C 1520.23 654.692 1576.52 683.605 1619.9 728.118 C 1671.9 781.485 1691.16 849.287 1712.91 918.345 C 1728.53 968.386 1743.86 1018.52 1758.9 1068.74 L 1801.05 1211.84 C 1810 1242.49 1821.32 1278.75 1827.86 1309.69 C 1832.88 1332.53 1835.31 1355.86 1835.1 1379.25 C 1833.12 1497.88 1744.61 1587.37 1624.97 1584.09 C 1590.34 1583.01 1556.69 1572.36 1527.74 1553.32 C 1461.08 1509.83 1443.67 1449.54 1412.62 1380.68 C 1398.16 1348.62 1394.37 1333.92 1369.3 1307.4 C 1366.14 1304.4 1362.92 1301.47 1359.64 1298.61 C 1333.79 1276.75 1302.64 1262.1 1269.32 1256.15 C 1243.19 1251.29 1206.29 1252.81 1178.76 1252.82 L 1052.7 1252.85 L 891.45 1252.81 C 865.141 1252.8 827.08 1251.65 802.009 1253.5 C 774.578 1255.46 747.83 1262.97 723.384 1275.57 C 675.949 1300.3 656.836 1331.06 637.121 1378.82 C 595.504 1479.64 549.782 1576.38 424.853 1584.12 C 372.165 1587.9 320.185 1570.22 280.73 1535.1 C 237.133 1495.98 216.979 1442.23 214.152 1384.56 C 211.336 1327.11 230.236 1272.04 245.664 1217.41 L 294.341 1048.87 C 308.007 1001.43 322.039 954.098 336.438 906.876 C 344.575 879.969 353.799 846.064 364.706 820.587 C 378.437 789.101 397.133 760.023 420.08 734.463 C 474.589 674.75 546.004 642.814 626.299 639.431 Z M 643.763 1146.16 C 703.612 1139.95 682.102 1078.54 685.969 1036.44 C 686.553 1030.09 683.239 1010.45 692.689 1010.08 C 770.46 1006.22 828.959 1032.86 817.287 924.657 C 809.789 855.145 689.874 903.483 686.613 879.551 C 679.479 827.206 711.761 747.919 621.508 753.739 C 615.996 754.095 608.727 753.529 603.328 754.276 C 559.384 762.286 559.395 784.117 559.243 822.362 C 559.166 841.754 560.206 861.806 559.336 881.019 C 558.841 888.68 537.87 886.253 532.987 886.164 C 521.867 885.991 510.745 885.876 499.623 885.819 C 453.858 885.605 430.872 889.776 428.164 941.802 C 425.256 997.655 447.209 1012.98 500.304 1010.03 C 516.264 1009.14 536.343 1009.63 552.598 1010.05 C 562.752 1011.47 559.824 1029.49 559.976 1036.78 C 560.533 1063.48 557.359 1093.77 562.219 1119.77 C 567.797 1149.61 620.384 1149.49 643.763 1146.16 Z M 1106.87 1113.42 C 1097.48 1114.14 1084.63 1114.81 1076.81 1120.58 C 1055.11 1136.55 1059.78 1180.37 1090.46 1182.97 C 1110.46 1184.67 1134.76 1186.24 1154.75 1184.39 C 1179.26 1183.45 1196.91 1177.65 1196.08 1147.87 C 1194.81 1102.09 1137.94 1114.95 1107.85 1113.31 C 1107.52 1113.35 1107.19 1113.38 1106.87 1113.42 Z M 1415.61 733.059 C 1378.25 737.781 1351.9 772.046 1356.93 809.363 C 1361.96 846.679 1396.45 872.743 1433.72 867.404 C 1470.56 862.127 1496.26 828.133 1491.28 791.25 C 1486.31 754.368 1452.53 728.392 1415.61 733.059 Z M 897.274 1113.43 C 884.391 1114.43 869.937 1115.03 860.729 1125.51 C 848.961 1138.9 848.827 1165.43 864.038 1176.53 C 876.88 1185.9 895.349 1184.14 910.398 1184.75 C 920.942 1184.97 931.735 1184.77 942.246 1184.73 C 953.353 1184.08 964.546 1183.67 974.231 1177.64 C 991.269 1167.04 991.122 1133.9 975.505 1122.27 C 959.227 1110.15 929.245 1113.66 909.675 1112.95 C 906.571 1112.84 900.037 1112.96 897.274 1113.43 Z M 1558.56 877.734 C 1520.5 882.631 1493.61 917.429 1498.46 955.489 C 1503.32 993.55 1538.08 1020.48 1576.15 1015.67 C 1614.28 1010.85 1641.26 976.02 1636.4 937.898 C 1631.54 899.777 1596.68 872.83 1558.56 877.734 Z M 1267.47 877.618 C 1229.27 882.939 1202.63 918.232 1207.97 956.429 C 1213.32 994.626 1248.62 1021.25 1286.82 1015.88 C 1324.98 1010.52 1351.58 975.25 1346.24 937.085 C 1340.9 898.92 1305.64 872.301 1267.47 877.618 Z M 1414.15 1024.23 C 1375.99 1029.48 1349.25 1064.58 1354.33 1102.76 C 1359.41 1140.94 1394.4 1167.83 1432.6 1162.91 C 1471.03 1157.97 1498.13 1122.72 1493.01 1084.3 C 1487.9 1045.89 1452.54 1018.95 1414.15 1024.23 Z"/>
</svg>