<svg xmlns="http://www.w3.org/2000/svg" xmlns:xlink="http://www.w3.org/1999/xlink" version="1.1" id="Layer_1" x="0px" y="0px" viewBox="0 0 122.88 122.88" style="enable-background:new 0 0 122.88 122.88" xml:space="preserve"><style type="text/css">.st0{fill-rule:evenodd;clip-rule:evenodd;}</style><g><path class="st0" d="M28.7,122.88h11.03v-13.4H28.7V122.88L28.7,122.88z M22.67,19.51h74.76c2.56,0,4.66,2.09,4.66,4.66v75.01 c0,2.56-2.1,4.66-4.66,4.66l-74.76,0c-2.56,0-4.66-2.1-4.66-4.66V24.16C18.01,21.6,20.1,19.51,22.67,19.51L22.67,19.51L22.67,19.51 z M42.35,41.29h35.38c1.55,0,2.81,1.27,2.81,2.81v35.12c0,1.55-1.27,2.81-2.81,2.81H42.35c-1.55,0-2.81-1.27-2.81-2.81V44.1 C39.54,42.56,40.8,41.29,42.35,41.29L42.35,41.29z M122.88,65.62v9.16h-13.4v-9.16H122.88L122.88,65.62z M122.88,48.1v9.16l-13.4,0 V48.1L122.88,48.1L122.88,48.1L122.88,48.1z M122.88,83.15v11.03h-13.4V83.15H122.88L122.88,83.15z M122.88,28.7v11.03h-13.4V28.7 H122.88L122.88,28.7z M0,65.62v9.16h13.4v-9.16H0L0,65.62z M0,48.1v9.16l13.4,0V48.1L0,48.1L0,48.1z M0,83.15v11.03h13.4V83.15H0 L0,83.15z M0,28.7v11.03h13.4V28.7H0L0,28.7z M65.62,0h9.16v13.4h-9.16V0L65.62,0L65.62,0z M48.1,0h9.16v13.4H48.1V0L48.1,0L48.1,0 z M83.15,0h11.03v13.4H83.15V0L83.15,0L83.15,0z M28.7,0h11.03v13.4H28.7V0L28.7,0L28.7,0z M65.62,122.88h9.16v-13.4h-9.16V122.88 L65.62,122.88z M48.1,122.88h9.16v-13.4H48.1V122.88L48.1,122.88z M83.15,122.88h11.03v-13.4H83.15V122.88L83.15,122.88z" fill="#7c7c7c"/></g></svg>