<?xml version="1.0" encoding="UTF-8" standalone="no"?><!DOCTYPE svg PUBLIC "-//W3C//DTD SVG 1.1//EN" "http://www.w3.org/Graphics/SVG/1.1/DTD/svg11.dtd"><svg xmlns="http://www.w3.org/2000/svg" xmlns:xlink="http://www.w3.org/1999/xlink" version="1.1" viewBox="219 233 1609 1533">
    <defs>
    </defs>
    <path transform="translate(0,0)" style="fill: rgb(124,124,124)" stroke-linecap="round" d="M 994.507 234.421 C 999.381 233.548 1020.82 233.755 1026.57 233.802 C 1096.74 234.379 1162.12 251.636 1224.69 283.266 C 1332.76 337.887 1414.55 428.12 1453.58 542.931 C 1489.05 647.249 1483.11 776.929 1433.29 875.809 C 1436.86 875.927 1440.93 876.432 1444.49 876.928 C 1563.5 893.934 1670.92 957.408 1743.23 1053.45 C 1811.72 1143.66 1840.07 1264.22 1824.41 1375.85 C 1808.22 1497.64 1743.34 1607.66 1644.61 1680.78 C 1552.01 1750.33 1431.88 1777.95 1317.72 1761.69 C 1206.15 1746.18 1105.34 1686.88 1037.58 1596.89 C 1032.54 1590.54 1029.09 1585.81 1024.59 1579.07 C 1011.13 1597.76 991.783 1620.88 975.681 1637.16 C 894.56 1719.06 784.293 1765.48 669.021 1766.26 C 549.846 1766.66 439 1723.57 354.126 1639.14 C 269.29 1554.85 221.075 1440.54 219.923 1320.96 C 219.644 1200.3 260.274 1088.52 346.518 1002.6 C 405.597 943.489 480.224 902.346 561.741 883.938 C 574.872 880.948 601.66 875.835 614.527 875.805 C 590.653 826.304 577.983 774.326 573.27 719.771 C 563.307 601.182 601.182 483.534 678.458 393.031 C 745.801 314.814 837.437 261.45 938.699 241.478 C 958.07 237.673 974.854 236.093 994.507 234.421 Z"/>
    <path transform="translate(0,0)" style="fill: rgb(69,69,69)" stroke-linecap="round" d="M 1369.63 934.424 C 1382.53 933.657 1397.35 934.728 1410.3 935.726 C 1488.66 941.674 1563.31 971.494 1624.19 1021.17 C 1703.79 1084.66 1754.01 1177.89 1763.25 1279.28 C 1773.33 1381.89 1742.36 1484.31 1677.12 1564.14 C 1608.74 1647.71 1517.56 1693.21 1410.94 1703.84 C 1367.98 1705.47 1338.47 1705.59 1295.68 1695.7 C 1217.95 1677.58 1148.55 1633.91 1098.59 1571.67 C 1084.73 1554.59 1075.41 1539.73 1063.71 1521.05 C 1066.14 1515.01 1068.94 1508.86 1071.47 1502.8 C 1114.83 1398.87 1119.39 1282.81 1084.32 1175.79 C 1076.52 1151.61 1067.08 1133.51 1057.52 1110.31 C 1111.35 1024.64 1208.47 957.944 1307.98 940.916 C 1329.07 937.307 1348.3 935.79 1369.63 934.424 Z"/>
    <path transform="translate(0,0)" style="fill: rgb(124,124,124)" stroke-linecap="round" d="M 1308.45 1128.36 C 1324.59 1127.22 1342.03 1128.83 1358.36 1127.91 C 1425.71 1124.09 1498.28 1133.95 1509.53 1214.37 C 1514.73 1251.53 1504.41 1275.05 1481.31 1304.53 C 1512.93 1325.55 1529.07 1351.89 1529.28 1390.43 C 1529.47 1425.97 1520.28 1450.19 1495.61 1475.64 C 1449.37 1517.05 1383.85 1502.73 1327.28 1505.37 C 1268.3 1508.12 1274.05 1478.33 1274.04 1432.64 L 1274.03 1353.91 L 1274.04 1228.34 C 1274.04 1206.96 1273.7 1185.54 1274.41 1164.17 C 1275.17 1141.47 1286.73 1131.35 1308.45 1128.36 Z"/>
    <path transform="translate(0,0)" style="fill: rgb(69,69,69)" stroke-linecap="round" d="M 1339.13 1336.08 C 1369.22 1336.04 1425.27 1331.08 1448.71 1352.42 C 1470.03 1371.83 1468.81 1408.97 1449.31 1430.15 C 1429.79 1446.51 1401.25 1443.87 1377.2 1443.49 C 1364.69 1443.29 1352.19 1443.21 1339.68 1443.23 C 1337.65 1413.44 1339.12 1367.06 1339.13 1336.08 Z"/>
    <path transform="translate(0,0)" style="fill: rgb(69,69,69)" stroke-linecap="round" d="M 1339.11 1189.94 C 1362.35 1189.85 1387.83 1188.43 1410.65 1191.73 C 1446 1196.84 1451.07 1242.22 1429.87 1264.9 C 1409.5 1280.8 1366.27 1276.08 1339.17 1276.04 L 1339.11 1189.94 Z"/>
    <path transform="translate(0,0)" style="fill: rgb(69,69,69)" stroke-linecap="round" d="M 652.605 934.411 C 670.608 933.055 707.867 936.118 725.77 939.168 C 835.436 957.855 924.692 1019.66 988.958 1109 C 977.666 1136.03 970.996 1148.58 961.815 1177.86 C 930.097 1279 935.244 1425.93 986.241 1520.43 C 971.952 1543.7 953.147 1569.01 934.314 1588.77 C 875.577 1649.91 798.083 1689.64 714.159 1701.66 C 696.745 1704.07 682.927 1704.38 665.444 1704.81 C 575.041 1705.32 487.484 1673.22 418.83 1614.4 C 336.188 1543.34 292.797 1447.05 284.851 1339.5 C 277.434 1240.78 309.581 1143.16 374.205 1068.16 C 429.165 1003.23 504.491 958.828 587.913 942.182 C 611.13 937.59 629.019 936.115 652.605 934.411 Z"/>
    <path transform="translate(0,0)" style="fill: rgb(124,124,124)" stroke-linecap="round" d="M 662.238 1127.45 C 702.875 1127.97 735.9 1137.01 765.324 1166.46 C 781.685 1182.83 799.55 1208.28 776.975 1228.39 C 771.875 1232.95 765.586 1235.97 758.838 1237.11 C 730.521 1241.76 719.449 1208.24 698.708 1197.65 C 619.852 1157.4 571.818 1236.47 572.93 1307.08 C 573.605 1350.02 577.92 1393.43 606.227 1425.47 C 631.858 1454.47 685.568 1454.52 711.663 1427.5 C 732.436 1406.28 733.092 1387.99 733.062 1359.99 C 714.453 1359.83 679.371 1364.65 666.967 1349.61 C 654.106 1334.03 660.12 1316.23 674.165 1304.78 C 679.146 1302.33 685.129 1300.15 691.18 1300.19 C 715.919 1301.26 744.733 1297.85 769.047 1300.93 C 802.522 1305.16 795.167 1343.37 796.028 1365.04 C 797.59 1404.31 790.695 1432.01 764.232 1461.66 C 737.915 1491.14 704.321 1505.18 665.242 1507.19 C 563.567 1512.46 510.753 1423.16 508.457 1331.25 C 506.998 1272.81 515.878 1216.53 557.149 1171.14 C 586.744 1138.6 619.677 1129.04 662.238 1127.45 Z"/>
    <path transform="translate(0,0)" style="fill: rgb(69,69,69)" stroke-linecap="round" d="M 993.45 298.408 C 1001.52 297.585 1016.48 297.75 1024.61 297.782 C 1084.26 297.61 1143.09 311.684 1196.2 338.835 C 1397.79 440.667 1468.12 672.095 1366.96 872.017 C 1358.7 872.591 1350.45 873.219 1342.2 873.9 C 1227.86 883.557 1114.07 943.283 1040.2 1030.78 C 1034.99 1036.62 1029.51 1044.23 1024.71 1050.55 C 1016.35 1039.25 1009.3 1030.44 999.765 1020.01 C 917.889 931.319 804.334 878.505 683.753 873.034 C 657.74 827.213 644.304 773.035 638.443 720.995 C 614.43 507.785 779.778 316.778 993.45 298.408 Z"/>
    <path transform="translate(0,0)" style="fill: rgb(124,124,124)" stroke-linecap="round" d="M 926.264 488.285 C 947.984 486.775 972.332 487.768 994.279 487.723 C 1025.47 487.657 1059.24 485.047 1087.97 498.797 C 1113.35 510.996 1132.76 532.895 1141.81 559.559 C 1160.21 612.618 1143.48 674.229 1090.79 700.409 C 1085.42 703.079 1078.9 705.041 1073.18 706.965 C 1074.94 709.223 1076.65 711.521 1078.3 713.856 C 1090.86 731.653 1103.23 752.702 1115.48 771.133 C 1124.95 786.72 1137.32 802.309 1144.82 818.846 C 1154.91 841.107 1132.03 865.395 1108.94 859.068 C 1094.17 855.022 1089.05 844.544 1081.92 832.474 C 1060.26 797.185 1031.78 750.569 1008.29 716.985 C 992.717 717.328 977.439 716.979 961.873 716.681 C 961.941 738.835 964.814 825.33 959.171 840.934 C 956.553 848.174 949.658 855.247 942.523 858.106 C 934.674 861.25 925.659 860.706 918.027 857.181 C 910.345 853.633 903.773 846.813 901.148 838.687 C 896.589 824.57 899.145 783.625 899.15 767.048 L 899.193 662.631 L 899.202 574.963 C 899.206 558.599 899.189 542.269 899.459 525.908 C 899.788 506.011 906.372 494.495 926.264 488.285 Z"/>
    <path transform="translate(0,0)" style="fill: rgb(69,69,69)" stroke-linecap="round" d="M 961.887 547.972 C 988.955 548.117 1045.37 542.478 1065.87 559.203 C 1075.91 567.389 1080.47 579.925 1081.66 592.49 C 1083.44 611.184 1080.4 626.625 1068.09 641.388 C 1050.19 658.956 1026.29 656.178 1003.1 656.094 L 961.942 656.007 L 961.887 547.972 Z"/>
    <path transform="translate(0,0)" style="fill: rgb(69,69,69)" stroke-linecap="round" d="M 1022.71 1193.74 C 1023.31 1194.34 1024.54 1196.13 1024.86 1196.94 C 1047.75 1255.6 1052.42 1322.63 1040.95 1384.4 C 1037.14 1404.9 1030.54 1425.61 1024.29 1445.35 L 1023.46 1445.61 C 1020.38 1442.27 1012.64 1412.51 1011.14 1406.41 C 997.555 1349.42 997.53 1290.05 1011.07 1233.05 C 1014.13 1220.27 1018.75 1206.35 1022.71 1193.74 Z"/>
</svg>