<?xml version="1.0" encoding="UTF-8" standalone="no"?><!DOCTYPE svg PUBLIC "-//W3C//DTD SVG 1.1//EN" "http://www.w3.org/Graphics/SVG/1.1/DTD/svg11.dtd"><svg xmlns="http://www.w3.org/2000/svg" xmlns:xlink="http://www.w3.org/1999/xlink" version="1.1" viewBox="125 218 1795 1582">
    <defs>
    </defs>
    <path transform="translate(0,0)" style="stroke-width: 0; fill: rgb(124,124,124)" vector-effect="non-scaling-stroke" stroke-linecap="round" d="M1197.12 218.93C1208.37 216.432 1248.56 218.264 1262.16 218.298L1392.65 218.303 1610.76 218.289 1672.65 218.292C1690.71 218.306 1709.17 217.845 1727.01 220.569 1756.1 225.23 1783.53 237.216 1806.71 255.4 1842.96 283.966 1867.66 324.196 1872.35 370.363 1874.47 391.204 1873.52 422.742 1873.51 444.557L1873.47 573.504 1873.54 691.056C1873.56 745.393 1877.32 792.285 1840.84 837.968 1891.86 866.185 1920.47 920.28 1920.71 977.742L1920.61 1460.43 1920.72 1595.58C1920.76 1616.61 1921.9 1656.61 1918.63 1675.66 1913.51 1706.46 1898.91 1734.89 1876.87 1756.99 1855.34 1778.5 1827.63 1792.75 1797.61 1797.74 1777 1801.05 1720.62 1799.81 1696.97 1799.81L1510.8 1799.81 858.927 1799.84 468.336 1799.79 331.098 1799.83C309.188 1799.82 278.957 1800.72 257.531 1799.29 220.858 1796.66 186.773 1779.43 162.905 1751.46 115.737 1697.13 126.241 1630.73 126.25 1563.72L126.278 1358.52 126.207 1093.6 126.192 1008.86C126.194 992.893 126.015 977.257 126.695 961.193 129.646 891.569 184.014 831.723 252.864 821.787 272.613 818.937 292.693 819.644 312.716 819.643L386.81 819.662 635.961 819.646 924.554 819.647 1013.47 819.636C1028.08 819.626 1050.72 818.939 1064.82 820.218 1034.5 770.646 1039.51 730.582 1039.53 675.177L1039.55 557.111 1039.51 438.898C1039.5 414.45 1038.26 380.785 1042.67 357.608 1048.19 327.931 1061.45 300.239 1081.11 277.333 1111.4 242.397 1150.98 222.12 1197.12 218.93ZM1800.16 1727.07C1823.58 1718.33 1841.39 1702.79 1851.75 1679.85 1856.12 1670.24 1858.65 1659.89 1859.21 1649.35 1859.9 1638.1 1859.45 1623.2 1859.42 1611.71L1859.26 1545.72 1859.11 1342 1859.1 1100.79C1859.15 1059.66 1859.31 1018.15 1859.11 977.006 1859.06 967.48 1856.56 956.123 1853.06 947.263 1839.47 912.809 1816.64 899.015 1784.88 884.445 1766.48 890.991 1741.93 901.175 1723.18 902.749 1696.19 905.015 1665.88 904.119 1638.56 904.119L1486.8 904.108 1289.41 904.121C1252.81 904.135 1215.28 904.569 1178.71 903.189 1167 902.747 1148.96 897.598 1137.76 893.891 1128.9 890.958 1116.9 883.861 1108.1 883.713 1088.69 883.386 1069.02 883.516 1049.6 883.516L940.231 883.53 602.158 883.573 375.176 883.546 306.588 883.487C297.392 883.474 280.17 882.922 271.793 883.796 248.402 887.837 230.023 895.315 213.153 912.603 183.257 943.238 187.448 979.371 187.458 1018.55L187.512 1108.82 187.549 1389.34 187.5 1573.33 187.466 1622.91C187.457 1634.89 186.955 1651.02 189.165 1662.48 193.611 1684.74 206.651 1704.35 225.457 1717.06 238.004 1725.36 252.51 1730.23 267.526 1731.17 301.364 1733.09 347.55 1731.55 382.585 1731.53L600.104 1731.51 1279.93 1731.52 1634.87 1731.51 1726.08 1731.59C1745.91 1731.61 1776.19 1732.78 1794.51 1728.59 1796.42 1728.17 1798.3 1727.66 1800.16 1727.07ZM1716.27 839.38C1746.29 834.978 1773.36 818.896 1791.58 794.633 1813.7 764.856 1813.65 744.523 1812.8 709.718 1812.63 698.4 1812.65 687.081 1812.88 675.765L1813.56 472.832 1813.59 416.574C1813.6 403.388 1814.23 388.301 1812.15 375.276 1804.75 328.814 1762.71 288.441 1716.09 282.499 1704.05 280.964 1689.94 281.505 1677.76 281.515L1620.02 281.558 1424.99 281.595 1270.2 281.6C1256.85 281.589 1210.77 280.534 1200.13 281.881 1168.64 285.91 1143.08 299.304 1123.4 324.702 1111.79 339.644 1104.1 357.256 1101.04 375.932 1098.47 392.588 1099.49 429.398 1099.5 447.923L1099.58 576.029 1099.48 684.799C1099.45 703.978 1098.28 729.129 1100.67 747.692 1106.47 792.722 1146.59 833.491 1191.53 839.903 1206.67 842.029 1222.87 841.542 1238.06 841.543L1297.45 841.548 1498.64 841.543 1641.39 841.551C1660.21 841.553 1697.24 843.291 1714.64 839.708L1716.27 839.38Z"/>
    <path transform="translate(0,0)" style="stroke-width: 0; fill: rgb(124,124,124)" vector-effect="non-scaling-stroke" stroke-linecap="round" d="M628.549 1445.76C654.437 1444.38 687.136 1445.25 713.598 1445.26L867.897 1445.31 1259.75 1445.31C1278.64 1445.31 1415.92 1443.26 1424.74 1446.66 1431.31 1449.19 1438.03 1455.11 1440.75 1461.7 1442.55 1466.08 1443.01 1471.6 1443.29 1476.32 1444.73 1500.13 1443.5 1524.71 1443.46 1548.6 1443.43 1567.06 1444.7 1586.24 1443.32 1604.59 1442.92 1609.95 1441.97 1615.17 1439.58 1620.03 1435.77 1627.78 1429.19 1631.69 1421.28 1634.43 1412.73 1636.47 1367.74 1635.61 1356.21 1635.59L1217.39 1635.58 645.921 1635.56C640.798 1635.53 633.22 1635.81 628.49 1634.39 615.833 1630.62 607.894 1619.33 607.717 1606.21 607.179 1562.29 607.585 1518.29 607.558 1474.36 607.549 1459.93 616.145 1451.2 628.549 1445.76ZM669.607 1570.69L1370.96 1570.84 1381.53 1571.16C1381.51 1552.49 1380.69 1527.48 1381.58 1509.51L907.815 1509.54 750.585 1509.54C725.077 1509.54 694.956 1510.31 669.724 1509.42 670.137 1529.84 670.098 1550.27 669.607 1570.69Z"/>
    <path transform="translate(0,0)" style="stroke-width: 0; fill: rgb(124,124,124)" vector-effect="non-scaling-stroke" stroke-linecap="round" d="M1454.59 1209.76C1497.56 1208.1 1548.13 1209.47 1591.64 1209.43L1657.96 1209.35C1682.68 1209.34 1722.23 1202.39 1722.29 1238.84 1722.36 1277.06 1722.87 1315.39 1722.19 1353.59 1721.91 1369.5 1714.48 1378.13 1699.73 1382.79 1692.22 1384.05 1675.57 1383.65 1667.35 1383.66L1613.48 1383.68 1515.57 1383.68C1497.99 1383.67 1480.15 1384.25 1462.6 1383.42 1459.04 1383.26 1455.88 1382.81 1452.53 1381.56 1444.71 1378.66 1439.13 1373.79 1435.92 1366.11 1434.55 1362.83 1434 1359.57 1433.74 1356.04 1432.57 1340.29 1431.97 1234.3 1435.7 1225.68 1439.57 1216.73 1445.92 1213.09 1454.59 1209.76ZM1493.61 1322.4L1602.77 1322.3C1621.55 1322.3 1644.04 1321.74 1662.41 1322.45 1662.34 1304.12 1661.83 1283.68 1662.48 1265.51L1554.06 1265.54C1534.8 1265.54 1512.68 1266.03 1493.64 1265.31 1493.53 1284.34 1493.51 1303.37 1493.61 1322.4Z"/>
    <path transform="translate(0,0)" style="stroke-width: 0; fill: rgb(124,124,124)" vector-effect="non-scaling-stroke" stroke-linecap="round" d="M342.326 1209.72C420.266 1206.93 500.613 1211.17 578.787 1209.48 611.408 1208.77 608.025 1243.08 607.461 1265.58 606.84 1295.19 608.567 1325.04 607.433 1354.62 606.881 1369.02 598.033 1378.56 584.74 1382.52 575.322 1384.96 349.574 1385 341.795 1382.09 333.895 1379.14 328.075 1374.84 324.455 1367.06 322.899 1363.72 322.334 1360.87 322.012 1357.22 320.594 1341.09 320.031 1236.52 323.896 1226.67 327.308 1217.98 334.051 1213.3 342.326 1209.72ZM383.397 1322.4C437.62 1322.04 493.779 1323.18 547.733 1322.15 547.496 1303.29 547.436 1284.42 547.554 1265.56 495.027 1265.54 435.44 1266.93 383.528 1265.49 383.522 1283.93 383.935 1304.1 383.397 1322.4Z"/>
    <path transform="translate(0,0)" style="stroke-width: 0; fill: rgb(124,124,124)" vector-effect="non-scaling-stroke" stroke-linecap="round" d="M341.686 1445.66C367.722 1444.97 502.933 1442.62 517.934 1448.11 524.326 1450.44 528.547 1455.96 531.021 1462.13 532.129 1464.9 532.971 1467.93 533.24 1470.9 535.025 1490.65 533.579 1511.82 533.59 1531.69 533.605 1557.09 534.822 1583.18 533.301 1608.51 533.102 1611.83 532.759 1615.23 531.297 1618.26 526.691 1627.83 519.379 1631.77 509.743 1634.93 500.857 1637.53 437.684 1635.45 423.337 1635.46 399.645 1635.47 375.434 1636.75 351.808 1635.65 346.893 1635.43 341.866 1634.74 337.231 1633.03 330.771 1630.65 325.242 1624.8 322.615 1618.5 320.975 1614.56 320.297 1610.4 319.984 1606.17 318.64 1587.99 317.848 1472.47 322.394 1462.21 326.199 1453.62 333.147 1448.89 341.686 1445.66ZM381.653 1570.53C409.787 1570.48 444.48 1569.5 472.275 1570.63 472.303 1550.7 471.936 1529.35 472.487 1509.54 442.348 1509.56 411.669 1509.87 381.573 1509.49L381.653 1570.53Z"/>
    <path transform="translate(0,0)" style="stroke-width: 0; fill: rgb(124,124,124)" vector-effect="non-scaling-stroke" stroke-linecap="round" d="M1536.85 1445.75C1558.86 1444.98 1699.09 1442.68 1710.75 1447.63 1717.97 1450.7 1723.21 1456.67 1725.72 1464.06 1729.14 1474.11 1728.52 1588.86 1727.24 1605.7 1726.88 1610.39 1726.38 1615.36 1724.23 1619.61 1720.04 1627.89 1713.27 1631.78 1704.73 1634.6 1695.27 1637.12 1542.58 1636.47 1535.23 1633.89 1527.77 1631.26 1521.7 1625.68 1518.46 1618.46 1516.88 1614.95 1516.1 1611.22 1515.79 1607.41 1514.35 1589.81 1514.01 1470.89 1518.19 1461.19 1521.77 1452.87 1528.78 1448.9 1536.85 1445.75ZM1574.41 1570.58C1586.4 1570.5 1661.72 1571.76 1666.66 1570.12 1666.19 1552.78 1665.68 1526.22 1667.94 1509.48 1637.26 1509.53 1604.97 1510.06 1574.46 1509.46 1574.59 1529.84 1574.57 1550.21 1574.41 1570.58Z"/>
    <path transform="translate(0,0)" style="stroke-width: 0; fill: rgb(124,124,124)" vector-effect="non-scaling-stroke" stroke-linecap="round" d="M698.519 1209.71C716.96 1209.03 834.799 1207.22 844.559 1211.62 851.199 1214.61 856.595 1220.86 858.718 1227.8 861.928 1238.31 861.322 1338.78 860.064 1355.17 859.709 1359.8 859.231 1364.53 856.968 1368.67 852.639 1376.57 846.078 1380.12 837.714 1382.71 825.976 1385.99 780.794 1383.52 765.987 1383.51 747.377 1383.5 728.419 1384.62 709.865 1383.63 704.949 1383.37 699.917 1382.62 695.288 1380.89 688.64 1378.42 682.648 1372.59 679.773 1366.12 675.526 1356.56 676.735 1253.67 677.812 1237.98 678.112 1233.61 678.453 1228.72 680.256 1224.68 683.65 1217.09 691.125 1212.63 698.519 1209.71ZM735.53 1322.4C744.234 1322.4 797.646 1323.19 801.929 1321.43L802.209 1319.49C801.81 1302.75 801.558 1282.21 801.965 1265.49 783.32 1265.5 753.241 1266.46 735.496 1265.39L735.53 1322.4Z"/>
    <path transform="translate(0,0)" style="stroke-width: 0; fill: rgb(124,124,124)" vector-effect="non-scaling-stroke" stroke-linecap="round" d="M1204.74 1209.74C1226.36 1209.13 1334.35 1207.02 1347.71 1211.67 1353.04 1213.53 1358.49 1219.48 1360.61 1224.63 1364.54 1234.14 1363.62 1336.06 1362.6 1352.81 1362.3 1357.79 1361.9 1363.42 1359.93 1368.03 1356.47 1376.12 1349.08 1379.88 1341.45 1383.13 1322.5 1385.17 1301.89 1383.68 1282.79 1383.71 1260.3 1383.73 1236.99 1385.01 1214.58 1383.42 1209.21 1383.03 1202.78 1382.26 1197.95 1379.84 1192.02 1376.88 1186.88 1370 1184.87 1363.78 1182.12 1355.23 1182.66 1248.08 1183.79 1233.34 1184.08 1229.65 1184.59 1226.83 1186.35 1223.56 1190.45 1215.98 1196.75 1212.29 1204.74 1209.74ZM1241.48 1322.38C1248.53 1322.39 1301.88 1322.96 1304.79 1321.6L1305.06 1321.15C1304.7 1305.46 1304.46 1280.91 1305.52 1265.53L1241.49 1265.52C1241.51 1284.16 1241.86 1303.84 1241.48 1322.38Z"/>
    <path transform="translate(0,0)" style="stroke-width: 0; fill: rgb(124,124,124)" vector-effect="non-scaling-stroke" stroke-linecap="round" d="M952.364 1209.72C978.359 1208.75 1004.56 1209.37 1030.58 1209.36 1047.54 1209.35 1065.22 1208.27 1082.09 1209.6 1086.77 1209.97 1092.13 1210.63 1096.38 1212.71 1101.74 1215.33 1106.48 1221.24 1108.4 1226.83 1112.14 1237.68 1111.45 1336.69 1110.12 1353.21 1109.69 1358.54 1109.14 1364.57 1106.62 1369.35 1102.75 1376.65 1095.33 1380.51 1087.76 1382.91 1080.91 1384.44 1033.98 1383.64 1024.37 1383.48 1006.08 1383.19 981.143 1384.46 963.416 1383.69 959.201 1383.53 955.022 1382.85 950.978 1381.65 943.728 1379.43 937.752 1374.69 934.313 1367.85 932.718 1364.67 932.297 1361.68 932.018 1358.18 930.654 1341.13 929.716 1235.74 933.81 1225.4 937.114 1217.06 944.46 1212.94 952.364 1209.72ZM989.534 1322.37C1010.08 1322.36 1032.64 1321.9 1053.02 1322.38 1051.71 1307.3 1052.54 1281.42 1052.62 1265.62 1034.73 1265.58 1006.7 1266.34 989.547 1265.38L989.534 1322.37Z"/>
    <path transform="translate(0,0)" style="stroke-width: 0; fill: rgb(124,124,124)" vector-effect="non-scaling-stroke" stroke-linecap="round" d="M836.419 972.785C836.815 972.738 837.21 972.691 837.605 972.644 872.644 972.12 908.094 972.673 943.085 972.45 966.795 972.299 988.507 971.457 989.501 1001.75 990.522 1032.89 989.48 1063.71 989.917 1094.82 990.025 1120.82 992.737 1144.92 958.75 1145.74 928.415 1146.51 897.776 1145.55 867.404 1146.15 852.989 1146.43 834.252 1147.79 821.704 1140.31 817.686 1137.91 812.885 1128.46 811.949 1123.87 810.084 1082.05 810.688 1039.32 811.754 997.471 812.131 982.665 822.598 974.859 836.419 972.785ZM869.775 1085.53L930.263 1085.52C930.844 1067.71 929.995 1049.63 930.645 1031.54 910.898 1031.54 889.421 1031.91 869.799 1031.49 870.88 1045.82 870.414 1070.89 869.775 1085.53Z"/>
    <path transform="translate(0,0)" style="stroke-width: 0; fill: rgb(124,124,124)" vector-effect="non-scaling-stroke" stroke-linecap="round" d="M588.577 972.643C630.781 970.621 676.729 973.191 719.204 973.158 731.756 973.148 743.13 985.139 743.213 997.79 743.487 1039.88 744.851 1082.8 742.513 1124.81 741.678 1139.06 726.952 1145.3 713.75 1146.03L633.823 1146.04C619.902 1146.06 606.315 1146.24 592.345 1145.55 581.649 1145.01 567.713 1138.04 566.511 1126.14 564.612 1107.34 565.534 1086.84 565.451 1067.81 565.853 1043.79 564.625 1019.54 566.181 995.575 567.042 982.312 576.504 975.283 588.577 972.643ZM623.518 1085.52L684.539 1085.49C684.419 1067.52 684.406 1049.54 684.499 1031.56 665.644 1031.55 642.077 1032.12 623.565 1031.45L623.518 1085.52Z"/>
    <path transform="translate(0,0)" style="stroke-width: 0; fill: rgb(124,124,124)" vector-effect="non-scaling-stroke" stroke-linecap="round" d="M343.793 972.631C383.786 970.322 428.536 973.377 468.862 972.855 498.252 972.474 496.055 1003.91 495.612 1024.49 494.932 1056.12 496.755 1090.01 494.862 1121.79 493.68 1142.28 478.586 1145.51 461.75 1146.01 424.666 1147.61 384.678 1145.24 347.367 1145.64 336.426 1145.76 321.361 1138.1 320.645 1125.82 318.197 1083.78 319.554 1040.49 319.921 998.271 320.06 983.342 330.768 975.342 343.793 972.631ZM378.016 1085.58C387.873 1085.55 428.923 1086.8 435.876 1084.92L436.359 1084.27C435.362 1067.88 436.055 1048.18 436.248 1031.52L378.279 1031.54C378.344 1048.97 378.807 1068.31 378.016 1085.58Z"/>
    <path transform="translate(0,0)" style="stroke-width: 0; fill: rgb(124,124,124)" vector-effect="non-scaling-stroke" stroke-linecap="round" d="M1085.65 972.774C1096.42 971.95 1109.23 972.408 1120.18 972.451 1150.47 972.57 1180.45 971.953 1210.74 972.815 1218.63 971.501 1234.49 981.582 1235.29 990.774 1238.46 1027.2 1235.91 1070.14 1236.69 1106.48 1237.23 1131.5 1231.91 1144.36 1206.32 1146.28 1166.78 1145.4 1127.1 1146.87 1087.61 1145.53 1057.04 1143.86 1060.38 1113.87 1060.7 1091.42 1061.16 1059.73 1059.73 1027.14 1061.96 995.551 1062.91 982.051 1072.73 974.705 1085.65 972.774ZM1118.04 1085.53L1176.33 1085.48C1178.51 1082.51 1177.58 1038.69 1177.55 1031.61L1117.75 1031.54C1118.74 1049.37 1117.17 1068.56 1118.04 1085.53Z"/>
    <path transform="translate(0,0)" style="stroke-width: 0; fill: rgb(124,124,124)" vector-effect="non-scaling-stroke" stroke-linecap="round" d="M1328.04 972.702C1338.16 971.809 1351.93 972.449 1362.46 972.44 1391.61 972.502 1422.23 972.081 1451.18 972.739 1463.55 973.021 1477.97 981.781 1478.26 994.331 1479.26 1036.95 1479.41 1080.96 1478.09 1123.61 1477.74 1134.81 1465.62 1143.67 1455.75 1145.49 1444.16 1146.66 1429.69 1145.95 1417.78 1145.94 1388.6 1145.83 1358.55 1146.54 1329.48 1145.45 1317.9 1145.02 1304.37 1136.08 1304.09 1124.44 1303.07 1081.68 1302.79 1037.85 1304.29 995.1 1304.76 981.896 1316.41 974.502 1328.04 972.702ZM1361.52 1085.6L1419.52 1085.48 1419.66 1031.64 1361.72 1031.47C1361.51 1049.51 1361.45 1067.56 1361.52 1085.6Z"/>
    <path transform="translate(0,0)" style="stroke-width: 0; fill: rgb(124,124,124)" vector-effect="non-scaling-stroke" stroke-linecap="round" d="M1142.23 473.783C1149.6 473.539 1162.99 472.351 1169.42 475.323 1175.43 479.233 1179.62 492.982 1181.72 499.186 1188.73 519.959 1197.4 540.299 1204.01 561.084 1207.71 547.635 1228.07 488.416 1235.75 478.99 1239.18 474.778 1242.2 474.071 1247.44 473.581 1255.03 472.87 1268.18 472.131 1274.12 477.484 1276.91 479.993 1276.92 483.791 1277.22 487.369 1279.23 511.822 1277.71 537.637 1277.72 562.25 1277.73 587.83 1279.16 614.436 1277.31 639.883 1277.03 643.658 1276.93 649.954 1274.18 652.659 1270.55 656.216 1265.21 657.007 1260.34 657.2 1254.99 657.413 1246.35 657.262 1242.58 652.962 1237.01 646.607 1239.51 622.98 1239.55 614 1239.49 594.935 1239.55 575.87 1239.74 556.805 1234.76 570.08 1215.92 652.436 1187.08 606.657 1181.88 598.397 1171.96 566.129 1168.53 555.474 1170.15 585.541 1169.62 616.112 1169.42 646.248 1169.94 661.582 1133.81 659.067 1133.07 649.858 1129.27 601.325 1132.66 551.233 1131.49 502.303 1131.15 488.051 1128.9 481.124 1142.23 473.783Z"/>
    <path transform="translate(0,0)" style="stroke-width: 0; fill: rgb(124,124,124)" vector-effect="non-scaling-stroke" stroke-linecap="round" d="M1712.23 471.669C1722.22 471.339 1732.45 470.555 1742.05 473.65 1786.02 487.819 1785.1 537.57 1784.43 574.312 1783.72 612.93 1777.14 646.257 1735.51 657.036 1653.53 667.355 1660.88 579.552 1665.21 525.488 1667.38 498.331 1686.53 478.402 1712.23 471.669ZM1725.56 617.984C1747.1 612.661 1744.31 584.103 1744.68 566.438 1745.04 549.514 1746.84 514.309 1724.86 510.758 1693.83 514.073 1705.26 568.132 1704.1 589.921 1703.81 595.451 1707.78 609.015 1711.88 612.904 1715.98 616.787 1720.09 617.383 1725.56 617.984Z"/>
    <path transform="translate(0,0)" style="stroke-width: 0; fill: rgb(124,124,124)" vector-effect="non-scaling-stroke" stroke-linecap="round" d="M1550.03 473.715C1568.21 473.247 1597.43 471.96 1614.84 474.272 1661.96 480.526 1664.34 559.785 1628.94 582.914 1635.3 598.102 1655.15 636.334 1653.02 650.057 1652.26 654.955 1622.94 666.845 1612.56 645.096 1605.63 629.95 1596.96 606.694 1591.1 590.893 1586.69 590.709 1584.82 590.384 1580.44 589.572 1580.28 604.233 1580.81 619.091 1580.55 633.826 1580.22 653.192 1574.66 658.956 1554.89 657.077 1548.85 656.503 1545.79 655.062 1542.04 650.378 1540.87 646 1540.31 640.477 1540.29 635.905 1540.21 590.877 1540.24 545.819 1540.23 500.789 1540.23 488.09 1537.97 480.873 1550.03 473.715ZM1580.3 557.218C1589.66 557.123 1599.36 558.157 1606.77 551.977 1610.57 545.707 1611.88 541.9 1612.12 534.538 1612.99 508.333 1598.42 512.165 1580.32 511.417L1580.3 557.218Z"/>
    <path transform="translate(0,0)" style="stroke-width: 0; fill: rgb(124,124,124)" vector-effect="non-scaling-stroke" stroke-linecap="round" d="M1336.19 473.731C1347.18 473.403 1360.22 471.593 1369.14 477.871 1375.03 486.943 1411.47 638.005 1411.22 650.761 1407.23 659.701 1385.81 657.458 1377.78 655.025 1372.66 643.742 1371.16 625.593 1368.04 619.236L1365.75 618.645 1332.05 618.646C1328.45 628.33 1327.6 652.93 1318.09 655.825 1305.71 659.596 1284.21 658.392 1288.75 639.603 1301.44 587.157 1312.46 534.992 1326.14 482.898 1327.4 478.082 1332.15 475.611 1336.19 473.731ZM1338.1 583.312L1351.5 583.54C1354.53 583.554 1358.59 584.012 1360.98 582.729L1360.68 581.665C1356.46 566.254 1353.89 544.711 1348.59 530.146 1345.33 548.042 1342.67 565.604 1338.1 583.312Z"/>
    <path transform="translate(0,0)" style="stroke-width: 0; fill: rgb(124,124,124)" vector-effect="non-scaling-stroke" stroke-linecap="round" d="M1462.54 471.65C1480.36 471.144 1496.71 470.188 1509.73 484.579 1518.65 494.436 1525.75 509.016 1525.96 522.412 1526.2 538.569 1501.79 535.511 1491.5 534.08 1488.78 522.701 1483.19 505.135 1468.1 511.354 1453.26 517.471 1455.86 553.673 1456.14 566.455 1456.44 580.242 1453.22 612.582 1468.61 617.422 1485.88 622.853 1489.22 606.386 1492.26 593.788 1500.31 593.24 1506.82 593.498 1514.8 594.186 1533.36 599.485 1524.31 617.735 1519.24 630.803 1514.18 641.177 1505.05 651.975 1493.74 654.811 1433.82 669.363 1414.75 630.547 1417.47 578.299 1419.71 535.314 1406.87 486.925 1462.54 471.65Z"/>
</svg>