<svg xmlns="http://www.w3.org/2000/svg" shape-rendering="geometricPrecision" text-rendering="geometricPrecision" image-rendering="optimizeQuality" fill-rule="evenodd" clip-rule="evenodd" viewBox="0 0 279 512.01"><path fill-rule="nonzero" d="M122.89 495.31h33.22c29.19 0 55.74-11.95 74.99-31.2 19.24-19.25 31.2-45.8 31.2-74.99V275.56H16.7v113.56c0 29.19 11.96 55.74 31.2 74.99 19.25 19.25 45.8 31.2 74.99 31.2zm5.23-412.59V64.69c0-9.7-1.53-17.63-4.22-23.92-3.06-7.16-7.7-12.31-13.31-15.63-5.76-3.4-12.72-5.02-20.22-5.02-8.35 0-17.26 1.99-25.9 5.68-5.1 2.16-11-.21-13.16-5.31-2.17-5.1.21-10.99 5.3-13.16C67.77 2.56 79.38 0 90.37 0c10.96 0 21.43 2.52 30.44 7.85 9.17 5.43 16.7 13.7 21.56 25.06 3.74 8.77 5.88 19.33 5.88 31.78v18.03h7.86c33.8 0 64.53 13.82 86.8 36.09 22.27 22.27 36.09 53 36.09 86.8v183.51c0 33.8-13.82 64.53-36.09 86.8-22.27 22.27-53 36.09-86.8 36.09h-33.22c-33.8 0-64.53-13.82-86.8-36.09C13.82 453.65 0 422.92 0 389.12V205.61c0-33.8 13.82-64.53 36.09-86.8 22.27-22.27 53-36.09 86.8-36.09h5.23zM262.3 258.86v-53.25c0-29.19-11.96-55.74-31.2-74.99-19.25-19.25-45.8-31.2-74.99-31.2h-6.55v50.99c7.28 3.71 12.3 11.29 12.3 19.94v35.75c0 8.64-5.03 16.22-12.3 19.93v32.83H262.3zm-132.86 0v-32.82c-7.26-3.7-12.3-11.26-12.3-19.94v-35.75c0-8.68 5.02-16.25 12.3-19.94V99.42h-6.55c-29.19 0-55.74 11.95-74.99 31.2-19.24 19.25-31.2 45.8-31.2 74.99v53.25h112.74z" fill="#7c7c7c"/></svg>