<?xml version="1.0" encoding="UTF-8" standalone="no"?><!DOCTYPE svg PUBLIC "-//W3C//DTD SVG 1.1//EN" "http://www.w3.org/Graphics/SVG/1.1/DTD/svg11.dtd"><svg xmlns="http://www.w3.org/2000/svg" xmlns:xlink="http://www.w3.org/1999/xlink" version="1.1" viewBox="389 391 1261 1265">
    <defs>
    </defs>
    <path transform="translate(0,0)" style="fill: rgb(124,124,124)" stroke-linecap="round" d="M 925.81 1088.77 C 942.057 1096.75 958.82 1119.11 960.142 1136.74 C 961.828 1159.21 961.017 1186.69 961.025 1209.43 L 961.052 1358.56 L 961.047 1520.12 C 961.044 1545.98 961.947 1576.27 959.712 1601.56 C 956.818 1618.01 945.735 1633.57 932.682 1642.79 C 910.47 1658.48 888.538 1656.01 862.701 1656.17 L 790.275 1656.13 L 581.207 1656.06 C 556.499 1655.97 531.766 1656.54 507.066 1656.17 C 468.212 1655.6 426.811 1663.63 401.549 1626.47 C 387.433 1605.71 389.952 1588.69 389.971 1564.97 L 390.062 1511.12 L 390.027 1343.63 L 390.051 1206.88 C 389.996 1189.53 388.751 1145.24 391.565 1131.62 C 394.916 1114.69 404.998 1099.85 419.5 1090.49 C 426.661 1085.81 439.429 1081.45 447.788 1081.24 C 478.583 1080.48 510.374 1080.93 541.161 1080.93 L 729.342 1080.87 L 849.396 1080.85 C 860.716 1080.85 897.517 1080.14 906.082 1081.91 C 913.52 1082.97 919.137 1085.34 925.81 1088.77 Z"/>
    <path transform="translate(0,0)" style="fill: rgb(124,124,124)" stroke-linecap="round" d="M 925.81 1088.77 C 942.057 1096.75 958.82 1119.11 960.142 1136.74 C 961.828 1159.21 961.017 1186.69 961.025 1209.43 L 961.052 1358.56 L 961.047 1520.12 C 961.044 1545.98 961.947 1576.27 959.712 1601.56 C 956.818 1618.01 945.735 1633.57 932.682 1642.79 C 910.47 1658.48 888.538 1656.01 862.701 1656.17 L 790.275 1656.13 L 581.207 1656.06 C 556.499 1655.97 531.766 1656.54 507.066 1656.17 C 468.212 1655.6 426.811 1663.63 401.549 1626.47 C 387.433 1605.71 389.952 1588.69 389.971 1564.97 L 390.062 1511.12 L 390.027 1343.63 L 390.051 1206.88 C 389.996 1189.53 388.751 1145.24 391.565 1131.62 C 394.916 1114.69 404.998 1099.85 419.5 1090.49 C 426.661 1085.81 439.429 1081.45 447.788 1081.24 C 478.583 1080.48 510.374 1080.93 541.161 1080.93 L 729.342 1080.87 L 849.396 1080.85 C 860.716 1080.85 897.517 1080.14 906.082 1081.91 C 890.071 1084.33 869.079 1083.85 852.767 1083.86 L 780.784 1083.86 L 536.804 1083.92 L 478.076 1083.7 C 450.356 1083.56 424.925 1081.1 405.831 1105.89 C 393.706 1121.63 391.92 1136.91 391.891 1156.2 C 391.856 1179.18 391.866 1202.25 391.874 1225.26 L 391.927 1391.65 L 391.912 1527.72 C 391.897 1544.87 392.119 1562.23 391.913 1579.36 C 391.625 1603.32 397.759 1625.09 418.067 1639.97 C 427.79 1647.21 439.254 1651.75 451.297 1653.13 C 466.612 1654.78 506.658 1653.67 524.182 1653.75 L 688.235 1653.8 L 829.335 1653.78 C 852.814 1653.78 879.835 1655.19 902.819 1652.33 C 930.969 1648.82 955.707 1623.31 957.304 1594.83 C 958.87 1566.91 958.352 1539.37 958.303 1511.58 L 958.247 1365.18 L 958.445 1220.99 C 958.505 1192.14 959.5 1161.09 956.184 1132.43 C 954.506 1117.92 944.264 1106.05 934.076 1096.56 C 931.453 1094.1 927.794 1091.64 925.81 1088.77 Z"/>
    <path transform="translate(0,0)" style="fill: rgb(124,124,124)" stroke-linecap="round" d="M 416.871 405.427 C 425.677 398.116 440.388 393.041 451.779 392.613 C 475.517 391.722 499.857 392.181 523.615 392.206 L 664.605 392.215 L 820.327 392.214 C 846.312 392.219 873.269 391.769 899.206 392.709 C 911.657 393.16 928.219 399.601 937.07 408.667 C 950.103 415.898 960.205 439.506 960.609 454.187 C 961.353 481.218 960.927 508.432 960.893 535.496 L 960.904 694.182 L 960.92 840.266 C 960.939 860.49 961.285 880.878 960.892 901.04 C 960.467 922.763 948.442 943.78 929.849 955.002 C 921.205 960.218 910.801 965.031 900.579 965.475 C 873.912 966.634 847.028 966.059 820.317 966.054 L 666.312 966.047 L 524.314 966.116 C 501.889 966.126 479.273 966.426 456.899 965.805 C 434.844 965.192 411.708 953.462 400.441 934.127 C 395.199 925.131 390.732 915.493 390.417 904.88 C 389.667 879.579 390.098 854.13 390.152 828.804 L 390.145 685.255 L 390.167 538.307 C 390.09 510.95 389.638 483.237 390.229 455.884 C 390.62 437.809 400.756 414.803 416.871 405.427 Z"/>
    <path transform="translate(0,0)" style="fill: rgb(124,124,124)" stroke-linecap="round" d="M 416.871 405.427 C 425.677 398.116 440.388 393.041 451.779 392.613 C 475.517 391.722 499.857 392.181 523.615 392.206 L 664.605 392.215 L 820.327 392.214 C 846.312 392.219 873.269 391.769 899.206 392.709 C 911.657 393.16 928.219 399.601 937.07 408.667 C 929.664 406.88 916.234 395.82 906.025 395.575 C 889.409 395.177 871.655 395.999 855.011 396.041 L 728.532 395.976 L 531.824 395.947 C 515.488 396.039 499.151 395.991 482.816 395.802 C 471.208 395.585 459.497 394.953 447.904 395.56 C 436.786 396.142 427.267 402.865 416.871 405.427 Z"/>
    <path transform="translate(0,0)" style="fill: rgb(124,124,124)" stroke-linecap="round" d="M 1144.98 1081.33 C 1154.84 1080.09 1192.35 1080.99 1203.94 1081 L 1331.71 1081 L 1504.93 1081.02 C 1527.45 1081.01 1570.35 1079.59 1590.72 1081.29 C 1601.53 1082.29 1611.92 1085.99 1620.93 1092.04 C 1641.51 1105.68 1650.28 1128.13 1649.9 1152.02 C 1649.64 1168.45 1649.91 1185.16 1649.89 1201.63 L 1649.94 1336.69 L 1650 1512.14 L 1650 1565.62 C 1649.98 1588.97 1651.74 1607.39 1637.05 1627.37 C 1623.8 1645.38 1608.79 1652.04 1587.23 1655.68 C 1550.26 1656.88 1513.72 1656.04 1476.79 1656.03 L 1301.54 1656.04 L 1205.31 1656.05 C 1176.23 1656.09 1141.95 1659.97 1116.91 1642.96 C 1102.27 1633.02 1092.29 1617.58 1089.25 1600.15 C 1087.35 1589.44 1088.1 1552.55 1088.11 1540.45 L 1088.18 1417.9 L 1088.15 1230.89 L 1088.15 1172.48 C 1088.16 1149.48 1085.69 1127.67 1100.04 1107.83 C 1111.07 1092.56 1126.65 1084.36 1144.98 1081.33 Z"/>
    <path transform="translate(0,0)" style="fill: rgb(124,124,124)" stroke-linecap="round" d="M 1155.43 966.011 C 1147.6 965.87 1137.4 963.466 1130.15 960.508 C 1113.74 953.963 1100.62 941.131 1093.72 924.868 C 1091.33 919.148 1088.5 909.807 1088.38 903.812 C 1087.85 878 1088.08 851.774 1088.08 825.947 L 1088.09 675.513 L 1088.05 530.503 C 1088.03 505.505 1087.55 480.153 1088.19 455.184 C 1089.09 420.704 1118.88 393.097 1152.87 392.312 C 1174.54 391.811 1195.96 392.232 1217.48 392.242 L 1345.22 392.217 L 1500.34 392.169 C 1519.64 392.165 1588.16 389.743 1603.32 396.277 C 1629.49 404.442 1648.88 429.77 1649.54 457.163 C 1650.03 477.412 1649.88 497.66 1649.87 517.918 L 1649.86 628.777 L 1649.88 811.253 C 1649.88 830.46 1651.42 905.907 1647.43 918.326 C 1641.93 935.699 1629.72 950.151 1613.5 958.465 C 1591.93 969.434 1554.49 966.147 1530.05 966.12 L 1427.1 966.063 C 1337.91 966.053 1244.22 967.565 1155.43 966.011 Z"/>
    <path transform="translate(0,0)" style="fill: rgb(124,124,124)" stroke-linecap="round" d="M 1155.43 966.011 C 1147.6 965.87 1137.4 963.466 1130.15 960.508 C 1113.74 953.963 1100.62 941.131 1093.72 924.868 C 1091.33 919.148 1088.5 909.807 1088.38 903.812 C 1087.85 878 1088.08 851.774 1088.08 825.947 L 1088.09 675.513 L 1088.05 530.503 C 1088.03 505.505 1087.55 480.153 1088.19 455.184 C 1089.09 420.704 1118.88 393.097 1152.87 392.312 C 1174.54 391.811 1195.96 392.232 1217.48 392.242 L 1345.22 392.217 L 1500.34 392.169 C 1519.64 392.165 1588.16 389.743 1603.32 396.277 C 1579.34 394.375 1537.08 395.986 1511.1 395.999 L 1325.58 396.025 L 1201.69 395.949 C 1192.04 395.916 1181.79 396.036 1172.31 395.704 C 1149.77 394.914 1131.04 393.726 1112.77 410.015 C 1100.89 420.61 1091.84 434.612 1091.06 451.239 C 1090.3 482.435 1090.62 513.734 1090.62 544.951 L 1090.61 720.926 L 1090.67 842.215 C 1090.72 875.776 1084.71 915.384 1107.35 941.821 C 1122.78 959.837 1137.55 957.571 1155.43 966.011 Z"/>
</svg>