<?xml version="1.0" encoding="utf-8"?><svg version="1.1" id="Layer_1" xmlns="http://www.w3.org/2000/svg" xmlns:xlink="http://www.w3.org/1999/xlink" x="0px" y="0px" viewBox="0 0 122.88 64.53" style="enable-background:new 0 0 122.88 64.53" xml:space="preserve"><style type="text/css">.st0{fill-rule:evenodd;clip-rule:evenodd;}</style><g><path class="st0" d="M106.08,17.76c1.31,0,2.37,1.74,2.37,3.88c0,2.14-1.06,3.88-2.37,3.88c-1.31,0-2.37-1.74-2.37-3.88 C103.71,19.5,104.77,17.76,106.08,17.76L106.08,17.76z M6.62,46.65c-1.5-0.95-2.14-2.39-2.11-3.84c0.02-0.73,0.21-1.45,0.55-2.1 c0.34-0.65,0.83-1.23,1.44-1.68c0.91-0.67,2.08-1.07,3.42-0.97c0.17-2.61,0.5-4.99,1.06-7.05c0.72-2.6,1.83-4.7,3.48-6.09 c0.64-0.54,1.26-0.97,1.97-1.24c0.52-0.19,1.07-0.29,1.65-0.26c1.78-3.35,3.91-6.3,6.43-8.81c2.72-2.71,5.89-4.91,9.55-6.56 c2.49-1.12,4.72-1.94,7.02-2.33c2.34-0.4,4.71-0.35,7.47,0.29c1.24,0.29,2.5,0.67,3.76,1.12c0.96,0.34,1.91,0.73,2.86,1.14 c0.02-0.02,0.04-0.04,0.06-0.06c0.86-0.79,2.39-0.92,4.27-0.55c1.59,0.31,3.53,0.97,5.55,1.87c5.03,2.23,10.68,5.98,12.8,9.48 c0.26-0.05,0.52-0.09,0.79-0.12c1.19-0.13,2.34-0.06,3.46,0.16c0.98,0.2,1.92,0.51,2.83,0.9l0.62-0.1 c-0.16-9.56,3.77-15.33,9.14-18.04c3.82-1.93,8.36-2.26,12.65-1.28c4.27,0.98,8.32,3.26,11.21,6.59c4.47,5.14,6.17,12.7,1.64,21.69 c-0.2,0.4-0.58,0.64-0.99,0.68c-1.48,0.23-2.95,0.3-4.42,0.25c-0.29-0.01-0.58-0.02-0.88-0.04c0.73,0.77,1.42,1.55,1.97,2.38 c0.39,0.57,0.24,1.35-0.34,1.74l-0.03,0.02c-6.19,4.32-13.14,4.43-21.07,4.56c-1.28,0.02-2.59,0.04-3.95,0.08 c-5.9,0.18-6.6,0.58-10.48,2.79c-0.27,0.15-0.56,0.32-0.87,0.49l13.73,19.29l0,0c0.15,0.21,0.23,0.46,0.23,0.73 c-0.01,0.69-0.57,1.24-1.26,1.24l-18.24-0.21c-0.79,0.04-1.55-0.05-2.29-0.27c-0.73-0.22-1.43-0.56-2.12-1.03 c-1.86-1.26-3.68-3.87-5.31-6.67c-3.81,2.4-7.98,4.05-12.53,4.84c-4.38,0.76-9.11,0.73-14.21-0.2c-0.35,1.78-1.01,3.31-2.06,4.53 c-0.25,0.29-0.59,0.43-0.95,0.43v0h-22.5c-0.05,0-0.1,0-0.15-0.01c-0.8-0.03-1.53,0.01-2.13,0.04c-1.04,0.05-1.8,0.09-2.42-0.25 c-1.12-0.62-1.23-1.58-0.18-3.46c1.1-1.97,2.27-3.92,3.58-5.81c-0.15,0.05-0.3,0.09-0.45,0.13c-2.66,0.72-5.61,0.74-8.79,0.21 c-0.45-0.05-0.85-0.35-1.02-0.8c-0.25-0.65,0.08-1.37,0.72-1.62c1.5-0.57,2.78-1.41,3.81-2.53c0.89-0.97,1.6-2.16,2.14-3.6 C6.71,46.73,6.66,46.69,6.62,46.65L6.62,46.65z M12.38,38.82c4.94,3.31,10,5.31,15.17,5.99c0.81-4.35,0.79-7.93-0.03-10.77 c-0.55-1.66-1.3-3.07-2.25-4.23c-1.62-1.84-3.91-3.12-6.86-3.84l-0.04-0.01c-0.41-0.09-0.74-0.07-1.05,0.05 c-0.38,0.14-0.78,0.43-1.23,0.81c-1.24,1.04-2.1,2.72-2.69,4.85C12.83,33.71,12.52,36.14,12.38,38.82L12.38,38.82z M30.05,45.05 c2.83,0.14,5.7-0.1,8.6-0.73c5.91-1.28,11.98-4.15,18.2-8.59l-6.72-7.38c-2.66-1.49-5.6-1.45-8.79-0.12 c-3.36,1.39-6.99,4.18-10.84,8.08C30.79,38.85,30.65,41.76,30.05,45.05L30.05,45.05z M58.88,34.23l0.21-0.16 c1.66-1.38,4.69-4,7.74-6.68c0.29-0.28,0.59-0.57,0.88-0.85c0.67-0.65,1.32-1.36,1.95-2.04c1.76-1.9,3.4-3.68,5.73-4.73 c-2.08-2.89-6.93-6-11.33-7.95c-1.86-0.82-3.61-1.43-5.02-1.7c-1.04-0.2-1.78-0.25-2.05-0.09c-0.05,0.17-0.13,0.34-0.25,0.48 c-0.84,1-1.54,2.19-2.12,3.54c-0.48,1.15-0.87,2.4-1.2,3.73c-0.35,1.42-0.62,2.92-0.82,4.5c-0.18,1.47-0.31,3.02-0.4,4.64 L58.88,34.23L58.88,34.23z M85.52,22.39c-3.13,4.89-6.39,9.25-9.79,13.06l-0.5,0.67l1.43,2.13l1.05,1.47 c0.38-0.22,0.75-0.43,1.09-0.62c4.33-2.47,5.12-2.92,11.65-3.12c1.33-0.04,2.67-0.06,3.98-0.08c7.05-0.12,13.28-0.22,18.63-3.44 c-0.6-0.71-1.29-1.42-1.97-2.11c-0.48-0.49-0.96-0.98-1.38-1.43c-0.28-0.28-0.42-0.68-0.35-1.1c0.12-0.68,0.77-1.14,1.45-1.02 c1.38,0.24,2.74,0.4,4.08,0.45c1.13,0.04,2.26,0,3.39-0.14c3.63-7.65,2.17-14.02-1.58-18.35c-2.53-2.91-6.11-4.92-9.88-5.78 c-3.75-0.86-7.69-0.58-10.97,1.08c-4.75,2.39-8.17,7.74-7.73,16.81h0c0.03,0.63-0.42,1.19-1.06,1.29L85.52,22.39L85.52,22.39z M65.95,44.47c-1.15,0.85-2.31,1.64-3.49,2.37c0.23,0.45,0.48,0.93,0.74,1.44c2.04,3.98,4.84,9.45,7.4,11.18 c0.47,0.32,0.95,0.55,1.44,0.7c0.47,0.14,0.96,0.2,1.45,0.17c0.05,0,0.1,0,0.15,0l15.78,0.18L76.57,42.45 c-0.14-0.09-0.26-0.21-0.36-0.36l-1.6-2.39l-1.19-1.68c-1.63,1.66-3.33,3.21-5.11,4.65C67.54,43.3,66.75,43.9,65.95,44.47 L65.95,44.47z M60.29,48.09c-6.69,3.53-14.95,5.07-23.01,5.29c0.14,1.28,0.19,2.49,0.15,3.63c4.86,0.91,9.36,0.95,13.51,0.23 c4.27-0.74,8.17-2.3,11.74-4.56c-0.61-1.13-1.17-2.24-1.7-3.25C60.74,48.96,60.51,48.51,60.29,48.09L60.29,48.09z M34.77,53.41 l-0.35,0c-0.58-0.01-1.16-0.02-1.74-0.04c-2.27-0.05-4.54-0.21-6.8-0.48c-3.1-0.37-6.21-0.93-9.32-1.69 c-1.46,1.56-2.75,3.2-3.94,4.89C11.28,58,10.07,59.98,8.95,62l-0.01,0.01L9.24,62c0.65-0.03,1.44-0.08,2.36-0.04l0.04,0h21.89 c0.66-0.94,1.07-2.14,1.26-3.55C35,56.95,34.98,55.27,34.77,53.41L34.77,53.41z M13.86,50.28c-1.93-0.64-3.61-1.34-4.98-2.09 c-0.63,1.5-1.44,2.79-2.43,3.87c-0.37,0.4-0.76,0.78-1.18,1.12c1.4,0,2.73-0.16,3.97-0.49C10.94,52.23,12.48,51.44,13.86,50.28 L13.86,50.28z M7,42.86c-0.01,0.63,0.29,1.28,1,1.71l0,0c0.06,0.04,0.12,0.08,0.18,0.14c3.43,3.06,13.26,5.76,24.28,6.15 c1.13,0.03,2.25,0.03,3.38,0.01c0.11,0,0.22,0.01,0.32,0.04c8.35-0.11,16.97-1.64,23.69-5.42c0.09-0.1,0.19-0.18,0.31-0.25 c1.5-0.86,2.96-1.8,4.36-2.81c2.77-2.06,5.46-4.49,8.08-7.27c0.41-0.44,0.82-0.88,1.23-1.34l9-12.01 c-0.39-0.13-0.79-0.24-1.19-0.32c-0.86-0.17-1.76-0.23-2.69-0.12c-1.11,0.13-2.07,0.45-2.94,0.9c-1.2,1.28-2.83,2.83-4.63,4.44 c-0.94,0.84-1.93,1.71-2.91,2.58c-2.6,2.48-5.19,4.71-7.75,6.69c-0.55,0.46-0.97,0.8-1.2,0.97c-0.1,0.07-0.2,0.13-0.31,0.17 c-6.81,5.01-13.48,8.23-20,9.64c-3.41,0.74-6.77,0.98-10.08,0.73c-0.25,0.14-0.56,0.19-0.86,0.12c-0.2-0.04-0.38-0.13-0.53-0.26 c-5.69-0.67-11.25-2.81-16.66-6.43l-0.01,0c-0.3-0.01-0.57-0.13-0.77-0.31c-0.94-0.21-1.72-0.01-2.28,0.4 c-0.3,0.23-0.55,0.51-0.71,0.83C7.1,42.18,7.01,42.52,7,42.86L7,42.86z M26.79,27.76c0.95,1,1.73,2.15,2.34,3.46 c0.31,0.67,0.58,1.39,0.8,2.14c3.64-3.52,7.14-6.07,10.47-7.45c3.32-1.37,6.46-1.6,9.4-0.48c0.11-1.55,0.26-3.05,0.47-4.49l0-0.01 l0.01-0.06c0.21-1.43,0.47-2.78,0.8-4.06c0.32-1.25,0.7-2.42,1.15-3.52c0.42-1.05,0.9-2.04,1.45-2.97 c-0.73-0.31-1.47-0.6-2.19-0.86C50.33,9.06,49.17,8.71,48,8.44c-2.41-0.55-4.48-0.6-6.5-0.26c-2.06,0.35-4.1,1.11-6.41,2.14 c-3.37,1.51-6.29,3.55-8.8,6.05c-2.17,2.17-4.04,4.7-5.63,7.55c2.33,0.73,4.29,1.91,5.88,3.57C26.62,27.58,26.7,27.67,26.79,27.76 L26.79,27.76z M8.16,62.06c0,0,0.07,0,0.18-0.01C8.12,62,7.96,61.95,8.16,62.06L8.16,62.06z" fill="#7c7c7c"/></g></svg>