<?xml version="1.0" encoding="utf-8"?><svg version="1.1" id="Layer_1" xmlns="http://www.w3.org/2000/svg" xmlns:xlink="http://www.w3.org/1999/xlink" x="0px" y="0px" viewBox="0 0 122.88 112.75" style="enable-background:new 0 0 122.88 112.75" xml:space="preserve"><style type="text/css">.st0{fill-rule:evenodd;clip-rule:evenodd;fill:#7c7c7c;} .st1{fill-rule:evenodd;clip-rule:evenodd;fill:#7c7c7c;} .st2{fill-rule:evenodd;clip-rule:evenodd;fill:#7c7c7c;}</style><g><path class="st0" d="M56.66,105.35c-5.94,4.6-13.4,7.34-21.5,7.34C15.74,112.69,0,96.95,0,77.53c0-13.47,7.58-25.17,18.7-31.07 c1.96,6.96,5.68,13.19,10.65,18.16c4.64,4.64,10.38,8.2,16.79,10.24c-0.06,0.9-0.09,1.81-0.09,2.73 C46.06,88.25,50.07,97.98,56.66,105.35L56.66,105.35z"/><path class="st1" d="M122.88,77.59c0,19.42-15.74,35.16-35.16,35.16S52.56,97,52.56,77.59c0-0.41,0.01-0.82,0.02-1.23 c2.03,0.3,4.11,0.46,6.23,0.46c11.5,0,21.92-4.66,29.46-12.2c5.45-5.45,9.4-12.41,11.17-20.19 C113.1,49.26,122.88,62.28,122.88,77.59L122.88,77.59z"/><path class="st2" d="M93.97,35.16c0,19.42-15.74,35.16-35.16,35.16S23.65,54.58,23.65,35.16S39.39,0,58.81,0 S93.97,15.74,93.97,35.16L93.97,35.16z"/></g></svg>