<svg id="Layer_1" data-name="Layer 1" xmlns="http://www.w3.org/2000/svg" viewBox="0 0 122.88 92.04"><title>noise</title><path d="M90.14,23.41a5.14,5.14,0,0,1,8.78-3.63h0a5.13,5.13,0,0,1,1.51,3.63V68.69a5.14,5.14,0,0,1-8.78,3.64h0a5.12,5.12,0,0,1-1.51-3.63V23.41ZM0,18.22a5.12,5.12,0,0,1,1.51-3.63h0a5.15,5.15,0,0,1,8.78,3.64V73.83a5.16,5.16,0,0,1-1.51,3.64h0A5.15,5.15,0,0,1,0,73.83V18.22ZM22.59,5.14a5.13,5.13,0,0,1,1.5-3.63h0a5.14,5.14,0,0,1,8.77,3.63V86.9a5.14,5.14,0,0,1-8.77,3.64h0a5.11,5.11,0,0,1-1.5-3.63V5.14ZM67.64,33.93a5.13,5.13,0,0,1,1.5-3.63h0a5.14,5.14,0,0,1,7.26,0h0a5.14,5.14,0,0,1,1.5,3.63V58.16a5.15,5.15,0,0,1-1.5,3.64h0a5.13,5.13,0,0,1-7.26,0h0a5.11,5.11,0,0,1-1.5-3.63V33.93ZM45.13,18.25a5.14,5.14,0,0,1,1.51-3.64h0a5.15,5.15,0,0,1,8.78,3.64V73.86a5.12,5.12,0,0,1-1.51,3.63h0a5.15,5.15,0,0,1-8.78-3.64V18.25ZM112.7,12a5.09,5.09,0,0,1,1.49-3.61l.11-.1a5,5,0,0,1,7.1.1A5.13,5.13,0,0,1,122.88,12v68a5.17,5.17,0,0,1-1.48,3.62l-.11.1a5,5,0,0,1-7.1-.1,5.14,5.14,0,0,1-1.49-3.62V12Z" fill="#7c7c7c"/></svg>