<?xml version="1.0" encoding="utf-8"?><svg version="1.1" id="Layer_1" xmlns="http://www.w3.org/2000/svg" xmlns:xlink="http://www.w3.org/1999/xlink" x="0px" y="0px" viewBox="0 0 122.88 80.89" style="enable-background:new 0 0 122.88 80.89" xml:space="preserve"><style type="text/css"><![CDATA[
	.st0{fill-rule:evenodd;clip-rule:evenodd;}
]]></style><g><path class="st0" d="M96.68,61.75l-5.22-0.49l4.33-9.47h5.91l-3.35,5.43l6.03,0.67L93.31,71.18L96.68,61.75L96.68,61.75z M5.1,0 h112.67c1.4,0,2.67,0.58,3.6,1.5l0,0c0.92,0.92,1.5,2.2,1.5,3.61v70.68c0,1.41-0.57,2.68-1.5,3.61c-0.92,0.92-2.2,1.5-3.61,1.5H5.1 c-1.41,0-2.68-0.57-3.61-1.5c-0.05-0.05-0.1-0.1-0.14-0.16C0.51,78.32,0,77.11,0,75.79V5.11c0-1.4,0.57-2.67,1.5-3.6l0.01-0.01 C2.44,0.57,3.71,0,5.1,0L5.1,0z M117.77,4.29H5.1c-0.23,0-0.43,0.09-0.58,0.23L4.52,4.53C4.38,4.67,4.29,4.88,4.29,5.11v70.68 c0,0.2,0.07,0.38,0.18,0.52l0.06,0.06c0.15,0.15,0.35,0.24,0.58,0.24h112.67c0.22,0,0.43-0.09,0.58-0.24s0.24-0.35,0.24-0.58V5.11 c0-0.22-0.09-0.43-0.24-0.58l0,0l0,0C118.21,4.38,118,4.29,117.77,4.29L117.77,4.29z M85.34,11.81h23.9c1.51,0,2.75,1.24,2.75,2.75 v23.52c0,1.52-1.24,2.75-2.75,2.75h-23.9c-1.51,0-2.75-1.24-2.75-2.75V14.56C82.58,13.05,83.82,11.81,85.34,11.81L85.34,11.81 L85.34,11.81z M43.48,30.02c1.24,0.26,2.4,0.74,3.43,1.41l5.31-5.31c-2.46-1.94-5.46-3.22-8.74-3.61V30.02L43.48,30.02z M49.8,34.3 c0.68,1.03,1.18,2.19,1.45,3.44h7.51c-0.4-3.28-1.7-6.28-3.66-8.74L49.8,34.3L49.8,34.3z M51.28,41.83 c-0.25,1.27-0.74,2.45-1.42,3.49l5.31,5.31c1.95-2.48,3.24-5.5,3.61-8.8H51.28L51.28,41.83z M46.98,48.22 c-1.05,0.7-2.23,1.2-3.51,1.46v7.51c3.31-0.39,6.33-1.7,8.81-3.67L46.98,48.22L46.98,48.22z M39.39,49.68 c-1.27-0.26-2.46-0.77-3.51-1.46l-5.3,5.3c2.48,1.97,5.5,3.28,8.81,3.67V49.68L39.39,49.68z M33.01,45.32 c-0.68-1.05-1.17-2.23-1.42-3.49h-7.5c0.37,3.3,1.66,6.32,3.61,8.8L33.01,45.32L33.01,45.32z M31.62,37.74 c0.27-1.25,0.77-2.41,1.45-3.44L27.76,29c-1.96,2.46-3.26,5.46-3.66,8.74H31.62L31.62,37.74z M35.97,31.43 c1.03-0.67,2.19-1.15,3.43-1.41v-7.51c-3.28,0.38-6.27,1.67-8.74,3.61L35.97,31.43L35.97,31.43z M43.48,18.41 c4.4,0.41,8.41,2.15,11.64,4.81l4.67-4.67c-4.44-3.83-10.1-6.29-16.31-6.74V18.41L43.48,18.41z M58.01,26.1 c2.68,3.22,4.43,7.24,4.86,11.65h6.6c-0.46-6.22-2.95-11.88-6.8-16.31L58.01,26.1L58.01,26.1z M62.88,41.83 c-0.4,4.42-2.14,8.46-4.81,11.71l4.67,4.67c3.84-4.46,6.31-10.14,6.74-16.38H62.88L62.88,41.83z M55.19,56.43 c-3.24,2.69-7.28,4.45-11.71,4.87v6.6c6.25-0.45,11.93-2.94,16.38-6.8L55.19,56.43L55.19,56.43z M39.39,61.29 c-4.43-0.42-8.47-2.18-11.71-4.87l-4.67,4.67c4.45,3.87,10.13,6.35,16.38,6.8V61.29L39.39,61.29z M24.8,53.53 c-2.67-3.24-4.41-7.28-4.81-11.71h-6.6c0.43,6.24,2.9,11.92,6.74,16.38L24.8,53.53L24.8,53.53z M20,37.74 c0.43-4.41,2.18-8.42,4.86-11.65l-4.67-4.67c-3.85,4.44-6.34,10.09-6.8,16.31H20L20,37.74z M27.75,23.22 c3.23-2.66,7.24-4.39,11.64-4.81v-6.6c-6.21,0.45-11.87,2.91-16.31,6.74L27.75,23.22L27.75,23.22z M41.44,7.65 c8.89,0,16.94,3.6,22.77,9.43c5.83,5.83,9.43,13.88,9.43,22.77s-3.6,16.94-9.43,22.77c-5.83,5.83-13.88,9.43-22.77,9.43 s-16.94-3.6-22.77-9.43c-5.83-5.83-9.43-13.88-9.43-22.77s3.6-16.94,9.43-22.77C24.5,11.26,32.54,7.65,41.44,7.65L41.44,7.65z M92.74,20.87h1.63c0.23,0,0.44,0.1,0.59,0.25l0,0c0.15,0.15,0.25,0.36,0.25,0.59v3.58c0,0.23-0.1,0.44-0.25,0.59l0,0l0,0 c-0.15,0.15-0.36,0.25-0.59,0.25h-1.63c-0.23,0-0.44-0.1-0.59-0.25l0,0c-0.15-0.15-0.25-0.36-0.25-0.59v-3.58 c0-0.23,0.09-0.44,0.25-0.59C92.3,20.96,92.51,20.87,92.74,20.87L92.74,20.87L92.74,20.87z M98.89,32.72h-3.22 c-0.2,0-0.39-0.08-0.52-0.22s-0.21-0.32-0.21-0.52v-2.04c0-0.51,0.21-0.98,0.55-1.32c0.34-0.34,0.81-0.55,1.32-0.55h0.93 c0.52,0,0.99,0.21,1.33,0.55c0.34,0.34,0.55,0.81,0.55,1.33v2.03c0,0.2-0.08,0.39-0.21,0.52C99.28,32.64,99.1,32.72,98.89,32.72 L98.89,32.72L98.89,32.72z M100.19,20.87h1.63c0.23,0,0.44,0.1,0.59,0.25l0,0c0.15,0.15,0.25,0.36,0.25,0.59v3.58 c0,0.23-0.1,0.44-0.25,0.59l0,0l0,0c-0.15,0.15-0.36,0.25-0.59,0.25h-1.63c-0.23,0-0.44-0.1-0.59-0.25l0,0 c-0.15-0.15-0.25-0.36-0.25-0.59v-3.58c0-0.23,0.09-0.44,0.25-0.59C99.75,20.96,99.96,20.87,100.19,20.87L100.19,20.87 L100.19,20.87z M108.64,14.09c0.66,0,1.2,0.54,1.2,1.2s-0.54,1.2-1.2,1.2c-0.66,0-1.2-0.54-1.2-1.2 C107.44,14.63,107.98,14.09,108.64,14.09L108.64,14.09L108.64,14.09z M86.08,36.01c0.66,0,1.2,0.54,1.2,1.2s-0.54,1.2-1.2,1.2 s-1.2-0.54-1.2-1.2C84.89,36.55,85.42,36.01,86.08,36.01L86.08,36.01L86.08,36.01z M97.19,16.5c5.42,0,9.82,4.4,9.82,9.82 s-4.4,9.82-9.82,9.82c-5.42,0-9.82-4.4-9.82-9.82S91.77,16.5,97.19,16.5L97.19,16.5L97.19,16.5z" fill="#7c7c7c"/></g></svg>