<?xml version="1.0" encoding="UTF-8" standalone="no"?><!DOCTYPE svg PUBLIC "-//W3C//DTD SVG 1.1//EN" "http://www.w3.org/Graphics/SVG/1.1/DTD/svg11.dtd"><svg xmlns="http://www.w3.org/2000/svg" xmlns:xlink="http://www.w3.org/1999/xlink" version="1.1" viewBox="165 235 1735 1442">
    <defs>
    </defs>
    <path transform="translate(0,0)" style="fill: rgb(124,124,124)" stroke-linecap="round" d="M 540.091 235.574 C 558.825 237.07 590.279 236.021 610.427 236.015 L 745.703 235.945 L 1176.45 235.918 L 1299.06 235.902 C 1318.88 235.879 1356.16 234.797 1374.37 237.729 C 1395.09 241.159 1414.26 250.849 1429.31 265.496 C 1443.14 278.855 1452.7 296.029 1456.74 314.833 C 1459.83 329.331 1459.24 350.264 1459.24 365.373 L 1459.19 422.879 C 1459.22 483.921 1459.56 544.962 1460.21 606 C 1475.54 605.735 1491.66 606.027 1507.04 606.068 C 1502.86 617.097 1489.12 650.442 1483.87 659.873 C 1476.66 659.879 1469.29 660.068 1462.15 659.236 L 1462.11 778.836 C 1475.41 777.34 1498.07 777.545 1511.98 777.588 C 1511.96 740.777 1511.29 702.705 1518.08 666.42 C 1527.84 614.351 1557.55 570.472 1603.81 544.086 C 1615.52 537.409 1628.1 532.305 1640.03 526.031 C 1665.36 512.708 1687.88 493.579 1701.19 467.867 C 1709.5 451.809 1714.97 433.284 1717.02 415.326 C 1719.26 395.624 1712.84 338.708 1724.25 326.156 C 1729.27 320.627 1736.89 317.967 1744.23 317.811 C 1751.89 317.648 1759.61 319.696 1764.98 325.419 C 1769.03 329.728 1771.21 335.394 1772.27 341.134 C 1774.78 354.8 1773.34 394.118 1772.45 409.275 C 1768.42 477.711 1730.86 534.883 1671.85 568.877 C 1649.35 581.842 1625.58 590.137 1605.95 607.836 C 1558.62 650.496 1568.15 721.15 1565.27 778.373 C 1589.36 781.677 1608.3 785.786 1631.16 795.212 C 1691.56 819.903 1739.65 867.61 1764.83 927.806 C 1773.62 949.126 1779.34 971.587 1781.82 994.515 C 1784.51 1018.23 1783.93 1038.94 1783.9 1062.74 L 1783.81 1145.13 L 1783.86 1219.25 C 1783.89 1242.11 1784.4 1262.65 1781.65 1285.49 C 1778.56 1310.95 1772 1335.87 1762.15 1359.54 C 1735.77 1423.28 1684.87 1473.72 1620.89 1499.5 C 1555.98 1525.89 1473.99 1524.24 1409.63 1497.04 C 1322.1 1460.06 1263.09 1375 1252.43 1281.5 C 1249.7 1257.55 1249.98 1234 1249.96 1209.93 L 1249.93 1131.42 L 1249.93 1054.5 C 1249.93 996.759 1250.04 967.013 1273.27 912.179 L 256.144 912.1 L 256.073 1356.5 L 256.025 1484.08 C 256.005 1526.03 249.157 1566.51 281.014 1598.56 C 310.817 1628.54 343.134 1623.97 381.778 1623.97 L 456.999 1623.97 L 742.75 1624.01 L 1462.91 1623.96 L 1667.42 1623.92 L 1729.81 1624.02 C 1765.45 1624.07 1793.53 1625.77 1820.61 1598.79 C 1839.52 1579.97 1847.06 1557.43 1847.22 1531.12 L 1847.13 977.537 L 1847.18 805.072 C 1847.18 786.567 1848.32 735.032 1846.21 718.475 C 1844.33 703.815 1837.64 690.193 1827.18 679.749 C 1801.13 653.773 1757.33 659.999 1723.18 660.037 L 1596.87 659.982 C 1605.79 641.824 1622.97 613.453 1639.92 602.189 C 1646.36 601.831 1652.81 601.597 1659.25 601.485 C 1683.44 601.229 1707.63 601.126 1731.82 601.177 C 1783.08 601.313 1823.68 599.62 1864.01 638.761 C 1906.92 680.403 1900.18 733.68 1900.13 788.326 L 1900.61 884.587 C 1901.14 923.858 1900.08 966.577 1900.12 1006.31 L 1900.15 1344.4 L 1900.08 1474.25 C 1900.12 1499.3 1901.64 1539.42 1897.54 1562.53 C 1892.57 1590.22 1879.33 1615.75 1859.57 1635.76 C 1826.68 1669.16 1794.99 1676.17 1750.39 1676.42 L 762.959 1676.62 L 467.956 1676.5 L 374.025 1676.53 C 359.174 1676.5 333.888 1677.06 319.642 1675.34 C 291.013 1671.96 264.394 1658.91 244.199 1638.34 C 198.001 1592.13 204.01 1551.4 203.953 1491.54 L 204.032 1372.32 L 203.979 895.186 C 182.223 873.228 167.72 852.779 166.576 820.843 C 165.487 790.442 166.084 758.502 166.064 728.051 L 165.988 543.909 L 165.987 399.893 C 165.991 382.465 166.282 364.66 166.043 347.28 C 165.642 318.142 170.262 294.243 189.821 271.461 C 203.868 255.263 222.634 243.867 243.485 238.872 C 262.32 234.327 303.344 236.014 324.441 235.999 L 463.574 235.949 C 485.836 235.982 518.73 237.111 540.091 235.574 Z M 1307.16 862.638 C 1316.59 851.689 1322.98 844.946 1333.78 835.228 C 1358.03 814.223 1379.43 800.981 1410.02 790.738 C 1408.04 688.157 1407.38 585.555 1408.03 482.957 L 1408.06 383.591 C 1408.06 372.581 1408.67 342.746 1407.2 332.955 C 1405.45 321.119 1399.79 310.209 1391.12 301.963 C 1382.57 293.894 1370.69 288.722 1359.02 288.327 C 1339.22 287.657 1318.81 288.051 1298.99 288.111 L 1192.65 288.174 L 843.224 288.159 L 442.847 288.172 L 319.352 288.221 C 302.641 288.253 281.192 287.043 264.861 288.29 C 212.757 297.406 216.046 336.292 216.041 377.482 L 216.036 438.675 L 216.072 631.094 L 216.083 751.152 C 216.026 772.218 214.815 795.475 217.318 816.215 C 220.14 839.601 241.846 860.501 265.443 861.986 C 281.09 862.97 296.926 862.796 312.604 862.822 L 383.531 862.89 L 607.319 862.921 L 1307.16 862.638 Z M 1548.13 831.851 C 1548.01 904.684 1546.83 981.548 1548.15 1054.04 L 1668.86 1054.05 C 1689.16 1054.05 1712.06 1054.58 1732.19 1053.96 C 1731.65 1030.14 1731.3 1011.49 1726.9 987.891 C 1710.57 900.275 1639.56 832.751 1548.13 831.851 Z M 1731.9 1106.05 L 1444.32 1106.09 L 1350.34 1106.07 C 1335.37 1106.07 1316.73 1106.6 1302.15 1105.96 L 1302 1194.6 C 1301.97 1213.51 1301.3 1233.9 1302.54 1252.8 C 1305.64 1299.99 1320.47 1344.67 1348.41 1383.08 C 1417.35 1477.83 1561.31 1493.21 1651.56 1420.48 C 1658.29 1415.05 1664.25 1409.03 1670.36 1402.87 C 1720.07 1351.56 1734.23 1285.46 1732 1216.51 C 1730.82 1180 1732.45 1142.72 1731.9 1106.05 Z M 1466.95 832.38 C 1370.48 844.463 1309.52 915.555 1302.66 1011.34 C 1301.63 1025.79 1302.36 1039.76 1302.02 1054.11 L 1332.25 1054.08 L 1494.08 1054.05 L 1494.02 911.885 C 1494.08 893.581 1495.19 847.285 1493.16 832.001 C 1485.62 832.033 1474.17 831.735 1466.95 832.38 Z"/>
    <path transform="translate(0,0)" style="fill: rgb(124,124,124)" stroke-linecap="round" d="M 572.923 722.364 L 920.259 722.347 L 1001.62 722.227 C 1012.68 722.22 1024.06 722 1035.33 722.417 C 1063.65 723.467 1056.11 760.765 1056.89 779.932 C 1057.49 794.612 1055.68 804.972 1040.98 811.79 C 1028.38 813.682 1001.74 812.835 987.774 812.837 L 889.537 812.845 L 687.622 812.856 C 652.831 812.856 618.027 812.935 583.245 812.758 C 579.385 812.738 565.638 811.706 562.534 810.143 C 547.825 802.739 550.533 780.046 550.758 766.718 C 551.202 758.231 550.266 749.421 551.862 741.055 C 552.79 736.191 554.726 731.915 558.254 728.454 C 562.65 724.143 567.124 723.226 572.923 722.364 Z"/>
    <path transform="translate(0,0)" style="fill: rgb(124,124,124)" stroke-linecap="round" d="M 1135.91 593.22 C 1160.06 591.473 1195.06 593.336 1220.55 592.823 C 1256 592.932 1291.66 592.511 1327.09 592.961 C 1337.97 593.737 1349.21 593.667 1353.1 605.938 C 1358.61 623.316 1356.18 643.436 1355.66 661.556 C 1355.37 671.799 1347.87 678.266 1338.57 681.923 C 1313.17 684.444 1274.8 682.246 1247.62 682.774 C 1213.87 682.854 1180.96 682.727 1147.12 682.678 C 1114.54 682.63 1119.76 658.112 1119.62 633.448 C 1119.52 614.982 1116.23 601.489 1135.91 593.22 Z"/>
    <path transform="translate(0,0)" style="fill: rgb(124,124,124)" stroke-linecap="round" d="M 287.793 593.285 C 336.558 590.421 389.283 594.399 438.347 593.138 C 475.475 592.184 461.356 631.479 464.245 655.031 C 465.775 667.503 459.111 676.919 447.851 681.815 C 438.319 683.696 298.332 684.202 288.776 681.725 C 283.202 680.279 277.107 674.935 274.635 669.779 C 270.288 660.707 270.426 614.241 274.201 605.097 C 276.844 598.695 281.651 595.827 287.793 593.285 Z"/>
    <path transform="translate(0,0)" style="fill: rgb(124,124,124)" stroke-linecap="round" d="M 1218.83 462.243 C 1255.53 460.179 1295.2 462.895 1332.13 462.098 C 1342.24 460.792 1355.01 469.44 1355.14 480.69 C 1355.4 503.374 1365.69 548.797 1335.25 554.085 C 1317.79 554.661 1230.89 556.783 1218.88 553.097 C 1213.65 551.492 1207.99 546.84 1205.5 541.962 C 1200.91 532.955 1200.82 485.973 1204.22 476.074 C 1206.79 468.629 1212.05 465.481 1218.83 462.243 Z"/>
    <path transform="translate(0,0)" style="fill: rgb(124,124,124)" stroke-linecap="round" d="M 288.083 462.227 C 305.116 461.771 395.685 459.583 405.269 464.599 C 410.556 467.366 413.66 474.068 415.065 479.575 C 417.749 490.095 417.594 522.11 415.801 533.446 C 415.156 537.532 413.799 541.563 411.661 545.115 C 408.566 550.258 403.953 552.799 398.251 554.097 C 377.78 554.738 301.909 557.269 287.058 552.182 C 281.565 550.3 277.495 547.754 274.968 542.411 C 270.79 533.58 270.26 485.85 273.696 476.278 C 276.34 468.914 281.284 465.509 288.083 462.227 Z"/>
    <path transform="translate(0,0)" style="fill: rgb(124,124,124)" stroke-linecap="round" d="M 1237.23 722.196 C 1267.83 720.703 1301.48 722.041 1332.18 722.15 C 1358.59 722.243 1356.7 748.757 1356.21 768.021 C 1355.75 785.765 1360.2 805.721 1337.87 811.938 C 1318.68 812.993 1247.6 815.986 1233.16 810.063 C 1228.32 808.08 1223.89 804.988 1222.07 799.903 C 1218.38 789.582 1218.03 741.842 1222.9 732.72 C 1226.03 726.849 1231.15 724.189 1237.23 722.196 Z"/>
    <path transform="translate(0,0)" style="fill: rgb(124,124,124)" stroke-linecap="round" d="M 290.861 722.314 C 305.086 721.943 367.777 719.747 377.271 725.228 C 382.472 728.232 385.782 734.333 387.158 740.01 C 389.633 750.224 389.568 780.663 387.824 791.468 C 387.192 795.592 385.742 799.547 383.559 803.102 C 380.171 808.53 375.773 810.803 369.765 812.198 C 355.697 813.82 297.447 814.798 283.586 809.63 C 268.136 803.87 271.609 760.765 271.971 747.402 C 272.304 735.117 277.375 725.682 290.861 722.314 Z"/>
    <path transform="translate(0,0)" style="fill: rgb(124,124,124)" stroke-linecap="round" d="M 1090.16 462.18 C 1110.43 461.312 1136.38 460.427 1156.08 463.929 C 1165.81 467.578 1168.97 485.04 1168.33 492.938 C 1166.59 514.606 1176.1 543.708 1151.03 553.915 C 1133.22 555.271 1107.42 556.007 1089.94 552.938 C 1070.93 549.599 1073.49 517.615 1073.82 502.952 C 1074.24 483.739 1069.84 471.567 1090.16 462.18 Z"/>
    <path transform="translate(0,0)" style="fill: rgb(124,124,124)" stroke-linecap="round" d="M 469.579 462.146 C 483.34 461.577 521.953 460.756 533.221 463.924 C 551.62 469.096 546.373 527.659 542.454 543.076 C 541.066 548.534 532.837 552.184 528.016 554.034 C 454.852 557.456 443.352 561.512 454.34 472.627 C 454.923 467.915 465.684 463.463 469.579 462.146 Z"/>
    <path transform="translate(0,0)" style="fill: rgb(124,124,124)" stroke-linecap="round" d="M 964.075 462.159 C 979.418 461.316 1014.62 460.985 1028.45 463.543 C 1047.58 467.081 1041.54 525.678 1039.35 540.048 C 1038.49 545.65 1028.55 551.602 1023.69 553.831 C 1009.42 555.649 976.715 555.316 963.255 552.746 C 940.424 548.387 947.829 491.906 949.905 474.796 C 950.54 469.557 959.831 464.173 964.075 462.159 Z"/>
    <path transform="translate(0,0)" style="fill: rgb(124,124,124)" stroke-linecap="round" d="M 717.672 462.176 C 737.548 461.948 763.06 459.901 782.095 464.072 C 793.194 468.999 795.037 487.567 794.385 496.608 C 792.819 518.318 801.679 545.047 775.477 553.949 C 759.045 554.755 731.717 555.951 715.664 552.837 C 693.984 548.632 701.274 491.669 703.123 475.501 C 703.775 469.8 712.942 464.445 717.672 462.176 Z"/>
    <path transform="translate(0,0)" style="fill: rgb(124,124,124)" stroke-linecap="round" d="M 592.338 462.236 C 605.823 461.54 644.66 460.725 655.743 463.984 C 674.037 469.363 668.843 526.705 665.763 541.969 C 664.592 547.772 655.233 552.167 650.178 554.021 C 607.561 555.254 568.863 566.797 575.644 510.282 C 578.065 490.108 568.814 472.913 592.338 462.236 Z"/>
    <path transform="translate(0,0)" style="fill: rgb(124,124,124)" stroke-linecap="round" d="M 1109.25 722.176 C 1122.58 721.543 1161.61 720.245 1173.89 723.747 C 1189.49 728.193 1185.16 767.596 1185.54 781.136 C 1185.89 793.693 1183.75 807.417 1168.8 812.113 C 1153.96 814.43 1118.09 813.882 1104 810.083 C 1089.52 804.3 1091.56 781.873 1091.89 770.308 C 1092.45 750.512 1085.98 729.718 1109.25 722.176 Z"/>
    <path transform="translate(0,0)" style="fill: rgb(124,124,124)" stroke-linecap="round" d="M 444.261 722.309 C 459.745 722.148 493.209 720.183 506.157 725.471 C 520.626 731.38 519.287 790.723 511.641 802.949 C 507.9 808.933 503.645 810.963 496.992 812.62 C 485.624 813.487 444.98 814.629 434.131 809.824 C 422.091 801.87 422.847 779.176 423.045 767.335 C 423.378 747.42 420.725 727.128 444.261 722.309 Z"/>
    <path transform="translate(0,0)" style="fill: rgb(124,124,124)" stroke-linecap="round" d="M 842.031 462.173 C 914.061 459.259 924.277 455.104 913.54 541.752 C 912.929 546.687 903.113 552.069 898.974 553.879 C 888.232 554.835 852.222 555.762 842.943 553.49 C 837.016 551.997 831.941 548.179 828.863 542.899 C 824.157 534.816 825.232 486.999 827.487 475.189 C 828.651 469.092 836.732 464.771 842.031 462.173 Z"/>
    <path transform="translate(0,0)" style="fill: rgb(124,124,124)" stroke-linecap="round" d="M 284.674 334.205 C 299.689 333.287 342.185 331.893 354.394 337.255 C 364.572 348.441 362.449 367.069 362.376 381.51 C 362.28 400.527 365.679 414.645 345.649 423.448 C 332.764 425.836 301.444 424.223 288.352 423.219 C 268.105 419.438 269.255 396.77 270.089 382.011 C 271.256 361.351 263.781 346.073 284.674 334.205 Z"/>
    <path transform="translate(0,0)" style="fill: rgb(124,124,124)" stroke-linecap="round" d="M 908.891 334.202 C 922.897 333.394 964.293 332.333 975.915 336.496 C 991.343 342.022 987.31 398.728 983.215 412.641 C 981.54 418.33 973.369 421.564 968.184 423.651 C 951.299 425.251 930.136 424.564 913.156 423.458 C 894.088 422.271 892.993 397.595 894.147 383.135 C 895.817 362.201 888.346 345.989 908.891 334.202 Z"/>
    <path transform="translate(0,0)" style="fill: rgb(124,124,124)" stroke-linecap="round" d="M 411.117 334.176 C 425.735 333.356 442.017 334.377 456.434 333.646 C 486.165 332.138 490.333 347.123 489.307 374.022 C 488.619 392.059 493.825 411.834 475.137 422.33 C 463.772 426.013 426.811 424.612 414.142 422.96 C 395.576 419.018 396.15 396.456 396.932 382.351 C 398.002 363.051 391.329 344.905 411.117 334.176 Z"/>
    <path transform="translate(0,0)" style="fill: rgb(124,124,124)" stroke-linecap="round" d="M 516.013 593.26 C 530.602 592.438 568.114 592.144 580.97 594.894 C 595.245 605.677 592.277 623.057 592.458 639.227 C 592.653 656.633 594.832 673.065 576.793 681.817 C 565.621 683.577 522.514 684.634 511.633 680.151 C 496.634 673.971 499.738 639.452 499.613 625.851 C 499.49 612.57 499.765 597.321 516.013 593.26 Z"/>
    <path transform="translate(0,0)" style="fill: rgb(124,124,124)" stroke-linecap="round" d="M 663.024 334.193 C 679.791 333.156 708.731 333.555 725.619 334.276 C 728.656 336.118 735.646 340.985 736.73 344.907 C 741.349 361.624 741.109 395.249 736.76 412.117 C 735.239 418.016 728.122 421.301 723.731 423.317 C 709.956 425.814 678.784 424.524 664.561 422.758 C 651.164 419.963 646.621 404.105 647.961 392.812 C 650.42 372.087 640.105 345.218 663.024 334.193 Z"/>
    <path transform="translate(0,0)" style="fill: rgb(124,124,124)" stroke-linecap="round" d="M 891.365 593.17 C 905.248 592.83 921.166 593.326 934.755 592.792 C 966.09 591.559 965.493 610.009 965.153 635.929 C 964.919 653.788 968.429 673.523 947.945 681.985 C 934.141 684.227 900.11 683.858 886.436 680.371 C 874.548 676.414 871.817 659.896 872.94 649.599 C 875.296 627.991 864.121 600.991 891.365 593.17 Z"/>
    <path transform="translate(0,0)" style="fill: rgb(124,124,124)" stroke-linecap="round" d="M 1156.12 334.239 C 1175.53 333.085 1198.83 333.039 1217.96 334.816 C 1229.03 337.945 1233.15 355.394 1232.36 364.119 C 1230.43 385.462 1240.12 413.138 1215.72 423.564 C 1203.17 425.863 1170.83 424.354 1157.57 422.786 C 1144.49 420.167 1139.66 403.829 1140.97 392.893 C 1143.49 371.775 1132.83 345.281 1156.12 334.239 Z"/>
    <path transform="translate(0,0)" style="fill: rgb(124,124,124)" stroke-linecap="round" d="M 1014.4 593.23 C 1022.78 592.618 1035.26 593.178 1042.53 592.762 C 1088.35 590.138 1089.4 599.202 1088.42 642.654 C 1088.05 658.75 1090.74 673.464 1072.54 681.844 C 1060.75 683.514 1020.55 684.683 1009.57 679.964 C 994.461 673.469 997.634 642.618 997.556 628.486 C 997.48 614.615 997.349 597.433 1014.4 593.23 Z"/>
    <path transform="translate(0,0)" style="fill: rgb(124,124,124)" stroke-linecap="round" d="M 537.931 334.242 C 553.91 333.273 583.569 333.472 599.562 334.225 C 617.818 346.22 613.447 359.228 613.994 379.322 C 614.46 396.48 616.652 413.751 599.335 422.88 C 593.571 424.565 586.515 424.202 581.003 424.194 C 540.648 424.138 519.823 431.275 523.942 379.747 C 525.383 361.713 517.631 347.114 537.931 334.242 Z"/>
    <path transform="translate(0,0)" style="fill: rgb(124,124,124)" stroke-linecap="round" d="M 640.579 593.327 C 649.612 592.833 664.061 593.278 672.153 592.808 C 717.187 590.197 716.841 601.18 716.384 642.55 C 716.207 658.486 718.569 673.569 700.388 681.803 C 684.583 684.144 657.82 683.726 642.128 681.745 C 625.419 677.512 624.622 654.348 625.708 640.181 C 627.181 620.952 619.68 602.696 640.579 593.327 Z"/>
    <path transform="translate(0,0)" style="fill: rgb(124,124,124)" stroke-linecap="round" d="M 1034.31 334.175 C 1044.69 333.498 1088.45 332.39 1097.18 336.23 C 1113.19 343.266 1107.76 385.258 1108.1 400.17 C 1108.32 409.993 1102.34 419.054 1091.89 423.148 C 1080.77 425.599 1048.72 424.458 1036.84 423.14 C 1018.23 419.767 1017.92 396.746 1019.06 382.558 C 1020.73 361.671 1013.03 344.89 1034.31 334.175 Z"/>
    <path transform="translate(0,0)" style="fill: rgb(124,124,124)" stroke-linecap="round" d="M 787.241 334.124 C 866.734 329.651 862.273 330.556 859.906 409.176 C 855.389 417.245 852.721 419.721 844.532 423.53 C 831.857 425.147 797.386 424.899 785.537 422.125 C 765.187 417.361 771.494 363.585 774.179 348.154 C 775.391 341.19 781.24 336.977 787.241 334.124 Z"/>
    <path transform="translate(0,0)" style="fill: rgb(124,124,124)" stroke-linecap="round" d="M 1282.83 334.18 C 1298.04 333.185 1327.75 333.347 1341.9 334.912 C 1363.45 337.294 1356.16 395.036 1354.3 410.127 C 1353.59 415.844 1344.48 421.245 1339.74 423.425 C 1327.05 425.671 1298.89 424.35 1285.63 423.26 C 1264.85 421.551 1267.3 390.769 1267.94 376.635 C 1268.83 356.911 1262.01 344.363 1282.83 334.18 Z"/>
    <path transform="translate(0,0)" style="fill: rgb(124,124,124)" stroke-linecap="round" d="M 768.248 593.233 C 835.348 589.784 843.695 587.589 839.844 655.516 C 839.108 668.49 835.535 676.757 824.015 681.718 C 809.813 684.116 779.128 684.134 765.33 680.524 C 750.276 675.279 750.947 653.762 751.897 641.409 C 753.457 621.12 744.55 601.137 768.248 593.233 Z"/>
</svg>