<?xml version="1.0" encoding="UTF-8" standalone="no"?><!DOCTYPE svg PUBLIC "-//W3C//DTD SVG 1.1//EN" "http://www.w3.org/Graphics/SVG/1.1/DTD/svg11.dtd"><svg xmlns="http://www.w3.org/2000/svg" xmlns:xlink="http://www.w3.org/1999/xlink" version="1.1" viewBox="247 537 1552 981">
    <defs>
    </defs>
    <path transform="translate(0,0)" style="fill: rgb(124,124,124)" stroke-linecap="round" d="M 337.365 538.32 C 339.487 538.144 343.584 538.061 345.767 538.051 C 380.564 537.9 415.439 537.982 450.232 537.996 L 649.114 538.012 L 1259.88 537.993 L 1567.56 537.963 L 1660.53 537.972 C 1703.42 537.983 1735.08 534.24 1768.42 567.468 C 1792.29 591.262 1798.88 613.055 1799 646.489 C 1799.16 692.908 1799.07 739.508 1799.09 785.942 C 1798.56 796.961 1801.74 840.501 1791.69 847.583 C 1772.14 861.359 1753.17 856.387 1732.52 877.903 C 1721.51 889.296 1715.55 904.646 1715.99 920.487 C 1716.59 946.057 1732.96 969.916 1757.28 977.396 C 1789.89 987.423 1798.8 985.226 1799.01 1022.46 L 1799.1 1310.48 L 1799.09 1386.59 C 1799.08 1399.18 1799.59 1427.17 1797.24 1438.41 C 1793.2 1456.85 1783.97 1473.75 1770.64 1487.12 C 1736.89 1520.9 1701.91 1517.88 1658.99 1517.82 L 1592.25 1517.78 L 1209.86 1517.75 L 1086.3 1517.78 C 1063.79 1517.79 1040.62 1518.87 1018.19 1517.09 C 1010.54 1516.48 1003.65 1514.96 997.458 1510.1 C 972.985 1490.94 988.205 1436.9 983.404 1408.9 C 982.695 1404.76 981.292 1400.19 977.46 1397.91 C 974.824 1396.34 971.359 1396.09 968.449 1396.97 C 950.183 1402.46 968.687 1477.48 953.84 1501.26 C 949.155 1508.84 941.595 1514.19 932.891 1516.08 C 920.695 1518.87 865.749 1517.77 850.324 1517.76 L 674.553 1517.75 L 451.599 1517.75 L 382.664 1517.82 C 367.863 1517.85 353.152 1518.11 338.425 1517.08 C 296.236 1514.13 257.978 1480.47 249.898 1438.91 C 246.643 1422.17 248.028 1398.22 248.065 1380.73 L 248.118 1293.49 L 248.065 1110.92 C 248.031 1078.95 247.975 1046.89 248.035 1014.86 C 246.635 981.418 274.616 985.421 296.846 974.874 C 322.835 962.545 334.913 935 329.859 907.59 C 325.955 886.413 305.736 865.662 285.368 860.252 C 244.155 849.305 247.703 841.122 247.905 801.452 L 248.115 749.174 L 248.046 671.511 C 248.026 656.639 247.163 634.858 249.676 620.814 C 252.589 604.921 259.142 589.919 268.822 576.982 C 285.727 554.411 309.804 542.197 337.365 538.32 Z M 309.946 804.101 C 417.064 843.267 417.567 988.718 318.981 1032.82 C 316.001 1034.12 312.99 1035.35 309.951 1036.5 L 309.991 1246.91 C 372.808 1245.72 438.766 1246.72 501.78 1246.73 L 857.44 1246.71 L 1706.19 1246.75 C 1716.38 1246.73 1730.03 1246.35 1739.96 1246.86 C 1740.16 1177.89 1739.18 1107.53 1740.15 1038.74 C 1728.02 1033.14 1717.15 1028.23 1706.57 1019.91 C 1626.7 957.068 1644.61 838.221 1740.04 803.672 L 1740.1 688.936 C 1740.11 670.037 1741.09 649.517 1738.79 630.87 C 1736.91 615.702 1717.53 597.017 1702.11 596.408 C 1684.11 595.697 1665.61 596.025 1647.54 596.021 L 1539.07 596.029 L 1195.57 596.057 L 629.28 596.048 L 443.969 596.054 C 413.629 596.053 378.758 595.237 348.735 596.127 L 346.776 596.19 C 329.404 599.942 312.411 612.988 310.699 631.85 C 309.071 649.776 309.87 669.101 309.89 687.25 L 309.946 804.101 Z M 1147.95 1456.25 L 1192.66 1456.2 C 1191.36 1435.16 1193.53 1411.91 1192.25 1390.8 C 1191.34 1368.63 1197.79 1349.09 1223.59 1349.6 C 1258.73 1350.29 1254.25 1383.01 1254.11 1407.59 L 1254.03 1456.32 C 1268.63 1455.8 1285.39 1456.21 1300.07 1456.41 C 1300.07 1439.18 1299.97 1421.95 1299.79 1404.71 C 1299.69 1389.84 1297.45 1369.94 1307.86 1358.72 C 1323.2 1342.18 1357.6 1347.54 1361.25 1372.17 C 1362.94 1383.61 1362.28 1395.47 1362.21 1406.79 L 1362.06 1456.43 C 1375.89 1456.01 1390.15 1456.25 1404.01 1456.33 L 1403.79 1402.69 C 1403.69 1378.59 1400.92 1350.09 1433.84 1349.37 C 1467.84 1348.63 1464.37 1379.2 1464.27 1402.46 L 1463.96 1456.2 C 1479.01 1456.3 1494.06 1456.27 1509.1 1456.11 C 1509.26 1429.6 1507.6 1399.29 1510.24 1372.92 C 1511.63 1359.07 1525.55 1349.02 1539.75 1349.49 C 1573.1 1350.58 1570.19 1378.68 1570.14 1402.86 L 1570 1456.2 C 1584.03 1456.15 1598.05 1456.18 1612.07 1456.28 C 1612.12 1438.53 1612.06 1420.79 1611.89 1403.04 C 1611.79 1380.37 1608.78 1350.49 1640.92 1349.48 C 1677.2 1348.33 1673.15 1382.14 1672.97 1407.6 L 1672.67 1456.1 C 1692.14 1456.37 1713.94 1459.48 1728.82 1444.29 C 1744.1 1428.7 1740.17 1400.46 1740.13 1379.63 C 1739.97 1354.47 1739.99 1329.31 1740.21 1304.16 L 915.081 1304.24 L 521.198 1304.24 C 451.14 1304.24 379.945 1304.94 310.009 1304.06 L 309.878 1380.48 C 309.82 1420.44 303.859 1457.75 357.895 1456.16 C 363.019 1456.01 368.821 1456.17 374.025 1456.16 C 373.928 1437.78 370.926 1381.08 376.45 1367.23 C 379.242 1360.22 384.76 1353.93 391.861 1351.13 C 400.074 1347.89 411.564 1348.83 419.54 1352.37 C 427.033 1355.71 431.146 1361.48 434.094 1368.89 C 436.631 1378.13 437.128 1448.28 435.267 1456.74 C 444.729 1455.53 468.746 1456.13 479.421 1456.15 L 479.179 1409.21 C 478.908 1385.35 474.3 1350.4 507.991 1349.41 C 543.669 1348.35 540.338 1381.41 540.233 1405.84 L 540.13 1456.25 L 585.121 1456.11 L 584.84 1404.34 C 584.737 1380.31 581.444 1350.51 614.478 1349.51 C 650.965 1348.42 646.363 1383.6 646.203 1408.15 L 646.076 1456.22 L 690.122 1456.21 L 689.799 1403.72 C 689.684 1379.76 685.729 1349.52 720.104 1349.45 C 728.57 1349.43 736.072 1351.49 742.159 1357.61 C 751.475 1366.98 751.105 1381.72 751.046 1393.88 C 750.945 1414.75 750.778 1435.53 750.608 1456.35 C 765.738 1456.2 780.869 1456.18 795.999 1456.31 C 796.136 1428.74 794.592 1400.05 796.859 1372.76 C 798.03 1358.66 813.176 1349.18 826.513 1349.43 C 864.016 1350.13 858.144 1385.46 858.165 1411.75 C 858.177 1426.67 858.082 1441.56 858.046 1456.33 L 900.249 1456.23 C 899.732 1432.98 898.382 1404.6 901.614 1381.99 C 905.475 1354.97 932.999 1349.63 954.467 1348.22 C 1053.94 1341.68 1042.46 1378.4 1042.15 1456.26 C 1056.6 1456.04 1071.55 1456.25 1086.04 1456.25 C 1086.06 1437.41 1085.78 1418.6 1085.79 1399.7 C 1085.79 1384.05 1083.8 1364.93 1098.59 1354.63 C 1109.59 1346.98 1128.91 1347.69 1138.61 1357.28 C 1147.91 1366.48 1148.56 1379.07 1148.23 1391.35 C 1148.16 1413.08 1148.07 1434.62 1147.95 1456.25 Z"/>
    <path transform="translate(0,0)" style="fill: rgb(124,124,124)" stroke-linecap="round" d="M 590.388 882.286 C 609.337 881.104 629.631 882.324 648.723 881.964 C 702.592 880.95 755.141 877.327 787.929 929.559 C 802.387 952.735 806.969 980.734 800.655 1007.31 C 793.078 1039.02 775.554 1057.76 748.47 1074.57 C 764.749 1107.08 781.034 1140.92 795.977 1174.03 C 808.646 1202.09 765.845 1206.59 748.423 1200.9 C 738.585 1197.69 734.628 1192.95 729.944 1183.96 C 715.226 1153.82 698.616 1118.39 685.357 1087.77 C 667.269 1087.92 645.809 1088.49 628.048 1087.44 C 627.783 1108.77 628.348 1130.22 628.136 1151.52 C 627.548 1162.46 629.53 1177.18 626.551 1187.59 C 620.684 1206.61 592.262 1204.37 577.972 1199.84 C 560.335 1194.26 565.175 1155.16 565.188 1139.13 L 565.235 1072.56 C 565.259 1019.19 565.051 965.806 565.728 912.448 C 565.966 893.699 572.409 887.324 590.388 882.286 Z M 724.895 1016.73 C 747.057 987.879 736.498 946.002 698.022 940.867 C 676.56 938.002 650.085 940.656 627.919 939.919 C 627.952 969.764 628.317 1000.22 628.008 1030.01 C 657.042 1030 703.585 1036.23 724.895 1016.73 Z"/>
    <path transform="translate(0,0)" style="fill: rgb(124,124,124)" stroke-linecap="round" d="M 1341.56 1039.56 C 1358.23 1006.53 1375.31 973.705 1392.79 941.095 C 1399.02 929.293 1406.02 916.258 1411.93 904.577 C 1422.47 883.75 1432.1 881.894 1454.53 881.937 C 1474.04 881.974 1484.13 884.439 1489.9 904.813 L 1489.94 1104 C 1489.96 1115.31 1490.81 1179.27 1489.11 1186.08 C 1482.76 1207.16 1448.98 1207.3 1434.52 1195.55 C 1426.29 1187.29 1428.33 1166.31 1428.16 1156.02 C 1427.27 1101.03 1429.57 1045.35 1428.09 990.468 L 1427.59 991.7 C 1420.61 1009.28 1409.62 1027.53 1400.81 1044.5 C 1389.55 1064.69 1380.04 1086.57 1368.51 1106.5 C 1358.31 1125.57 1323.61 1124.75 1314.13 1106.11 C 1295.05 1068.62 1271.69 1029.45 1254.56 991.41 C 1256.43 1027.43 1254.94 1078.39 1254.92 1115.68 L 1254.88 1159.97 C 1254.84 1171.33 1256.99 1191.66 1245.01 1198.06 C 1234.45 1205.54 1201.31 1205.35 1196.81 1190.79 C 1191.96 1175.11 1194 1137.5 1194.01 1120.74 L 1194.07 1012.16 L 1194.01 945.957 C 1193.96 929.289 1189.57 894.551 1205.81 886.155 C 1218.04 879.835 1254.9 878.978 1263.36 892.225 C 1272.58 906.657 1280.9 923.734 1288.9 938.918 C 1306.8 972.285 1324.35 1005.83 1341.56 1039.56 Z"/>
    <path transform="translate(0,0)" style="fill: rgb(124,124,124)" stroke-linecap="round" d="M 1489.9 904.813 L 1489.94 1104 C 1489.96 1115.31 1490.81 1179.27 1489.11 1186.08 C 1489.81 1172.86 1486.33 1160.27 1486.26 1146.12 C 1486 1095.98 1486.03 1045.76 1486.02 995.618 L 1486.02 943.851 C 1486.02 933.397 1484.42 912.986 1489.9 904.813 Z"/>
    <path transform="translate(0,0)" style="fill: rgb(124,124,124)" stroke-linecap="round" d="M 984.561 882.212 C 1035.73 880.898 1038.17 885.97 1053.74 933.912 C 1055.21 938.461 1057.16 943.672 1058.79 948.271 L 1088.73 1033.04 C 1100.82 1066.3 1112.61 1099.68 1124.1 1133.15 C 1129.22 1148.12 1137.36 1169.95 1140.44 1184.92 C 1137.28 1194.35 1134.47 1198.65 1124.2 1200.9 C 1112.46 1203.47 1100.07 1205.4 1088.91 1199.51 C 1078.99 1194.27 1075.21 1183.45 1071.91 1173.47 C 1067.13 1159.04 1062 1144.66 1057.49 1130.11 L 1022.25 1130.2 C 997.134 1130.3 972.017 1130.24 946.902 1130.03 C 944.194 1140.26 939.377 1153.37 936.083 1163.4 C 932.363 1174.75 926.416 1196.8 913.453 1200.61 C 903.113 1205.45 865.329 1204.08 864.173 1188.45 C 863.031 1173.02 879.487 1131.21 884.326 1116.95 L 926.25 996.346 L 947.833 934.159 C 952.032 922.087 956.751 907.416 962.377 896.035 C 966.441 887.813 976.298 884.552 984.561 882.212 Z M 965.573 1071.91 L 1003.94 1071.94 L 1038.38 1071.87 C 1034.23 1059.44 1003.72 963.699 1001.36 960.7 C 992.953 991.147 981.354 1021.46 972.183 1051.75 C 970.236 1058.18 967.951 1065.65 965.573 1071.91 Z"/>
    <path transform="translate(0,0)" style="fill: rgb(124,124,124)" stroke-linecap="round" d="M 782.394 648.988 C 792.898 647.303 846.912 647.604 859.885 647.993 C 882.495 648.672 923.034 646.564 944.03 648.569 C 956.657 652.933 967.617 658.986 973.666 671.592 C 976.212 676.899 977.525 682.62 978.196 688.442 C 979.521 699.914 978.645 712.095 978.716 723.658 C 978.832 742.744 981.901 782.142 975.67 799.461 C 972.087 809.42 964.177 817.644 954.636 822.097 C 950.074 824.227 945.288 825.692 940.264 826.132 C 918.707 828.016 895.931 826.594 874.232 826.614 C 848.422 826.639 821.883 827.933 796.148 826.368 C 790.407 826.019 783.065 825.473 777.718 823.302 C 767.328 819.084 758.449 809.105 754.657 798.668 C 750.441 787.063 750.94 703.906 752.47 688.003 C 753.084 681.621 754.36 674.878 757.355 669.171 C 762.556 659.259 772.284 653.039 782.394 648.988 Z M 813.976 767.889 C 847.706 767.843 883.682 768.522 917.146 767.644 C 917.163 751.354 916.338 720.83 917.734 705.902 L 813.878 705.954 L 813.976 767.889 Z"/>
    <path transform="translate(0,0)" style="fill: rgb(124,124,124)" stroke-linecap="round" d="M 782.394 648.988 C 792.898 647.303 846.912 647.604 859.885 647.993 C 882.495 648.672 923.034 646.564 944.03 648.569 L 935.299 650.2 C 928.498 651.445 920.52 651.714 913.58 651.73 C 871.977 651.823 830.322 652.406 788.731 651.514 C 785.914 651.453 784.663 650.32 782.394 648.988 Z"/>
    <path transform="translate(0,0)" style="fill: rgb(124,124,124)" stroke-linecap="round" d="M 463.787 648.908 C 483.676 646.62 524.79 648.554 546.591 647.972 C 559.249 647.634 617.02 647.297 626.362 649.475 C 636.236 653.434 645.069 659.029 650.675 668.258 C 653.239 672.478 656.808 684.153 656.821 688.969 C 656.869 708.052 659.615 781.095 655.885 794.7 C 652.795 805.856 645.383 815.319 635.291 820.991 C 629.197 824.451 623.287 825.457 616.417 826.063 C 599.451 827.56 471.851 828.022 460.382 824.331 C 450.219 821.061 440.313 811.79 435.961 802.096 C 433.805 797.293 432.735 791.913 432.268 786.693 C 430.689 769.036 432.077 750.298 432.172 732.538 C 432.249 717.978 431.126 702.894 432.407 688.411 C 432.873 683.137 433.942 677.915 435.964 673.003 C 441.268 660.123 451.402 653.747 463.787 648.908 Z M 492.014 767.721 L 564.684 767.918 C 569.417 767.921 593.095 768.146 596.537 767.539 C 596.108 749.142 595.861 724.191 596.812 706.004 C 562.224 705.987 526.311 705.464 491.832 706.082 C 492.048 726.627 492.108 747.174 492.014 767.721 Z"/>
    <path transform="translate(0,0)" style="fill: rgb(124,124,124)" stroke-linecap="round" d="M 463.787 648.908 C 483.676 646.62 524.79 648.554 546.591 647.972 C 559.249 647.634 617.02 647.297 626.362 649.475 C 624.417 650.201 622.408 650.74 620.361 651.087 C 610.181 652.737 559.436 651.8 546.191 651.833 L 494.669 651.945 C 486.615 651.946 469.888 653.232 463.787 648.908 Z"/>
    <path transform="translate(0,0)" style="fill: rgb(124,124,124)" stroke-linecap="round" d="M 1419.58 649.092 C 1429.78 647.269 1460.54 648.015 1471.93 648.025 L 1570.88 647.969 C 1590.62 649.827 1610.41 664.097 1611.39 685.661 C 1612.94 719.747 1612.44 755.057 1611.42 789.193 C 1608.99 822.725 1577.69 827.294 1551.77 826.58 C 1508.25 825.382 1465.04 828.56 1421.69 825.5 C 1404.19 821.799 1390.37 806.63 1389.1 789.588 C 1386.83 759.15 1388.28 729.695 1388.06 699.409 C 1387.87 673.86 1395.08 658.638 1419.58 649.092 Z M 1447.93 767.801 L 1551.91 767.839 L 1552.16 706.048 C 1519.6 706.011 1479.92 707.075 1448.1 705.89 L 1447.93 767.801 Z"/>
    <path transform="translate(0,0)" style="fill: rgb(124,124,124)" stroke-linecap="round" d="M 1419.58 649.092 C 1429.78 647.269 1460.54 648.015 1471.93 648.025 L 1570.88 647.969 C 1568.11 649.824 1566.15 651.015 1562.22 651.138 C 1516.55 652.57 1469.58 652.27 1423.9 651.287 C 1422.77 651.263 1420.37 649.629 1419.58 649.092 Z"/>
    <path transform="translate(0,0)" style="fill: rgb(124,124,124)" stroke-linecap="round" d="M 1106.78 648.979 C 1114.81 647.293 1166.17 647.966 1176.65 647.965 L 1229.14 647.983 C 1241.86 647.993 1253.65 647.556 1266.29 649.285 C 1268.37 650.165 1270.46 651.061 1272.48 652.096 C 1282.8 657.386 1290.97 665.179 1294.23 676.531 C 1298.75 692.216 1298.77 770.871 1296.48 788.489 C 1295.72 794.398 1294.21 799.818 1291.24 805.02 C 1286.16 813.914 1276.54 821.867 1266.53 824.455 C 1253.71 827.767 1127.11 828.032 1108.97 825.856 C 1103.51 825.203 1098.95 823.325 1094.27 820.482 C 1084.38 814.472 1078.13 806.278 1075.42 795.015 C 1072.99 784.856 1072.74 696.198 1074.39 684.861 C 1075.38 678.051 1077.63 671.587 1081.46 665.846 C 1087.41 656.938 1096.36 651.218 1106.78 648.979 Z M 1133.11 767.877 L 1236.13 767.784 C 1235.84 747.159 1235.88 726.532 1236.23 705.908 L 1133.08 705.92 C 1133.23 726.572 1133.24 747.224 1133.11 767.877 Z"/>
    <path transform="translate(0,0)" style="fill: rgb(124,124,124)" stroke-linecap="round" d="M 1106.78 648.979 C 1114.81 647.293 1166.17 647.966 1176.65 647.965 L 1229.14 647.983 C 1241.86 647.993 1253.65 647.556 1266.29 649.285 C 1254.63 653.005 1114.19 653.896 1106.78 648.979 Z"/>
    <path transform="translate(0,0)" style="fill: rgb(124,124,124)" stroke-linecap="round" d="M 434.094 1368.89 C 436.631 1378.13 437.128 1448.28 435.267 1456.74 C 433.99 1456.85 434.723 1456.93 433.158 1456.06 C 431.541 1443.49 429.587 1377.72 434.094 1368.89 Z"/>
</svg>