<?xml version="1.0" encoding="UTF-8" standalone="no"?><!DOCTYPE svg PUBLIC "-//W3C//DTD SVG 1.1//EN" "http://www.w3.org/Graphics/SVG/1.1/DTD/svg11.dtd"><svg xmlns="http://www.w3.org/2000/svg" xmlns:xlink="http://www.w3.org/1999/xlink" version="1.1" viewBox="228 178 1591 1609">
    <defs>
    </defs>
    <path transform="translate(0,0)" style="fill: rgb(124,124,124)" stroke-linecap="round" d="M 1003.52 178.446 C 1005.52 178.231 1007.97 178.26 1010.03 178.217 C 1176.44 175.545 1339.53 224.869 1476.56 319.313 C 1680.65 460.834 1809.24 683.488 1815.93 933.505 C 1817.21 981.368 1816.2 1030.13 1816.45 1078.1 L 1817.86 1346.36 L 1817.96 1453.25 C 1817.99 1477.79 1819.76 1510.58 1814.72 1533.93 C 1799.9 1602.7 1739 1659.26 1667.81 1660.36 C 1667.85 1661.48 1667.89 1662.6 1667.92 1663.71 C 1668.94 1699.63 1660.52 1724.6 1635.97 1751.52 C 1595.32 1796.09 1541.78 1785.11 1488.15 1786.3 C 1444.71 1787.26 1406.42 1788.77 1373.04 1755.93 C 1349.79 1733.07 1340.38 1708.08 1340.1 1675.53 L 1340.12 1365.93 L 1340 1282.21 C 1339.93 1264.35 1338.91 1237.87 1342.05 1221 C 1346.15 1198.44 1357 1177.67 1373.18 1161.44 C 1396.44 1137.97 1426.14 1128.87 1458.5 1128.77 L 1519.42 1128.82 C 1563.61 1128.79 1600.83 1127.16 1635.04 1161.6 C 1648.82 1175.44 1658.23 1193.02 1662.09 1212.16 C 1665.58 1229.24 1664.94 1250.38 1664.95 1268.05 L 1664.98 1331.87 L 1665.84 1548.39 L 1667.03 1548.33 L 1669.01 1548.21 C 1686.59 1547.23 1700.49 1537.76 1702.06 1519.06 C 1704.31 1492.19 1703.35 1464.41 1703.32 1437.37 L 1703.25 1274.23 L 1703.23 1058.72 C 1703.28 1014.37 1704.56 961.14 1701.57 917.302 C 1693.74 797.057 1652.49 681.389 1582.47 583.321 C 1475.34 433.193 1312.21 332.605 1129.96 304.312 C 1095.93 299.144 1061.58 296.387 1027.16 296.063 C 842.384 295.616 665.179 369.444 535.378 500.952 C 415.402 620.117 356.405 769.858 345.26 936.888 C 342.609 976.623 343.22 1015.9 343.206 1055.69 L 343.335 1246.01 L 381.083 1245.96 L 381.044 1244.3 C 380.345 1212.19 389.066 1184.87 411.603 1161.23 C 451.383 1119.49 505.429 1130.01 556.957 1128.88 C 602.761 1127.87 640.785 1127.02 675.936 1161.11 C 712.591 1196.66 710.063 1230.53 709.989 1277.45 L 709.924 1355.22 L 710.069 1666.04 C 710.198 1685.86 710.249 1700.1 702.155 1718.72 C 682.016 1765.07 642.717 1786.17 594.022 1786.39 L 530.127 1786.39 C 484.327 1786.59 448.602 1789.49 412.985 1753.8 C 398.146 1738.83 388.039 1719.81 383.923 1699.13 C 380.007 1680.24 380.812 1659.35 380.811 1639.94 L 380.844 1577.53 L 380.889 1358.09 L 343.49 1358.06 C 345.197 1379.61 343.567 1416.98 344.02 1439.37 C 344.336 1455.02 345.122 1504.33 342.671 1516.99 C 340.74 1527.15 336.317 1536.66 329.8 1544.68 C 302.828 1577.29 247.111 1566.75 233.538 1526.75 C 231.227 1519.94 229.755 1511.13 229.617 1503.95 C 228.873 1465.5 229.113 1426.99 229.069 1388.52 L 228.476 1184.29 L 228.104 1047.85 C 227.994 994.708 227.761 948.782 232.499 895.366 C 246.745 725.686 316.857 565.522 431.859 439.949 C 537.604 324.678 674.588 242.648 826.126 203.848 C 886.857 188.493 941.359 181.589 1003.52 178.446 Z"/>
</svg>