<?xml version="1.0" encoding="UTF-8" standalone="no"?><!DOCTYPE svg PUBLIC "-//W3C//DTD SVG 1.1//EN" "http://www.w3.org/Graphics/SVG/1.1/DTD/svg11.dtd"><svg xmlns="http://www.w3.org/2000/svg" xmlns:xlink="http://www.w3.org/1999/xlink" version="1.1" viewBox="625 297 798 1425">
    <defs>
    </defs>
    <path transform="translate(0,0)" style="fill: rgb(124,124,124)" stroke-linecap="round" d="M 1147.1 297.465 C 1175.31 298.414 1194.26 320.823 1178.13 347.563 C 1167.28 364.774 1145.02 362.084 1127.72 367.307 C 1046.45 391.837 1056.49 462.809 1055.71 528.102 L 1059.67 528.06 C 1265.16 527.545 1422.49 676.483 1422.91 884.045 L 1422.89 1168.93 L 1422.94 1284.17 C 1422.94 1312.51 1423.62 1342.63 1420.73 1370.7 C 1412.44 1459.59 1373.65 1542.87 1310.95 1606.41 C 1236.29 1680.78 1135.1 1722.38 1029.72 1722.04 L 1021.54 1722.07 C 915.117 1722.21 814.169 1683.42 738.58 1607.81 C 675.434 1544 636.153 1460.41 627.327 1371.07 C 624.552 1344 625.116 1315.5 625.107 1288.25 L 625.119 1180.5 L 625.093 903.868 C 625.098 871.536 625.362 847.52 630.595 815.309 C 642.705 744.607 676.318 679.356 726.855 628.448 C 797.54 558.349 890.814 527.718 989.008 527.928 C 988.758 462.096 983.136 403.148 1030.97 350.352 C 1061.35 316.831 1102.19 299.55 1147.1 297.465 Z M 1264.18 1562.95 C 1332.98 1489.9 1357.86 1415.65 1356.94 1316.28 C 1356.39 1256.86 1356.11 1194.75 1357 1135.31 C 1307.19 1135.87 1256.59 1135.31 1206.71 1135.3 L 910.929 1135.33 L 762.042 1135.3 C 742.968 1135.3 706.417 1136.61 689.532 1134.96 C 692.712 1210.9 685.836 1291.19 692.071 1366.41 C 698.337 1442 737.44 1520.41 793.099 1571.09 C 923.497 1691.55 1137.38 1687.85 1264.18 1562.95 Z M 1055.68 725.379 C 1065.01 728.814 1072.22 732.931 1078.39 741.082 C 1083.06 746.273 1088.35 755.079 1089.06 762.237 C 1090.75 779.217 1090.22 796.853 1090.18 814.007 C 1090.1 845.827 1090.52 877.771 1089.91 909.589 C 1089.44 934.12 1078.35 949.773 1056.09 959.385 C 1055.81 984.496 1055.78 1009.61 1056.01 1034.72 C 1056.03 1042.39 1056.47 1064.55 1055.24 1070.55 C 1061.19 1069.63 1077.19 1069.96 1083.92 1069.99 C 1100.39 1070.15 1116.85 1070.2 1133.32 1070.13 L 1356.91 1069.94 L 1356.89 945.569 C 1356.93 873.675 1361.54 817.85 1327.78 750.67 C 1291.18 677.836 1234.29 631.877 1158.15 605.642 C 1119.29 595.116 1096.43 591.632 1055.85 591.809 L 1055.99 682.291 C 1056 690.534 1056.59 718.114 1055.68 725.379 Z M 954.529 592.38 C 826.088 605.08 729.024 681.066 698.168 809.794 C 687.433 854.578 689.846 893.618 689.861 939.126 L 689.942 1070.06 L 760.595 1070.01 C 835.76 1070.01 914.133 1071.21 989.01 1069.95 C 989.001 1033.46 988.442 995.544 989.048 959.174 C 967.684 948.063 956.208 934.714 956.254 909.55 C 956.344 861.423 954.955 812.584 957.035 764.536 C 957.807 746.705 973.197 731.963 988.822 725.031 C 989.034 681.705 987.955 634.472 989.085 591.595 C 981.31 591.647 960.977 591.427 954.529 592.38 Z"/>
    <path transform="translate(0,0)" style="fill: rgb(124,124,124)" stroke-linecap="round" d="M 1078.39 741.082 C 1083.06 746.273 1088.35 755.079 1089.06 762.237 C 1090.75 779.217 1090.22 796.853 1090.18 814.007 C 1090.1 845.827 1090.52 877.771 1089.91 909.589 C 1089.44 934.12 1078.35 949.773 1056.09 959.385 C 1055.81 984.496 1055.78 1009.61 1056.01 1034.72 C 1056.03 1042.39 1056.47 1064.55 1055.24 1070.55 C 1054.22 1070.61 1054.9 1070.64 1053.27 1070.01 C 1050.8 1061.12 1051.41 971.991 1052.72 958.455 C 1071.38 948.401 1085.37 937.973 1086.11 914.872 C 1087.72 864.603 1087.98 813.16 1085.64 762.905 C 1085.3 755.435 1079.66 748.909 1078.39 741.082 Z"/>
    <path transform="translate(0,0)" style="fill: rgb(124,124,124)" stroke-linecap="round" d="M 1055.68 725.379 L 1054.82 725.456 L 1053.34 723.994 C 1050.53 710.671 1052.55 687.133 1052.02 672.592 C 1051.78 665.845 1050.63 590.926 1054.82 590.085 C 1072.59 586.517 1102.22 591.366 1120.85 593.882 C 1128.67 594.937 1154.09 599.776 1158.15 605.642 C 1119.29 595.116 1096.43 591.632 1055.85 591.809 L 1055.99 682.291 C 1056 690.534 1056.59 718.114 1055.68 725.379 Z"/>
</svg>