<?xml version="1.0" encoding="UTF-8" standalone="no"?><!DOCTYPE svg PUBLIC "-//W3C//DTD SVG 1.1//EN" "http://www.w3.org/Graphics/SVG/1.1/DTD/svg11.dtd"><svg xmlns="http://www.w3.org/2000/svg" xmlns:xlink="http://www.w3.org/1999/xlink" version="1.1" viewBox="276 279 1437 1487">
    <defs>
    </defs>
    <path transform="translate(0,0)" style="fill: rgb(124,124,124)" stroke-linecap="round" d="M 1306.78 1096.35 C 1330.32 1094.73 1369.09 1132.89 1387.89 1148.39 L 1520.55 1258.64 L 1634.62 1352.24 C 1654.2 1368.28 1674.13 1384.37 1693.38 1400.8 C 1698.95 1406.04 1704.89 1411.62 1707.3 1419.1 C 1712.28 1434.53 1709.24 1452 1696.74 1462.88 C 1680.22 1477.28 1663.34 1490.95 1646.49 1504.83 L 1552.03 1582.68 L 1429.46 1683.22 C 1402.06 1705.82 1369.58 1733.75 1341.46 1755 C 1336.75 1758.61 1331.49 1761.47 1325.9 1763.46 C 1313.76 1767.62 1300.46 1766.68 1289.04 1760.84 C 1275.17 1753.93 1267.37 1743.11 1262.7 1728.74 C 1258.4 1709.49 1259.96 1684.62 1259.97 1664.45 L 1260.11 1564.91 C 1228.23 1563.93 1191.81 1564.79 1159.49 1564.78 L 974.452 1564.63 L 907.283 1564.7 C 888.591 1564.73 858.278 1568.2 844.762 1553.4 C 834.361 1542 835.949 1520.49 835.953 1505.83 C 835.97 1449.49 835.977 1393.11 835.926 1336.77 C 835.894 1317.69 843.472 1298.75 865.27 1296.42 C 877.043 1295.16 890.64 1296.61 902.679 1296.47 C 941.873 1296.24 981.069 1296.22 1020.26 1296.44 L 1181.33 1296.43 C 1205.36 1296.44 1236.9 1295.25 1260.09 1296.61 L 1259.97 1192.76 C 1259.95 1151.31 1251.71 1103.72 1306.78 1096.35 Z"/>
    <path transform="translate(0,0)" style="fill: rgb(124,124,124)" stroke-linecap="round" d="M 989.562 280.423 C 1002.99 278.796 1044.01 280.607 1057.49 281.304 C 1165.22 286.876 1266.87 315.685 1361.12 368.57 C 1521.5 458.148 1639.34 608.201 1688.35 785.241 C 1725.56 918.408 1720.91 1077.99 1674.4 1208.4 C 1665.99 1231.98 1655.49 1257.6 1643.19 1279.41 C 1618.32 1260.55 1594.42 1240.53 1569.51 1221.64 C 1580.51 1200.89 1594.4 1155.7 1600.42 1132.49 C 1641.89 972.533 1617.39 806.348 1531.71 664.549 C 1450.16 529.584 1318.34 432.538 1165.24 394.758 C 1159.46 392.564 1124.9 386.366 1117.91 385.259 C 1023.83 370.244 927.527 377.77 836.919 407.22 C 687.942 455.857 564.447 561.785 493.695 701.62 C 422.063 846.718 410.202 1014.12 460.661 1167.87 C 436.568 1167.76 394.834 1174.98 368.998 1176.61 C 365.258 1168.77 360.725 1153.16 358.263 1144.33 C 347.24 1105.6 340.416 1065.79 337.909 1025.6 C 325.337 840.871 377.114 663.14 499.677 522.372 C 607.886 398.091 747.594 316.743 910.625 288.74 C 937.242 284.168 962.699 282.247 989.562 280.423 Z"/>
    <path transform="translate(0,0)" style="fill: rgb(124,124,124)" stroke-linecap="round" d="M 1352.52 584.267 C 1363.42 583.795 1374.05 587.648 1382.12 594.986 C 1389.93 601.926 1394.46 611.841 1394.58 622.293 C 1394.61 626.59 1393.26 635.429 1390.74 638.992 C 1380.82 653.033 1366.89 665.651 1354.75 677.821 L 1295.87 736.746 L 1101.91 930.662 C 1121.57 965.705 1114.75 1009.79 1086.42 1038.03 C 1069.76 1054.95 1046.97 1064.42 1023.23 1064.31 C 977.442 1063.78 939.648 1030.92 934.372 984.755 C 933.438 976.577 933.991 967.051 934.137 958.745 C 919.532 948.824 903.239 935.256 888.474 924.552 C 870.268 909.073 849.111 895.361 830.586 880.143 C 818.001 869.804 801.528 861.187 798.435 843.928 C 794.316 824.119 806.074 803.707 826.755 800.459 C 847.123 797.259 871.216 821.156 887.123 833.199 L 975.631 900.357 C 978.08 898.616 980.589 896.962 983.154 895.396 C 1000.33 885.016 1020.91 881.814 1040.43 886.482 C 1059.1 864.861 1085.06 840.25 1105.73 819.557 L 1210.77 713.879 L 1294.36 629.002 C 1306.64 616.715 1319.34 603.545 1332.26 592.022 C 1337.28 587.546 1345.98 585.532 1352.52 584.267 Z M 1031.76 1005.07 C 1048.39 1000.68 1058.31 983.632 1053.9 967.003 C 1049.5 950.375 1032.43 940.477 1015.81 944.906 C 999.216 949.328 989.34 966.354 993.74 982.953 C 998.141 999.552 1015.15 1009.45 1031.76 1005.07 Z"/>
    <path transform="translate(0,0)" style="fill: rgb(124,124,124)" stroke-linecap="round" d="M 301.245 1245.17 C 316.068 1243.92 344.643 1244.78 360.521 1244.79 L 474.196 1244.84 L 662.949 1244.83 C 693.373 1244.85 723.899 1244.67 754.318 1244.91 C 760.107 1245.36 769.184 1245.12 774.554 1247.25 C 790.742 1253.67 797.811 1275.35 791.441 1290.88 C 787.424 1300.67 778.498 1306.95 768.951 1310.87 C 762.114 1312.63 735.421 1312.04 727.098 1312.04 L 644.153 1311.98 C 535.739 1311.94 427.251 1312.18 318.841 1311.95 C 313.726 1311.38 303.779 1312.56 299.052 1310.44 C 268.282 1296.62 269.502 1256.93 301.245 1245.17 Z"/>
    <path transform="translate(0,0)" style="fill: rgb(124,124,124)" stroke-linecap="round" d="M 373.602 1534.15 C 399.07 1533.53 426.759 1534.06 452.361 1534.06 L 604.829 1534.05 L 707.113 1533.96 C 720.411 1533.95 767.075 1531.73 777.576 1538.06 C 802.929 1553.34 798.698 1594.59 765.238 1600.79 C 756.854 1602.03 733.243 1601.46 723.923 1601.46 L 639.717 1601.43 L 466.516 1601.42 C 438.796 1601.41 411.059 1601.36 383.342 1601.43 C 367.226 1601.47 355.053 1596.14 349.183 1579.91 C 345.724 1570.18 346.464 1559.46 351.224 1550.3 C 356.378 1540.4 363.722 1537.12 373.602 1534.15 Z"/>
    <path transform="translate(0,0)" style="fill: rgb(124,124,124)" stroke-linecap="round" d="M 443.952 1390.24 C 467.099 1389.58 492.354 1390.02 515.619 1390.01 L 644.873 1389.97 C 665.117 1390 760.615 1387.68 773.472 1392.18 C 781.368 1394.95 787.75 1402.27 791.049 1409.75 C 794.73 1418.08 795.076 1426.86 791.509 1435.27 C 786.916 1446.1 779.092 1451.13 768.532 1455.23 C 757.564 1456.42 737.403 1455.85 725.625 1455.85 L 649.93 1455.83 L 524.156 1455.87 C 505.474 1455.9 452.617 1458.41 437.2 1453.35 C 413.129 1445.45 409.492 1401.58 443.952 1390.24 Z"/>
    <path transform="translate(0,0)" style="fill: rgb(124,124,124)" stroke-linecap="round" d="M 1019.67 428.2 C 1026.33 428.124 1031.89 428.832 1037.97 431.694 C 1045.76 435.357 1051.87 441.433 1054.47 449.743 C 1058.73 463.343 1058.45 544.134 1056.67 561.148 C 1056.12 566.485 1055.15 571.747 1052.44 576.452 C 1046.51 586.758 1036.31 590.696 1025.47 593.681 C 978.682 590.886 987.876 543.596 987.929 509.191 C 987.98 475.55 978.849 436.991 1019.67 428.2 Z"/>
    <path transform="translate(0,0)" style="fill: rgb(124,124,124)" stroke-linecap="round" d="M 504.338 940.175 C 520.8 939.571 600.266 938.126 612.077 942.619 C 620.009 945.637 627.442 951.66 630.634 959.689 C 633.904 967.915 633.164 979.389 629.203 987.252 C 624.579 996.431 615.996 1001.05 606.569 1003.92 C 588.589 1004.55 506.761 1006.95 495.199 1001 C 487.435 997.009 481.584 989.592 479.034 981.294 C 476.275 972.316 477.35 964.465 481.801 956.325 C 487.034 946.756 494.312 943.135 504.338 940.175 Z"/>
    <path transform="translate(0,0)" style="fill: rgb(124,124,124)" stroke-linecap="round" d="M 1442.04 940.201 C 1460.2 939.965 1537.43 937.215 1549.36 942.758 C 1557.43 946.557 1563.64 953.412 1566.64 961.806 C 1574.08 982.531 1562.75 998.12 1542.81 1003.82 C 1525.02 1004.58 1448.49 1006.7 1436.27 1002.16 C 1428.24 999.186 1421.65 992.42 1418.38 984.573 C 1414.97 976.356 1415.35 967.377 1419.08 959.344 C 1423.9 948.954 1431.59 943.847 1442.04 940.201 Z"/>
    <path transform="translate(0,0)" style="fill: rgb(124,124,124)" stroke-linecap="round" d="M 654.937 592.204 C 686.401 590.298 688.606 605.501 709.393 624.741 C 718.251 634.407 729.396 642.971 737.512 653.233 C 754.088 674.192 746.645 699.675 721.605 706.939 C 716.351 707.568 711.129 707.842 706.045 706.048 C 694.279 701.899 639.413 646.958 634.232 634.458 C 631.086 626.869 630.726 617.284 634.097 609.7 C 638.065 600.773 646.262 595.731 654.937 592.204 Z"/>
</svg>