<?xml version="1.0" encoding="utf-8"?><svg version="1.1" id="Layer_1" xmlns="http://www.w3.org/2000/svg" xmlns:xlink="http://www.w3.org/1999/xlink" x="0px" y="0px" viewBox="0 0 122.88 122.88" style="enable-background:new 0 0 122.88 122.88" xml:space="preserve"><style type="text/css">.st0{fill-rule:evenodd;clip-rule:evenodd;}</style><g><path class="st0" d="M122.88,61.44L122.88,61.44L122.88,61.44c0,8.47-1.5,16.34-4.5,23.58c-0.49,1.19-1.02,2.35-1.59,3.49 c-2.92,5.89-6.89,11.35-11.92,16.36l0,0l0,0l0,0l0,0l0,0c-1.67,1.68-3.4,3.24-5.17,4.68c-1.78,1.45-3.61,2.78-5.48,3.98 c-9.65,6.23-20.58,9.34-32.78,9.34h0v0c-8.47,0-16.33-1.5-23.58-4.5c-1.19-0.49-2.35-1.02-3.49-1.59 c-5.89-2.92-11.35-6.89-16.36-11.92l0,0l0,0l0,0l0,0l0,0c-1.68-1.67-3.24-3.4-4.68-5.17c-1.45-1.78-2.78-3.61-3.98-5.48 C3.11,84.58,0,73.64,0,61.44v0h0c0-8.47,1.5-16.33,4.5-23.58c0.49-1.19,1.02-2.35,1.59-3.49c2.92-5.89,6.89-11.35,11.92-16.36l0,0 l0,0l0,0l0,0l0,0c1.67-1.68,3.4-3.24,5.17-4.68c1.78-1.45,3.61-2.78,5.48-3.98C38.3,3.11,49.24,0,61.44,0h0v0 c8.47,0,16.33,1.5,23.58,4.5c1.19,0.49,2.35,1.02,3.49,1.59c5.89,2.92,11.35,6.89,16.36,11.92l0,0l0,0l0,0l0,0l0,0 c1.68,1.67,3.24,3.4,4.68,5.17c1.45,1.78,2.78,3.61,3.98,5.48C119.77,38.3,122.88,49.24,122.88,61.44L122.88,61.44z M61.44,10.96 c0.11,0,0.22,0,0.32,0v100.96c-0.11,0-0.22,0-0.32,0c-27.88,0-50.48-22.6-50.48-50.48C10.96,33.56,33.56,10.96,61.44,10.96 L61.44,10.96z" fill="#7c7c7c"/></g></svg>