<?xml version="1.0" encoding="UTF-8" standalone="no"?><!DOCTYPE svg PUBLIC "-//W3C//DTD SVG 1.1//EN" "http://www.w3.org/Graphics/SVG/1.1/DTD/svg11.dtd"><svg xmlns="http://www.w3.org/2000/svg" xmlns:xlink="http://www.w3.org/1999/xlink" version="1.1" viewBox="291 136 1466 1708">
    <defs>
    </defs>
    <path transform="translate(0,0)" style="fill: rgb(124,124,124)" stroke-linecap="round" d="M 356.285 870.105 C 348.256 653.9 400.349 473.918 559.277 321.264 C 689.601 196.086 844.227 138.254 1024.09 136.924 C 1213.26 135.527 1381.11 206.317 1511.83 342.663 C 1620.04 453.58 1675.62 580.963 1690.99 734.999 C 1695.8 783.259 1696.08 823.67 1696.03 871.801 C 1706.82 877.608 1713.7 882.579 1722.43 891.444 C 1737.39 906.71 1747.93 925.739 1752.95 946.514 C 1758.78 970.379 1756.12 1020.22 1756.44 1046.77 C 1756.84 1079.6 1756.05 1114.63 1756.51 1147.49 C 1756.98 1182.2 1749.85 1214.78 1723.74 1239.41 C 1690.23 1271.03 1661.01 1270.52 1618.61 1269.94 C 1606 1300.38 1589.15 1322.21 1558 1335.86 C 1548.3 1340.06 1538.07 1342.9 1527.6 1344.33 C 1511.28 1346.69 1442.79 1346.81 1426.23 1344.69 C 1416.02 1343.45 1406.02 1340.92 1396.45 1337.14 C 1369.54 1326.52 1347.99 1305.58 1336.59 1278.99 C 1324.85 1251.05 1327.97 1212.78 1327.99 1182.57 L 1328.05 1070.02 L 1327.99 953.173 C 1327.98 922.044 1324.84 881.37 1336.54 852.886 C 1347.29 825.969 1368.48 804.55 1395.28 793.507 C 1403.64 790.071 1412.4 787.731 1421.36 786.544 C 1430.29 785.419 1439.87 785.608 1448.88 785.512 C 1532.18 784.626 1586.36 777.084 1622.05 867.543 C 1622.05 798.292 1620.38 737.2 1604.24 668.762 C 1598.44 644.195 1590.93 624.645 1584.74 601.509 C 1572.79 608.308 1563.05 613.941 1549.94 618.625 C 1498.22 637.103 1443.5 628.774 1404.6 588.209 C 1394.07 577.038 1386.07 563.685 1377.06 551.3 C 1347.27 510.33 1309.08 474.942 1266.55 447.374 C 1219.6 416.551 1166.85 395.649 1111.53 385.954 C 1096.49 383.216 1077.92 383.455 1064.11 380.001 L 1064.07 1597.94 L 1350.73 1598.05 L 1425.71 1597.96 C 1441.6 1597.94 1459.38 1596.84 1475.08 1599.53 C 1527.93 1608.59 1567.1 1654.89 1569.98 1708.05 C 1570.63 1719.99 1570.08 1732.76 1569.91 1744.75 C 1569.37 1781.5 1578.8 1824.25 1535.06 1840.62 C 1523.9 1844.81 1514.54 1844.08 1503.14 1844.19 L 848.929 1844.4 L 634.456 1844.36 L 564.815 1844.34 C 541.399 1844.31 514.601 1848.05 496.672 1829.75 C 482.676 1815.46 480.092 1803.1 479.975 1783.65 L 479.973 1735.16 C 479.942 1693.54 481.183 1661.63 513.248 1629.58 C 529.022 1613.97 549.186 1603.56 571.042 1599.72 C 584.77 1597.21 608.407 1597.95 623.014 1597.96 L 700.436 1598.01 L 987.146 1597.88 L 987.417 740.477 L 987.29 499.299 C 987.283 464.702 985.735 414.289 987.784 380.738 C 967.763 382.875 952.185 383.585 931.951 387.502 C 821.151 408.86 719.868 476.18 658.303 570.876 C 639.757 599.402 608.765 619.066 575.439 625.226 C 537.066 632.464 497.394 623.949 465.371 601.6 C 457.031 624.591 450.404 648.168 445.545 672.137 C 434.48 727.232 428.672 783.254 428.198 839.447 C 428.123 843.777 427.318 860.861 429.179 863.705 C 433.371 861.456 435.925 850.813 438.236 846.189 C 450.149 822.36 467.89 804.486 492.472 793.663 C 513.432 784.435 534.024 785.446 556.7 785.366 C 574.806 785.26 592.912 785.321 611.017 785.549 C 663.395 786.631 704.44 818.04 717.823 869.616 C 722.311 886.913 721.378 904.45 720.918 922.163 C 718.862 928.153 720.078 983.785 719.96 994.246 L 718.695 1172.35 C 718.704 1188.68 717.875 1236.27 720.129 1249.13 C 720.202 1284.32 684.729 1323.7 653.667 1336.32 C 627.764 1348.38 601.225 1344.84 574.036 1346 C 508.04 1348.81 460.333 1336.93 432.342 1270.26 C 409.286 1269.21 393.889 1272.46 370.72 1265.97 C 342.937 1258.39 319.443 1239.82 305.662 1214.53 C 286.225 1179.45 293.242 1137.71 292.031 1099.16 C 291.472 1081.35 292.087 1062.89 292.059 1045 C 291.947 971.689 282.529 911.422 356.285 870.105 Z M 493.673 533.794 C 556.417 566.563 576.865 555.207 613.869 500.277 C 625.367 483.209 651.84 454.331 667.034 439.745 C 752.026 357.464 863.238 307.678 981.221 299.092 C 991.606 298.256 1042.75 296.712 1051.24 298.438 C 1083.66 301.226 1108.23 303.699 1140.18 311.012 C 1249.03 336.856 1346.65 397.092 1418.56 482.787 C 1426.71 492.414 1434.63 503.201 1442.06 513.366 C 1453.27 528.711 1460.62 541.915 1479.66 548.417 C 1508.13 558.136 1532.58 546.632 1557.2 533.125 C 1478.09 391.584 1358.21 283.178 1200.38 238.505 C 1143.91 222.947 1085.54 215.365 1026.97 215.979 C 1019.35 216.042 1006.92 215.761 999.602 216.433 C 969.655 218.563 945.379 219.249 915.325 224.37 C 775.863 248.132 662.263 313.842 570.121 420.065 C 540.082 454.705 514.408 492.9 493.673 533.794 Z M 552.006 1767.99 L 1458.74 1767.98 C 1471.78 1768.01 1485.03 1767.91 1498.06 1768.1 C 1498.07 1728.76 1507.11 1674.33 1450.91 1672.68 C 1440.85 1672.38 1430.86 1672.38 1420.8 1672.37 L 1362.81 1672.36 L 1178.64 1672.39 L 601.779 1672.49 C 540.962 1675.18 552.381 1723.96 552.006 1767.99 Z M 1620.77 932.091 L 1620.9 1199.02 C 1639.64 1198.59 1657.25 1199.33 1671.71 1185.09 C 1677.84 1178.42 1682.59 1172.19 1684.43 1162.54 C 1686.51 1151.59 1686.06 1140.62 1686.04 1129.42 C 1685.95 1078.56 1686.37 1027.67 1685.86 976.818 C 1685.73 964.774 1680.66 952.042 1671.49 944.013 C 1654.09 928.144 1637.84 934.178 1620.77 932.091 Z M 406.534 932.231 C 361.368 941.429 364.019 969.015 364.004 1006.37 L 364.038 1059.4 L 363.992 1123.56 C 364.005 1153.2 360.001 1182.69 394.733 1195.41 C 406.896 1199.04 417.47 1198.67 430.063 1198.93 L 430.061 932.092 C 422.936 932.096 413.476 931.82 406.534 932.231 Z M 536.018 860.174 C 512.961 867.074 502.567 877.659 502.176 902.372 C 501.893 920.283 501.964 938.27 501.964 956.188 L 501.996 1059.68 L 501.983 1171.43 C 501.993 1207.41 491.507 1267.27 543.916 1271.68 C 560.43 1273.07 577.634 1271.68 594.228 1272.05 C 601.703 1272.22 608.459 1271.98 615.772 1270.16 C 636.745 1263.94 647.704 1248.25 647.839 1226.81 C 647.971 1205.76 648.058 1184.72 648.054 1163.67 L 647.943 1046.79 L 647.987 952.52 C 648.033 884.988 656.929 853.981 571.733 860.2 C 560.967 860.985 547.099 859.768 536.018 860.174 Z M 1435.09 860.175 C 1414.7 866.153 1402.25 876.38 1401.17 899.094 C 1400.3 917.202 1400.71 935.286 1400.74 953.415 L 1400.83 1045.72 L 1400.83 1170.76 C 1400.83 1176.37 1400.52 1182.51 1400.84 1188.07 C 1402.44 1215.94 1393.07 1249.64 1422.68 1265.83 C 1427.87 1268.6 1433.5 1270.45 1439.33 1271.29 C 1450 1272.89 1505.83 1272.75 1515.82 1270.3 C 1534.74 1264.37 1547.89 1249.78 1548.76 1229.49 C 1549.57 1210.62 1549.19 1191.59 1549.15 1172.7 L 1549.02 1074.98 L 1549.07 959.013 C 1549.07 939.53 1549.83 919.713 1548.93 900.28 C 1548.73 895.827 1548.03 891.581 1546.59 887.354 C 1543.18 877.368 1535.88 868.453 1526.15 864.139 C 1509.49 856.747 1455.56 859.974 1435.09 860.175 Z"/>
    <path transform="translate(0,0)" style="fill: rgb(124,124,124)" stroke-linecap="round" d="M 720.918 922.163 C 722.756 994.691 721.02 1073.43 721.103 1146.49 L 721.267 1209.06 C 721.3 1217.9 721.93 1241.8 720.129 1249.13 C 717.875 1236.27 718.704 1188.68 718.695 1172.35 L 719.96 994.246 C 720.078 983.785 718.862 928.153 720.918 922.163 Z"/>
</svg>