<svg xmlns="http://www.w3.org/2000/svg" id="Layer_1" data-name="Layer 1" viewBox="0 0 122.88 104.91"><title>cpu</title><path d="M32.05,18.59H90.83a12.71,12.71,0,0,1,9,3.76h0a12.76,12.76,0,0,1,3.76,9V73.52a12.78,12.78,0,0,1-3.77,9l0,0a12.77,12.77,0,0,1-9,3.76H32.05a12.76,12.76,0,0,1-9-3.77h0a12.76,12.76,0,0,1-3.76-9V31.39a12.75,12.75,0,0,1,3.76-9l0,0a12.78,12.78,0,0,1,9-3.75Zm11.75,44a10.56,10.56,0,0,1-3-.4,5,5,0,0,1-2.31-1.48A7.19,7.19,0,0,1,37,57.66a22.12,22.12,0,0,1-.51-5.25A20,20,0,0,1,37,47.3a7.34,7.34,0,0,1,1.52-3.08,5.18,5.18,0,0,1,2.32-1.5,9.89,9.89,0,0,1,3-.42,21.26,21.26,0,0,1,2.94.18,16.78,16.78,0,0,1,2.18.41,9.87,9.87,0,0,1,1.44.49v4.06c-.34-.07-.78-.15-1.32-.22s-1.15-.13-1.84-.17S45.76,47,45,47a5.33,5.33,0,0,0-1.55.19,1.8,1.8,0,0,0-1,.75,4.34,4.34,0,0,0-.55,1.66,18.62,18.62,0,0,0-.17,2.89,22.45,22.45,0,0,0,.13,2.69,4.68,4.68,0,0,0,.48,1.68,2,2,0,0,0,1,.86A4.83,4.83,0,0,0,45,58c1.36,0,2.47,0,3.32-.06s1.53-.11,2-.18v4.06a9.88,9.88,0,0,1-1.57.46,19.62,19.62,0,0,1-2.11.29c-.81.08-1.77.11-2.88.11Zm9.34-.16v-20h8.77a10.3,10.3,0,0,1,2.1.23,4.61,4.61,0,0,1,2,.94,4.89,4.89,0,0,1,1.46,2.15A11.14,11.14,0,0,1,68,49.64a11.51,11.51,0,0,1-.54,3.89,5.1,5.1,0,0,1-1.4,2.2,4.43,4.43,0,0,1-1.87,1,8,8,0,0,1-2,.25,9.92,9.92,0,0,1-1.07,0c-.36,0-.72-.08-1.07-.15s-.67-.12-1-.19l-.74-.14v6ZM58.36,52.3h3a1.17,1.17,0,0,0,.85-.29,1.63,1.63,0,0,0,.43-.87,7.31,7.31,0,0,0,.12-1.44,5.5,5.5,0,0,0-.15-1.4,1.75,1.75,0,0,0-.44-.85,1.13,1.13,0,0,0-.81-.28h-3V52.3Zm20,10.3a18.12,18.12,0,0,1-3.11-.26,7.15,7.15,0,0,1-2.59-1,4.76,4.76,0,0,1-1.76-2,7.82,7.82,0,0,1-.64-3.42V42.49h5.22V55.85A1.86,1.86,0,0,0,75.79,57a2,2,0,0,0,1,.69,5.41,5.41,0,0,0,3.12,0,2.05,2.05,0,0,0,1-.69,1.92,1.92,0,0,0,.33-1.16V42.49h5.22V55.88a8,8,0,0,1-.63,3.42,4.83,4.83,0,0,1-1.76,2,7.24,7.24,0,0,1-2.58,1,18.07,18.07,0,0,1-3.12.26Zm3.23,29.71h6.83a1.28,1.28,0,0,1,1.27,1.28v10a1.28,1.28,0,0,1-1.27,1.28H81.56a1.28,1.28,0,0,1-1.28-1.28v-10a1.28,1.28,0,0,1,1.28-1.28Zm-15.69,0H72.7A1.29,1.29,0,0,1,74,93.59v10a1.29,1.29,0,0,1-1.28,1.28H65.87a1.28,1.28,0,0,1-1.28-1.28v-10a1.28,1.28,0,0,1,1.28-1.28Zm-15.69,0H57a1.28,1.28,0,0,1,1.28,1.28v10A1.28,1.28,0,0,1,57,104.91H50.18a1.29,1.29,0,0,1-1.28-1.28v-10a1.29,1.29,0,0,1,1.28-1.28Zm-15.69,0h6.84a1.28,1.28,0,0,1,1.27,1.28v10a1.28,1.28,0,0,1-1.27,1.28H34.49a1.28,1.28,0,0,1-1.27-1.28v-10a1.28,1.28,0,0,1,1.27-1.28ZM81.56,0h6.83a1.27,1.27,0,0,1,1.27,1.28v10a1.27,1.27,0,0,1-1.27,1.28H81.56a1.28,1.28,0,0,1-1.28-1.28v-10A1.28,1.28,0,0,1,81.56,0ZM65.87,0H72.7A1.28,1.28,0,0,1,74,1.28v10a1.28,1.28,0,0,1-1.28,1.28H65.87a1.28,1.28,0,0,1-1.28-1.28v-10A1.28,1.28,0,0,1,65.87,0ZM50.18,0H57a1.28,1.28,0,0,1,1.28,1.28v10A1.28,1.28,0,0,1,57,12.59H50.18a1.28,1.28,0,0,1-1.28-1.28v-10A1.28,1.28,0,0,1,50.18,0ZM34.49,0h6.84A1.27,1.27,0,0,1,42.6,1.28v10a1.27,1.27,0,0,1-1.27,1.28H34.49a1.27,1.27,0,0,1-1.27-1.28v-10A1.27,1.27,0,0,1,34.49,0Zm75.8,56.36v6.83a1.28,1.28,0,0,0,1.28,1.28h10a1.28,1.28,0,0,0,1.28-1.28V56.36a1.28,1.28,0,0,0-1.28-1.28h-10a1.28,1.28,0,0,0-1.28,1.28Zm0-15.69v6.84a1.27,1.27,0,0,0,1.28,1.27h10a1.27,1.27,0,0,0,1.28-1.27V40.67a1.27,1.27,0,0,0-1.28-1.27h-10a1.27,1.27,0,0,0-1.28,1.27Zm0,31.38v6.83a1.28,1.28,0,0,0,1.28,1.28h10a1.28,1.28,0,0,0,1.28-1.28V72.05a1.28,1.28,0,0,0-1.28-1.28h-10a1.28,1.28,0,0,0-1.28,1.28Zm0-47.06v6.83a1.28,1.28,0,0,0,1.28,1.28h10a1.28,1.28,0,0,0,1.28-1.28V25a1.28,1.28,0,0,0-1.28-1.28h-10A1.28,1.28,0,0,0,110.29,25ZM12.59,56.36v6.83a1.28,1.28,0,0,1-1.28,1.28h-10A1.28,1.28,0,0,1,0,63.19V56.36a1.28,1.28,0,0,1,1.28-1.28h10a1.28,1.28,0,0,1,1.28,1.28Zm0-15.69v6.84a1.27,1.27,0,0,1-1.28,1.27h-10A1.27,1.27,0,0,1,0,47.51V40.67A1.27,1.27,0,0,1,1.28,39.4h10a1.27,1.27,0,0,1,1.28,1.27Zm0,31.38v6.83a1.28,1.28,0,0,1-1.28,1.28h-10A1.28,1.28,0,0,1,0,78.88V72.05a1.28,1.28,0,0,1,1.28-1.28h10a1.28,1.28,0,0,1,1.28,1.28Zm0-47.06v6.83a1.28,1.28,0,0,1-1.28,1.28h-10A1.28,1.28,0,0,1,0,31.82V25a1.28,1.28,0,0,1,1.28-1.28h10A1.28,1.28,0,0,1,12.59,25Zm78.24,0H32.05a6.34,6.34,0,0,0-4.5,1.86h0a6.34,6.34,0,0,0-1.86,4.5V73.52a6.38,6.38,0,0,0,6.37,6.37H90.83A6.34,6.34,0,0,0,95.32,78h0a6.3,6.3,0,0,0,1.87-4.49V31.39a6.38,6.38,0,0,0-1.87-4.5h0A6.32,6.32,0,0,0,90.83,25Z" fill="#7c7c7c"/></svg>