<?xml version="1.0" encoding="UTF-8" standalone="no"?><!DOCTYPE svg PUBLIC "-//W3C//DTD SVG 1.1//EN" "http://www.w3.org/Graphics/SVG/1.1/DTD/svg11.dtd"><svg xmlns="http://www.w3.org/2000/svg" xmlns:xlink="http://www.w3.org/1999/xlink" version="1.1" viewBox="177 310 1651 1423">
    <defs>
    </defs>
    <path transform="translate(0,0)" style="fill: rgb(124,124,124)" stroke-linecap="round" d="M 826.626 311.404 C 833.69 310.612 840.367 310.844 847.428 310.975 C 978.715 313.413 1105.21 387.82 1167.17 504.298 C 1201.67 569.135 1214.65 642.137 1208.04 715.13 C 1206.38 733.403 1204.4 751.204 1198.98 768.856 C 1212.03 771.044 1225.65 772.179 1238.53 774.914 C 1353.03 799.226 1450.5 878.805 1495.16 987.355 C 1502.49 1005.16 1507.96 1021.14 1513.9 1039.51 C 1527.84 1029.87 1555.87 1015.47 1571.22 1007.01 L 1645.14 965.828 C 1663.73 955.53 1682.37 945.192 1700.72 934.48 C 1707.38 930.376 1713.82 923.204 1718.95 917.104 C 1735 898.038 1764.21 891.088 1784.82 908.259 C 1794.69 916.604 1800.84 928.528 1801.92 941.409 C 1802.64 951.01 1799.83 960.328 1796.13 969.085 C 1782.52 1001.27 1764.11 1032.34 1748.51 1063.7 C 1719.8 1121.39 1694.26 1179.89 1673.74 1241.05 C 1668.48 1256.72 1657.02 1313.06 1647.47 1321.56 C 1633.29 1334.19 1536.07 1343.22 1509.88 1360.32 C 1498.71 1367.62 1486.58 1384.76 1477.57 1395.16 C 1498.48 1394.55 1522.32 1395.06 1543.46 1395.05 L 1671.13 1395.01 L 1761.34 1395.03 C 1774.24 1395.02 1787.18 1394.84 1800 1394.72 C 1823.11 1394.64 1834.44 1420.98 1823.76 1439.82 C 1813.7 1457.56 1786.47 1453.19 1768.56 1453.19 C 1749.55 1453.33 1730.55 1453.38 1711.55 1453.31 L 1517.37 1453.16 C 1499.43 1453.1 1481.45 1453.06 1463.52 1453.07 C 1457.73 1453.07 1438 1454.41 1434.53 1452.27 L 1434.52 1449.33 C 1432.57 1449.14 1431.32 1450.01 1429.86 1451.67 C 1415.34 1468.12 1400.08 1486.74 1379.47 1495.76 C 1331.74 1516.64 1264.4 1504.11 1241.48 1453.13 C 1201.03 1454.14 1158.77 1452.55 1118.02 1453.11 C 1091.74 1452.66 1065.08 1454.31 1038.89 1452.37 C 1023.72 1451.24 1014.54 1436.06 1014.75 1422.11 C 1014.84 1414.23 1018.13 1406.74 1023.86 1401.34 C 1033.27 1392.3 1042.34 1392.95 1054.39 1392.98 C 1069.95 1393.02 1085.53 1393.07 1101.1 1393.1 L 1237.14 1393.23 C 1255.47 1321.93 1316.83 1297.72 1360.84 1246.35 C 1364.41 1242.18 1365.86 1236.56 1367.37 1231.31 C 1379.87 1188.12 1386.54 1144.12 1399.49 1101.44 C 1402.31 1092.14 1446.82 1072.63 1457.06 1068.94 C 1448.91 1035.76 1438.94 1008.02 1421.96 978.138 C 1383.59 909.946 1319.53 859.946 1244.06 839.292 C 1092.6 798.341 931.685 882.894 891.818 1037.22 C 872.622 1113.97 883.003 1195.14 920.899 1264.59 C 925.553 1272.96 930.101 1280.43 935.327 1288.57 C 942.282 1299.13 967.92 1324.96 959.188 1339.13 C 933.633 1380.62 904.878 1357.27 887.234 1328.95 C 870.154 1301.54 862.144 1287.08 849.911 1261.2 C 838.115 1288.94 822.651 1314.97 803.933 1338.6 C 745.98 1412.8 660.971 1460.98 567.544 1472.6 C 477.039 1483.05 386.098 1457.05 314.792 1400.34 C 238.737 1339.85 190.096 1251.4 179.747 1154.78 C 169.269 1063.59 195.368 971.966 252.326 899.987 C 305.624 833.432 383.319 783.088 468.547 770.035 C 478.51 768.509 488.818 767.679 498.868 766.563 C 493.61 750.763 489.91 730.415 488.614 713.881 C 480.433 609.475 507.153 515.83 575.989 435.865 C 628.019 375.425 701.47 333.107 779.606 317.181 C 794.635 314.118 811.347 312.667 826.626 311.404 Z M 560.821 766.982 C 574.373 767.445 586.08 769.59 599.347 772.129 C 671.557 786.416 737.409 823.149 787.502 877.085 C 814.531 906.045 832.84 933.114 850.066 968.639 L 856.041 956.481 C 898.784 873.331 972.569 810.372 1061.41 781.244 C 1086.2 773.276 1110.57 769.743 1136.35 767.624 C 1181.93 599.983 1091.4 430.506 921.574 386.769 C 897.928 380.679 857.408 374.562 833.201 377.446 C 766.185 379.545 715.84 397.589 663.293 438.556 C 559.366 519.581 533.188 643.383 560.821 766.982 Z M 517.042 829.616 C 356.765 836.084 232.077 971.254 238.538 1131.53 C 244.999 1291.81 380.163 1416.5 540.441 1410.05 C 700.728 1403.59 825.431 1268.42 818.97 1108.13 C 812.508 947.846 677.329 823.148 517.042 829.616 Z M 1394.88 1294.74 C 1378.06 1310.05 1361.37 1325.51 1344.83 1341.12 C 1326.42 1358.16 1290.73 1386.25 1290.27 1413.82 C 1289.76 1444.04 1320.99 1452.69 1346.47 1449.26 C 1373.44 1440.64 1399.76 1400.98 1420.32 1380.72 C 1427.15 1374 1445.4 1354.1 1450.29 1346.96 C 1442.85 1339.6 1401.23 1298.64 1394.88 1294.74 Z M 1478.87 1291.59 L 1492.99 1305.16 C 1530.51 1288.92 1569.49 1286.06 1605.48 1274.78 C 1623.64 1203.39 1653.79 1134.76 1683.52 1067.49 C 1688.42 1056.39 1726.49 983.858 1726.72 980.111 C 1715.56 987.034 1703.76 994.062 1692.26 1000.43 C 1610.38 1045.73 1529.32 1094.14 1446.66 1137.89 C 1436.54 1171.62 1430.4 1207.58 1417.43 1240.59 C 1423.48 1246.21 1429.44 1251.94 1435.29 1257.77 L 1486.03 1200.98 C 1504.43 1180.23 1519.68 1152.19 1551.24 1163.09 C 1558.54 1167.77 1564.1 1172.49 1566.34 1181.54 C 1568.17 1188.85 1566.82 1196.6 1562.62 1202.86 C 1557.07 1211.21 1538.03 1230.94 1529.93 1239.32 C 1516.09 1253.66 1494.07 1279.49 1478.87 1291.59 Z"/>
    <path transform="translate(0,0)" style="fill: rgb(124,124,124)" stroke-linecap="round" d="M 524.083 932.443 C 570.768 930.136 612.55 952.348 639.026 990.238 C 647.719 1003.31 659.12 1019.14 655.715 1035.71 C 652.203 1052.81 636.499 1061.54 619.862 1057.95 C 601.401 1053.96 599.734 1041.95 590.739 1028.79 C 579.333 1012.1 559.459 998.426 539.499 994.695 C 519.33 990.811 499.435 996.231 482.684 1007.34 C 466.884 1017.81 453.159 1043.03 450.451 1061.47 C 446.1 1091.1 444.666 1143.46 452.505 1171.88 C 455.658 1182.97 460.672 1193.45 467.334 1202.86 C 500.288 1249.47 570.008 1250.39 595.329 1195.95 C 601.133 1183.47 603.192 1171.88 604.961 1158.33 C 576.609 1157.81 534.721 1168.54 531.375 1129.6 C 530.349 1116.54 541.947 1101.56 554.605 1100.4 C 569.364 1099.04 585.899 1100.23 600.837 1100.13 C 627.609 1099.95 659.291 1093.94 663.049 1130.16 C 685.003 1341.42 383.306 1348.51 390.018 1137.87 C 391.902 1078.75 381.978 1026.74 426.204 976.924 C 453.246 946.464 484.119 935.283 524.083 932.443 Z"/>
    <path transform="translate(0,0)" style="fill: rgb(124,124,124)" stroke-linecap="round" d="M 761.512 479.285 L 824.351 479.121 C 856.821 479.126 890.241 477.846 919.305 494.984 C 945.393 510.7 964.336 535.957 972.118 565.403 C 985.376 617.196 961.793 682.723 906.458 696.909 C 917.664 712.891 928.446 733.334 939.218 750.145 C 947.221 764.215 958.327 779.072 965.404 793.4 C 975.984 814.818 951.436 836.805 930.149 831.915 C 917.924 829.107 913.708 823.491 907.071 814.118 C 887.126 777.936 863.326 742.549 843.072 705.977 C 828.387 705.828 813.701 705.834 799.016 705.993 L 799.449 764.126 C 799.584 787.377 804.369 819.019 776.193 826.618 C 759.369 831.155 738.751 822.344 735.368 804.664 C 732.973 792.146 734.031 772.569 734.028 759.552 L 734.083 681.185 L 734.063 570.306 C 734.043 550.27 733.892 530.346 734.384 510.312 C 734.822 492.459 743.195 481.868 761.512 479.285 Z M 799.27 645.652 L 835.701 645.653 C 859.2 645.744 878.925 647.186 898.064 631.329 C 920.255 609.044 921.871 579.481 898.244 557.764 C 876.652 537.917 827.631 541.985 799.276 542.106 C 799.041 576.49 799.733 611.42 799.27 645.652 Z"/>
    <path transform="translate(0,0)" style="fill: rgb(124,124,124)" stroke-linecap="round" d="M 1093.33 940.283 C 1122.58 938.962 1158.52 939.384 1187.35 940.661 C 1243.77 943.161 1291.7 993.301 1283.7 1050.96 C 1280.28 1075.57 1272.46 1090.03 1252.94 1105.57 C 1258.61 1108.92 1264.3 1112.28 1269.38 1116.44 C 1302.21 1143.33 1305.27 1194.68 1287.14 1230.76 C 1282.92 1239.14 1277.47 1245.77 1271.49 1252.93 C 1258.52 1264.29 1249.59 1271.75 1232.95 1277.92 C 1224.54 1281 1215.77 1283 1206.86 1283.88 C 1176.47 1287.12 1143.22 1284 1112.62 1285.25 C 1061.96 1287.31 1067.67 1257.39 1067.69 1220.64 L 1067.7 1148.66 L 1067.74 1032.33 C 1067.76 1011.77 1067.43 991.181 1068.09 970.638 C 1068.63 953.73 1077.37 944.509 1093.33 940.283 Z M 1127.98 1225.96 L 1166.84 1226.13 C 1188.71 1226.19 1206.77 1228.02 1224.4 1212.9 C 1232.44 1203.64 1238.36 1193.8 1237.01 1180.82 C 1231.65 1129.11 1165.39 1140.81 1127.96 1139.96 L 1127.98 1225.96 Z M 1127.69 1080.13 C 1152.97 1080.17 1190.84 1084.54 1210.24 1068.53 C 1232.37 1044.22 1222.32 1007.58 1189.07 1001.91 C 1169.76 998.616 1147.79 1000.73 1127.89 999.91 C 1127.91 1025.92 1128.47 1054.31 1127.69 1080.13 Z"/>
    <path transform="translate(0,0)" style="fill: rgb(124,124,124)" stroke-linecap="round" d="M 1042.58 1532.33 C 1096.63 1531.64 1151.8 1532.18 1205.9 1532.17 L 1514.04 1532.23 L 1735.44 1532.39 C 1756.19 1532.59 1777 1531.84 1797.73 1532.29 C 1803.89 1532.42 1808.99 1533.36 1814.31 1536.72 C 1821.01 1540.95 1825.75 1547.67 1827.48 1555.4 C 1829.25 1563.71 1827.6 1572.38 1822.9 1579.45 C 1817.32 1587.76 1811.64 1590.43 1802.25 1592.03 L 1303.3 1592.13 L 1132 1592.19 C 1102.53 1592.22 1072.7 1592.5 1043.23 1592.06 C 1037.22 1591.97 1032.73 1591.13 1027.61 1587.82 C 1021 1583.51 1016.37 1576.77 1014.71 1569.06 C 1010.62 1549.73 1024.29 1535.61 1042.58 1532.33 Z"/>
    <path transform="translate(0,0)" style="fill: rgb(124,124,124)" stroke-linecap="round" d="M 1038.3 1672.59 L 1537.18 1672.69 L 1715.85 1672.51 C 1743.7 1672.49 1771.57 1672.02 1799.4 1672.44 C 1813.47 1672.66 1824.27 1683.54 1826.32 1697.14 C 1827.61 1705.67 1825.4 1714.36 1820.21 1721.25 C 1815.32 1727.69 1809.07 1730.82 1801.25 1732.06 C 1760 1733.74 1711.93 1732.62 1670 1732.6 L 1445 1732.56 L 1178.05 1732.57 C 1134.91 1732.55 1091.65 1732.72 1048.53 1732.48 C 1042.94 1732.45 1035.78 1731.98 1030.84 1729.4 C 1023.11 1725.44 1017.4 1718.4 1015.12 1710.01 C 1010.24 1692.53 1020.91 1676.65 1038.3 1672.59 Z"/>
    <path transform="translate(0,0)" style="fill: rgb(124,124,124)" stroke-linecap="round" d="M 1692.13 1266.18 C 1711.86 1265.73 1796.37 1263.55 1809.94 1268.08 C 1816.99 1270.44 1822.08 1276.87 1824.92 1283.5 C 1828.24 1291.24 1828.97 1299.53 1825.77 1307.4 C 1822 1316.67 1815.96 1322.1 1806.79 1325.79 C 1791.88 1329.05 1765.53 1326.92 1748.33 1326.97 C 1715.17 1327.06 1660.89 1337.41 1672.67 1283.65 C 1674.6 1274.84 1684.16 1269.08 1692.13 1266.18 Z"/>
</svg>