<svg xmlns="http://www.w3.org/2000/svg" shape-rendering="geometricPrecision" text-rendering="geometricPrecision" image-rendering="optimizeQuality" fill-rule="evenodd" clip-rule="evenodd" viewBox="0 0 512 231.72"><path fill-rule="nonzero" d="M25.18 60.72H263.5V58.9c0-2.53 1.04-4.83 2.7-6.5a9.134 9.134 0 016.51-2.72h3.11c.16-4.81.87-9.64 1.6-14.53 1.43-9.8 2.91-19.87-.49-29.37-.81-2.24.36-4.72 2.61-5.53 2.24-.8 4.72.37 5.52 2.61 4.15 11.59 2.52 22.72.93 33.54-.67 4.52-1.33 8.98-1.49 13.28h2.74c2.54 0 4.85 1.04 6.52 2.71a9.2 9.2 0 012.7 6.51v1.82h34.3c6.93 0 13.23 2.83 17.79 7.39 4.56 4.56 7.39 10.86 7.39 17.79v120.63c0 6.92-2.83 13.21-7.39 17.78s-10.86 7.41-17.79 7.41H25.18c-6.93 0-13.23-2.84-17.79-7.4l-.24-.26C2.74 219.52 0 213.33 0 206.53V85.9c0-6.93 2.83-13.23 7.39-17.79 4.56-4.56 10.86-7.39 17.79-7.39zm425.32-2.2v-6.18c0-3.82-.6-6.94-1.66-9.42-1.19-2.78-3-4.79-5.17-6.07-2.24-1.33-4.97-1.96-7.9-1.96-3.29 0-6.8.79-10.2 2.24-2.19.93-4.74-.1-5.67-2.29-.94-2.2.09-4.74 2.28-5.68 4.49-1.91 9.17-2.94 13.59-2.94 4.43 0 8.66 1.01 12.31 3.18 3.71 2.19 6.76 5.54 8.73 10.14 1.51 3.53 2.37 7.78 2.37 12.8v6.18h2.81c13.73 0 26.22 5.62 35.29 14.68l.03.02c9.06 9.07 14.69 21.57 14.69 35.31v73.18c0 13.61-5.53 26.01-14.45 35.06l-.24.26c-9.06 9.06-21.56 14.69-35.32 14.69h-13.25c-13.75 0-26.26-5.63-35.32-14.69-9.06-9.06-14.69-21.57-14.69-35.32v-73.18c0-13.76 5.63-26.26 14.69-35.32 9.08-9.06 21.58-14.69 35.32-14.69h1.76zm-43.09 70.24h43.62v-13.32c-4.14-1.71-7.09-5.81-7.09-10.55V91.75c0-4.74 2.94-8.84 7.09-10.56v-14h-2.29c-11.37 0-21.71 4.65-29.19 12.13-7.49 7.51-12.14 17.85-12.14 29.21v20.23zm52.29 0h43.62v-20.23c0-11.38-4.64-21.71-12.12-29.19-7.5-7.5-17.84-12.15-29.21-12.15h-2.29V81.2c4.15 1.72 7.09 5.82 7.09 10.55v13.14c0 4.72-2.95 8.83-7.09 10.55v13.32zm43.62 8.67h-95.91v44.28c0 11.36 4.65 21.7 12.14 29.19 7.49 7.49 17.83 12.14 29.19 12.14h13.25c11.36 0 21.7-4.65 29.19-12.14l.22-.21c7.36-7.46 11.92-17.71 11.92-28.98v-44.28zM32.28 89.59H54.9c3.09 0 5.59 2.5 5.59 5.59v19.08c0 3.09-2.5 5.59-5.59 5.59H32.28c-3.09 0-5.6-2.5-5.6-5.59V95.18c0-3.09 2.51-5.59 5.6-5.59zm223.97 82.93h22.62c3.09 0 5.6 2.51 5.6 5.6v19.07c0 3.09-2.51 5.6-5.6 5.6h-22.62c-3.09 0-5.6-2.51-5.6-5.6v-19.07c0-3.09 2.51-5.6 5.6-5.6zm-44.79 0h22.62c3.08 0 5.59 2.51 5.59 5.6v19.07c0 3.09-2.51 5.6-5.59 5.6h-22.62c-3.09 0-5.6-2.51-5.6-5.6v-19.07c0-3.09 2.51-5.6 5.6-5.6zm-134.39 0h112.21c3.05 0 5.54 2.51 5.54 5.6v19.07c0 3.09-2.49 5.6-5.54 5.6H77.07c-3.06 0-5.54-2.51-5.54-5.6v-19.07c0-3.09 2.48-5.6 5.54-5.6zm-44.79 0H54.9c3.09 0 5.59 2.51 5.59 5.6v19.07c0 3.09-2.5 5.6-5.59 5.6H32.28c-3.09 0-5.6-2.51-5.6-5.6v-19.07c0-3.09 2.51-5.6 5.6-5.6zm223.97-41.24h22.62c3.09 0 5.6 2.51 5.6 5.6v19.06c0 3.09-2.51 5.6-5.6 5.6h-22.62c-3.09 0-5.6-2.51-5.6-5.6v-19.06c0-3.09 2.51-5.6 5.6-5.6zm-44.79 0h22.62c3.08 0 5.59 2.51 5.59 5.6v19.06c0 3.09-2.51 5.6-5.59 5.6h-22.62c-3.09 0-5.6-2.51-5.6-5.6v-19.06c0-3.09 2.51-5.6 5.6-5.6zm-44.8 0h22.62c3.09 0 5.6 2.51 5.6 5.6v19.06c0 3.09-2.51 5.6-5.6 5.6h-22.62c-3.09 0-5.6-2.51-5.6-5.6v-19.06c0-3.09 2.51-5.6 5.6-5.6zm-44.79 0h22.62c3.09 0 5.59 2.51 5.59 5.6v19.06c0 3.09-2.5 5.6-5.59 5.6h-22.62c-3.09 0-5.6-2.51-5.6-5.6v-19.06c0-3.09 2.51-5.6 5.6-5.6zm-44.8 0h22.62c3.09 0 5.6 2.51 5.6 5.6v19.06c0 3.09-2.51 5.6-5.6 5.6H77.07c-3.09 0-5.6-2.51-5.6-5.6v-19.06c0-3.09 2.51-5.6 5.6-5.6zm-44.79 0H54.9c3.09 0 5.59 2.51 5.59 5.6v19.06c0 3.09-2.5 5.6-5.59 5.6H32.28c-3.09 0-5.6-2.51-5.6-5.6v-19.06c0-3.09 2.51-5.6 5.6-5.6zm268.76-.51h22.62c3.1 0 5.61 2.53 5.61 5.66v60.32c0 3.12-2.51 5.66-5.61 5.66h-22.62c-3.09 0-5.6-2.54-5.6-5.66v-60.32c0-3.13 2.51-5.66 5.6-5.66zm0-41.18h22.62c3.1 0 5.6 2.5 5.6 5.59v19.08c0 3.09-2.5 5.59-5.6 5.59h-22.62c-3.08 0-5.59-2.5-5.59-5.59V95.18c0-3.09 2.51-5.59 5.59-5.59zm-44.79 0h22.62c3.09 0 5.6 2.5 5.6 5.59v19.08c0 3.09-2.51 5.59-5.6 5.59h-22.62c-3.09 0-5.6-2.5-5.6-5.59V95.18c0-3.09 2.51-5.59 5.6-5.59zm-44.79 0h22.62c3.08 0 5.59 2.5 5.59 5.59v19.08c0 3.09-2.51 5.59-5.59 5.59h-22.62c-3.09 0-5.6-2.5-5.6-5.59V95.18c0-3.09 2.51-5.59 5.6-5.59zm-44.8 0h22.62c3.09 0 5.6 2.5 5.6 5.59v19.08c0 3.09-2.51 5.59-5.6 5.59h-22.62c-3.09 0-5.6-2.5-5.6-5.59V95.18c0-3.09 2.51-5.59 5.6-5.59zm-44.79 0h22.62c3.09 0 5.59 2.5 5.59 5.59v19.08c0 3.09-2.5 5.59-5.59 5.59h-22.62c-3.09 0-5.6-2.5-5.6-5.59V95.18c0-3.09 2.51-5.59 5.6-5.59zm-44.8 0h22.62c3.09 0 5.6 2.5 5.6 5.59v19.08c0 3.09-2.51 5.59-5.6 5.59H77.07c-3.09 0-5.6-2.5-5.6-5.59V95.18c0-3.09 2.51-5.59 5.6-5.59zm190.76-20.2H25.18c-4.53 0-8.66 1.86-11.65 4.86-3 2.99-4.86 7.11-4.86 11.65v120.63c0 4.45 1.78 8.5 4.65 11.47l.21.19c2.99 2.99 7.12 4.85 11.65 4.85h305.58c4.54 0 8.66-1.86 11.66-4.85 2.99-2.98 4.85-7.12 4.85-11.66V85.9c0-4.54-1.86-8.66-4.85-11.65-3-3-7.12-4.86-11.66-4.86h-38.64c-2.39 0-4.33-1.94-4.33-4.33V58.9c0-.14-.07-.28-.17-.38a.512.512 0 00-.38-.16h-14.53c-.14 0-.28.06-.38.16-.1.09-.16.23-.16.38v6.16c0 2.39-1.94 4.33-4.34 4.33z" fill="#7c7c7c"/></svg>