<?xml version="1.0" encoding="UTF-8" standalone="no"?><!DOCTYPE svg PUBLIC "-//W3C//DTD SVG 1.1//EN" "http://www.w3.org/Graphics/SVG/1.1/DTD/svg11.dtd"><svg xmlns="http://www.w3.org/2000/svg" xmlns:xlink="http://www.w3.org/1999/xlink" version="1.1" viewBox="149 227 1758 1589">
    <defs>
    </defs>
    <path transform="translate(0,0)" style="fill: rgb(124,124,124)" stroke-linecap="round" d="M 1342.28 848.276 C 1344.53 848.203 1346.79 848.155 1349.04 848.131 C 1402.11 847.659 1439.21 878.478 1459.76 925.343 C 1462.35 931.246 1466.96 939.653 1470.36 945.144 C 1490.54 977.75 1510.51 1010.5 1530.68 1043.11 C 1614.19 1177.87 1696.86 1313.15 1778.66 1448.96 L 1853.12 1571.99 C 1866.63 1594.43 1880.81 1617.57 1893.24 1640.55 C 1902.33 1657.37 1906.61 1676.83 1906.61 1696 C 1906.62 1727.3 1894.03 1757.29 1871.67 1779.19 C 1854.27 1796.73 1832.1 1808.77 1807.91 1813.8 C 1790.72 1817.3 1763.61 1816.46 1745.25 1816.47 L 1659.23 1816.37 L 1363.55 1816.4 C 1323.23 1817.06 1281.49 1816.48 1241.06 1816.45 L 1052.49 1816.49 L 960.638 1816.33 C 918.834 1816.26 890.938 1820.16 854.955 1794.15 C 807.58 1759.92 790.581 1697.68 815.091 1644.43 C 825.447 1621.94 841.9 1597.25 854.812 1576.03 L 914.397 1477.53 L 1091.55 1182.98 L 1224.9 961.009 C 1230.24 952.227 1236.16 942.891 1241.14 933.999 C 1248.92 920.084 1255.25 903.45 1265.12 890.922 C 1285.14 865.502 1310.76 852.438 1342.28 848.276 Z M 1356.5 1728.93 L 1654.47 1728.94 L 1741.47 1729 C 1749.86 1729.01 1758.28 1729.15 1766.67 1729.02 C 1783.17 1728.79 1798.03 1731.08 1810.81 1718.44 C 1817.12 1712.17 1820.63 1703.62 1820.54 1694.73 C 1820.52 1689.91 1819.42 1685.16 1817.33 1680.82 C 1813.03 1671.8 1791.97 1639.24 1785.78 1629.13 L 1722.46 1524.61 C 1620.97 1354.86 1518.56 1185.67 1415.23 1017.03 C 1403.68 998.151 1395.86 986.226 1389.09 964.956 C 1384.14 949.38 1367.63 935.164 1349.91 936.251 C 1322.31 941.881 1318.49 962.689 1309.96 985.546 C 1307.52 992.091 1303.12 999.074 1299.77 1005.23 C 1264.55 1063.27 1229.35 1121.6 1193.98 1179.53 L 1002.85 1492.55 L 931.958 1608.82 C 918.232 1631.1 904.196 1653.67 890.575 1675.58 C 880.23 1692.23 882.596 1714.01 899.698 1723.83 C 913.471 1731.73 950.205 1728.98 966.496 1728.98 L 1060.32 1728.97 L 1356.5 1728.93 Z"/>
    <path transform="translate(0,0)" style="fill: rgb(124,124,124)" stroke-linecap="round" d="M 1571.67 1397.33 C 1591.6 1394.51 1613.71 1405.64 1625.26 1421.71 C 1634.98 1435.42 1638.77 1452.47 1635.75 1469 C 1628.48 1510.49 1586.94 1531.94 1547.21 1525.04 C 1536.68 1529.93 1525.43 1535.5 1514.55 1539.36 C 1521.66 1548.83 1527.61 1560.92 1534.29 1570.85 C 1545.97 1588.24 1553.35 1610.21 1536.33 1627.58 C 1528.78 1635.15 1518.5 1639.37 1507.81 1639.29 C 1459.47 1639.12 1453.79 1559.12 1419.39 1558.42 C 1366.7 1557.44 1314.11 1558.41 1261.36 1558.02 C 1239.39 1557.86 1231.66 1577.74 1220.44 1593.03 C 1211.84 1604.74 1204.1 1618.74 1193.84 1628.95 C 1168.12 1646.19 1134.46 1641.59 1127.79 1608.45 C 1124.71 1593.15 1144.75 1562.43 1154.05 1550.84 C 1135.36 1550.39 1115.73 1551.14 1097.47 1547.7 C 1081.8 1544.74 1067.06 1538.16 1051.97 1534.78 L 1050.66 1534.49 C 1067.69 1523.51 1100.6 1511.36 1120.02 1501.48 C 1125.75 1498.57 1162.69 1481.46 1166.06 1481.03 C 1182.38 1478.91 1215.08 1479.94 1232.5 1479.92 L 1393.95 1479.78 C 1411.92 1479.81 1453.36 1482.13 1469.65 1479.32 C 1526.77 1469.48 1508.55 1405.88 1571.67 1397.33 Z M 1571.43 1460.58 C 1575.82 1459.48 1579.28 1456.09 1580.46 1451.71 C 1581.65 1447.34 1580.37 1442.67 1577.13 1439.5 C 1573.89 1436.34 1569.18 1435.17 1564.84 1436.46 C 1558.32 1438.39 1554.54 1445.18 1556.33 1451.74 C 1558.12 1458.3 1564.83 1462.23 1571.43 1460.58 Z"/>
    <path transform="translate(0,0)" style="fill: rgb(124,124,124)" stroke-linecap="round" d="M 1364.2 1170.24 C 1367.12 1170.11 1370.04 1170.06 1372.96 1170.08 C 1434.57 1170.45 1453.2 1199.87 1487.97 1244.66 C 1505.99 1267.93 1524.24 1291.02 1542.73 1313.92 C 1550.64 1323.81 1564.44 1342.09 1573.05 1350.61 L 1574.08 1351.62 C 1552.56 1365.03 1519.83 1381.18 1496.57 1394.25 C 1491.84 1384.5 1486.66 1374.98 1481.04 1365.72 C 1462.97 1336.51 1430.84 1306.56 1396.03 1299.82 C 1367.61 1294.32 1325.48 1294.29 1296.93 1300.98 C 1286.32 1303.47 1273.51 1310.92 1264.47 1316.6 C 1224.15 1346.1 1194.64 1393.16 1183.24 1441.51 C 1161.26 1454.6 1138.84 1466.92 1116.76 1479.97 C 1136.43 1390.39 1159.47 1362.13 1214.99 1292.63 C 1228.29 1276.01 1241.76 1259.53 1255.39 1243.18 C 1291.29 1199.84 1305.61 1179.79 1364.2 1170.24 Z"/>
    <path transform="translate(0,0)" style="fill: rgb(124,124,124)" stroke-linecap="round" d="M 1306.57 1326.25 C 1318.82 1325.67 1331.69 1325.79 1344 1325.71 C 1342.71 1337.97 1343.43 1374.18 1343.66 1387.78 C 1343.99 1407.64 1342.58 1438.31 1343.87 1456.92 L 1250.25 1456.87 C 1236.69 1456.71 1223.13 1456.79 1209.58 1457.09 C 1211.96 1424.81 1224.14 1403.42 1242.41 1377.6 C 1260.99 1351.37 1274.2 1334.25 1306.57 1326.25 Z"/>
    <path transform="translate(0,0)" style="fill: rgb(124,124,124)" stroke-linecap="round" d="M 1368.03 1325.78 C 1394.88 1325.67 1416.47 1327.84 1434.68 1350.42 C 1450.53 1370.07 1479.88 1410.25 1486.27 1434.02 C 1484.66 1442.15 1484.11 1444.07 1478.99 1450.53 C 1464.97 1460.91 1389.66 1456.78 1368.04 1456.91 C 1368.08 1413.68 1367.24 1368.77 1368.03 1325.78 Z"/>
    <path transform="translate(0,0)" style="fill: rgb(124,124,124)" stroke-linecap="round" d="M 1382.02 1582.63 C 1382.27 1582.99 1382.51 1583.36 1382.75 1583.73 C 1350.84 1617.99 1316.06 1628.15 1275.5 1601.9 C 1267.67 1595.24 1263.31 1590.77 1256.71 1582.97 C 1298.08 1582.13 1340.43 1583.12 1382.02 1582.63 Z"/>
    <path transform="translate(0,0)" style="fill: rgb(124,124,124)" stroke-linecap="round" d="M 838.703 228.432 C 843.632 227.685 863.002 227.934 868.364 227.934 C 919.136 227.447 969.812 232.417 1019.52 242.758 C 1211.15 280.342 1379.84 392.893 1488.11 555.409 C 1580.69 696.199 1632.41 907.374 1597.83 1073.96 C 1583.59 1048.23 1562.75 1019.75 1547.94 993.998 C 1543.94 987.039 1529.88 966.592 1528.15 960.164 C 1524.74 947.566 1524.41 921.643 1523.34 907.673 C 1522.27 895.185 1520.91 882.722 1519.29 870.293 C 1508.35 786.331 1472.34 694.504 1428.53 622.553 C 1342.82 480.364 1204.22 377.957 1043.13 337.778 C 873.816 296.96 692.154 316.944 542.478 408.836 C 395.42 498.992 289.727 643.376 248.226 810.803 C 211.67 971.072 238.635 1139.27 323.461 1280.08 C 401.729 1409.89 523.154 1508.05 666.489 1557.37 C 693.41 1566.25 720.764 1573.75 748.447 1579.85 C 764.333 1583.24 783.979 1586.1 799.208 1590.09 L 800.462 1590.43 C 789.511 1614.05 777.244 1646.67 767.54 1671.41 C 739.026 1664.37 712.042 1660.31 682.068 1652.05 C 578.062 1623.98 481.587 1573.17 399.609 1503.28 C 280.227 1399.48 197.855 1259.67 164.928 1104.94 C 157.371 1068.96 153.614 1036.13 151.005 999.659 C 137.202 811.699 198.774 625.973 322.129 483.483 C 429.276 358.474 575.286 273.052 736.761 240.903 C 772.841 233.849 802.379 230.99 838.703 228.432 Z"/>
    <path transform="translate(0,0)" style="fill: rgb(124,124,124)" stroke-linecap="round" d="M 587.567 636.202 C 589.544 636.024 591.527 635.914 593.512 635.871 C 620.607 635.219 630.365 651.374 647.709 668.994 L 688.622 710.056 C 745.709 767.179 804.461 827.382 862.211 883.557 C 880.899 877.707 890.211 879.833 907.521 886.667 C 909.569 884.821 911.712 883.082 913.941 881.458 C 927.163 871.643 945.081 860.387 959.035 851.12 L 1043.71 795.25 L 1089.77 764.907 C 1106.79 753.716 1120.83 741.122 1142.68 744.852 C 1154.16 746.835 1164.35 753.403 1170.9 763.047 C 1182.67 780.39 1177.87 804.694 1163.83 818.636 C 1151.36 831.014 1131.76 842.613 1117.03 852.295 L 949.655 964.125 C 948.18 969.827 947.302 975.191 945.234 980.781 C 934.548 1009.67 906.744 1029.05 875.984 1028.49 C 856.202 1028.31 837.322 1020.19 823.604 1005.93 C 806.708 988.172 805.544 972.36 806.111 949.596 C 800.229 942.339 779.376 923.004 771.371 915.011 L 633.999 778.104 C 612.093 756.186 589.898 734.592 568.558 712.053 C 554.155 696.841 548.848 676.253 559.057 656.899 C 565.507 644.674 575.031 640.033 587.567 636.202 Z"/>
    <path transform="translate(0,0)" style="fill: rgb(124,124,124)" stroke-linecap="round" d="M 872.721 389.209 C 881.677 387.691 890.884 389.004 899.059 392.965 C 913.901 400.23 921.854 414.169 921.899 430.491 C 922.016 472.722 922.626 515.401 921.628 557.6 C 921.146 577.982 907.163 590.677 887.867 595.518 C 876.855 597.097 865.641 594.683 856.255 588.713 C 849.112 584.11 840.664 574.74 839.555 566.218 C 836.481 542.599 838.217 515.256 837.878 491.171 C 838.288 469.152 837.088 446.919 838.619 424.953 C 839.978 405.447 854.198 392.435 872.721 389.209 Z"/>
    <path transform="translate(0,0)" style="fill: rgb(124,124,124)" stroke-linecap="round" d="M 337.688 908.202 C 366.33 907.274 396.159 908.46 424.904 907.957 C 439.054 907.709 464.398 906.612 476.559 912.585 C 486.905 917.745 494.712 926.886 498.189 937.912 C 505.826 963 492.224 984.456 467.855 991.782 C 448.434 993.93 420.821 992.449 400.653 992.869 C 381.092 992.767 361.651 993.271 342.112 992.424 C 309.822 991.023 294.774 955.672 309.528 928.856 C 316.374 916.414 324.731 912.078 337.688 908.202 Z"/>
    <path transform="translate(0,0)" style="fill: rgb(124,124,124)" stroke-linecap="round" d="M 873.469 1308.22 C 910.824 1306.18 923.954 1328.12 924.463 1361.9 C 924.895 1390.55 913.625 1405.58 901.002 1430.09 L 874.178 1482.43 L 865.052 1499.95 C 859.022 1493.91 841.927 1474.51 840.548 1466.52 C 835.3 1436.09 839.051 1397.19 837.985 1366.46 C 836.946 1336.52 842.02 1316.25 873.469 1308.22 Z"/>
</svg>