<?xml version="1.0" encoding="utf-8"?><svg version="1.1" id="Layer_1" xmlns="http://www.w3.org/2000/svg" xmlns:xlink="http://www.w3.org/1999/xlink" x="0px" y="0px" viewBox="0 0 104.31 122.88" style="enable-background:new 0 0 104.31 122.88" xml:space="preserve"><g><path d="M25.85,63.15c-0.04-0.12-0.08-0.28-0.1-0.42c-0.22-1.89-0.43-3.98-0.62-5.78c-0.26-2.64-0.55-5.69-0.76-7.83 c-0.14-1.45-0.6-2.83-1.27-3.86c-0.45-0.66-0.95-1.15-1.51-1.39c-0.45-0.18-1-0.2-1.57,0.02c-0.78,0.3-1.65,0.93-2.62,2.03 c-0.86,0.98-1.53,2.29-2.09,3.68c-0.79,2.03-1.26,4.19-1.45,5.67c-0.02,0.1-0.02,0.18-0.06,0.26L8.42,86.07 c-0.08,0.4-0.24,0.76-0.48,1.04c-1.81,2.33-2.95,4.33-3.28,5.95c-0.24,1.19,0,2.15,0.79,2.9l19.8,19.8 c1.26,1.21,2.72,1.97,4.47,2.29c1.91,0.36,4.14,0.16,6.7-0.54c0.04,0,0.1-0.02,0.14-0.02c0.97-0.26,2.24-0.57,3.46-0.88 c5.31-1.29,9.94-2.43,14.23-6.33l5.52-5.76c0.05-0.1,0.14-0.18,0.22-0.26s0.62-0.62,1.35-1.31c3.78-3.69,8.45-8.25,5.61-12.24 l-2.21-2.21c-1.07,1.04-2.21,2.05-3.3,3.02c-1,0.88-1.93,1.69-2.78,2.55c-0.91,0.91-2.38,0.91-3.3,0c-0.91-0.92-0.91-2.38,0-3.3 c0.86-0.86,1.91-1.79,3-2.76c3.74-3.3,8.03-7.07,5.73-10.38l-2.19-2.19c-0.12-0.12-0.22-0.26-0.31-0.4c-1.26,1.29-2.64,2.52-4,3.72 c-1,0.88-1.93,1.69-2.78,2.55c-0.91,0.91-2.38,0.91-3.3,0s-0.91-2.38,0-3.3c0.86-0.86,1.91-1.79,3-2.76 c3.74-3.3,8.03-7.07,5.73-10.38l-2.19-2.19c-0.16-0.16-0.28-0.31-0.38-0.5l-6.42,6.42c-0.91,0.91-2.38,0.91-3.3,0s-0.91-2.38,0-3.3 l17.22-17.25c2.88-2.88,3.54-5.88,2.78-8.15c-0.28-0.83-0.74-1.57-1.31-2.14s-1.31-1.03-2.14-1.31c-2.24-0.74-5.23-0.06-8.19,2.9 l-30.2,30.2c-0.91,0.91-2.38,0.91-3.3,0s-0.91-2.38,0-3.3l3.07-3.07L25.85,63.15L25.85,63.15L25.85,63.15z M83.23,24.31 c-1.22,1.3-3.24,1.34-4.52,0.14c-1.3-1.22-1.34-3.24-0.14-4.52l8.82-9.39c1.22-1.3,3.25-1.34,4.52-0.14 c1.3,1.22,1.34,3.24,0.14,4.52L83.23,24.31L83.23,24.31L83.23,24.31L83.23,24.31z M43.96,23.65c1.3,1.22,1.34,3.25,0.14,4.52 c-1.22,1.3-3.25,1.34-4.52,0.14l-9.4-8.82c-1.29-1.23-1.33-3.25-0.14-4.52c1.22-1.3,3.25-1.34,4.52-0.14L43.96,23.65L43.96,23.65 L43.96,23.65z M63.69,15.96c0.05,1.76-1.34,3.24-3.09,3.3s-3.24-1.34-3.3-3.09L56.91,3.3c-0.06-1.75,1.34-3.24,3.09-3.3 c1.76-0.05,3.24,1.34,3.29,3.09L63.69,15.96L63.69,15.96L63.69,15.96z M76.88,63.31c-1.3-1.22-1.34-3.25-0.14-4.52 c1.22-1.3,3.24-1.34,4.52-0.14l9.39,8.82c1.3,1.22,1.34,3.24,0.14,4.52c-1.22,1.3-3.24,1.34-4.52,0.14L76.88,63.31L76.88,63.31 L76.88,63.31z M88.36,44.35c-1.75,0.06-3.24-1.34-3.3-3.09c-0.05-1.75,1.34-3.24,3.09-3.3l12.86-0.43c1.75-0.06,3.24,1.34,3.3,3.09 s-1.34,3.24-3.09,3.3L88.36,44.35L88.36,44.35L88.36,44.35z M60.88,58.97c0.17,0.1,0.34,0.22,0.5,0.38l2.29,2.29 c0.12,0.12,0.24,0.28,0.34,0.42c2.57,3.52,2.17,6.66,0.42,9.52c0.31,0.12,0.62,0.29,0.86,0.54l2.29,2.29 c0.12,0.12,0.24,0.28,0.34,0.42c2.76,3.8,2.07,7.12,0,10.14c0.1,0.05,0.17,0.14,0.28,0.24l2.29,2.29c0.12,0.12,0.24,0.28,0.34,0.42 c5.31,7.26-1.02,13.42-6.1,18.39l-1.31,1.31l-5.67,5.95l-0.18,0.17c-5.19,4.71-10.33,5.97-16.28,7.42c-1,0.24-2,0.5-3.4,0.86 c-0.04,0-0.06,0.02-0.1,0.02c-3.22,0.88-6.14,1.09-8.76,0.62c-2.66-0.48-4.97-1.67-6.9-3.56L2.31,99.29 c-2-1.93-2.69-4.31-2.12-7.14c0.43-2.26,1.75-4.77,3.81-7.47L9.3,54.74v-0.12c0.24-1.71,0.78-4.24,1.71-6.68 c0.71-1.83,1.67-3.62,2.92-5.07c1.51-1.71,3-2.76,4.47-3.32c1.81-0.69,3.54-0.6,5.07,0.06c1.43,0.6,2.64,1.69,3.56,3.08 c1.12,1.67,1.85,3.8,2.05,6.02c0.16,1.83,0.48,4.85,0.78,7.81l0.24,2.47L53,36.07c4.4-4.4,9.16-5.27,12.97-4.02 c1.53,0.5,2.88,1.33,4,2.45s1.95,2.47,2.45,4c1.26,3.8,0.4,8.63-3.92,12.95l-7.59,7.59L60.88,58.97L60.88,58.97L60.88,58.97z" fill="#7c7c7c"/></g></svg>